<svg width="675" height="549" viewBox="0 0 675 549" fill="none" xmlns="http://www.w3.org/2000/svg">
<path d="M3.0625 442.609C3.50671 441.89 26.4532 415.951 54.0547 384.966L104.239 328.63V167.011V5.39169H191.105H277.971V68.2947C277.971 106.954 278.408 131.198 279.103 131.198C279.725 131.198 288.013 122.167 297.519 111.129C307.026 100.091 332.583 71.0701 354.311 46.6384L393.817 2.21722L394.508 121.328C394.889 186.839 395.472 240.71 395.804 241.042C396.393 241.632 518.371 131.805 551.75 100.632C566.039 87.2871 626.733 32.1711 651.716 9.85299C657.26 4.90033 659.694 3.39132 660.384 4.47877C660.912 5.31037 661.352 104.524 661.362 224.953L661.38 443.916H603.27H545.16V342.267C545.16 237.939 544.284 182.391 542.649 182.982C541.302 183.469 492.799 227.277 354.69 352.749L316.986 387.003L424.782 387.731C484.071 388.131 533.523 388.535 534.676 388.629C536.606 388.787 536.773 390.948 536.773 415.759V442.718H320.592H104.412L103.718 436.427C103.337 432.968 102.894 427.824 102.734 424.997L102.442 419.858L91.6587 431.794L80.8753 443.73L41.5651 443.823C13.4632 443.889 2.48514 443.543 3.0625 442.609V442.609ZM183.916 327.242L289.354 214.221L290.082 295.82C291.103 410.383 290.888 401.98 292.798 401.98C294.364 401.98 316.596 382.023 478.662 235.131L548.155 172.145L548.881 259.805C549.281 308.017 549.685 367.818 549.78 392.695L549.952 437.925H603.27H656.588V224.654C656.588 107.355 656.296 11.3825 655.938 11.3825C655.215 11.3825 584.763 75.3101 559.538 98.8565C550.641 107.161 528.78 127.135 510.957 143.244C493.134 159.354 459.493 189.787 436.199 210.875C412.905 231.962 393.467 249.368 393.004 249.554C391.149 250.3 390.609 221.856 390.586 122.212C390.572 63.304 390.097 17.2387 389.493 16.2854C388.666 14.9789 386.959 16.1947 381.924 21.6771C372.116 32.3545 348.581 58.8693 319.273 92.2578C304.811 108.732 230.159 192.816 153.379 279.109C76.5989 365.403 13.0742 436.978 12.2131 438.164C10.7154 440.228 12.118 440.32 44.5632 440.292L78.479 440.263L183.916 327.242ZM286.359 306.128C286.359 257.91 285.913 224.654 285.267 224.654C284.667 224.654 282.779 226.313 281.073 228.34L277.971 232.026V309.815V387.603H282.165H286.359V306.128Z" fill="#999999"/>
<path d="M6.88365 546.382C4.5257 546.141 4.58257 545.514 6.98956 545.213C8.03799 545.083 9.75719 544.868 10.81 544.737C13.3275 544.422 14.7966 543.117 15.323 540.727C15.9681 537.798 16.3057 489.701 15.6969 487.446C15.426 486.443 14.5265 484.872 13.698 483.955C12.2498 482.352 11.5874 482.048 7.41317 481.071C6.21171 480.79 8.98477 480.665 16.9444 480.642L28.1701 480.611L30.2638 484.305C43.7411 508.088 57.2765 530.997 57.8517 530.997C58.9646 530.997 64.6056 521.819 79.3973 495.943L88.1753 480.587L98.4157 480.623C107.724 480.656 108.45 480.709 106.39 481.207C103.79 481.836 102.115 482.935 101.336 484.522C100.147 486.946 99.9043 493.006 100.074 516.082C100.225 536.542 100.33 539.518 100.972 541.482C101.388 542.753 102.102 543.958 102.637 544.292C103.152 544.614 105.076 544.982 106.912 545.11C111.811 545.451 111.86 546.102 107.014 546.465C102.078 546.835 77.6944 546.561 77.264 546.131C76.6966 545.564 77.4536 545.307 80.3565 545.083C81.9422 544.961 83.9505 544.504 84.8194 544.067C87.5366 542.701 87.8051 541.684 88.1579 531.42C88.7529 514.111 88.4388 493.902 87.5612 493.027C87.3753 492.841 86.8988 492.892 86.5022 493.14C85.6809 493.652 85.0078 494.789 73.4925 515.111C60.5471 537.957 55.5314 546.247 54.6541 546.247C54.0399 546.247 48.4238 536.939 35.4844 514.476C28.8412 502.943 22.9528 492.744 22.3991 491.812L21.3923 490.118L21.1805 502.615C20.8558 521.772 21.2579 540.24 22.0332 541.777C22.9712 543.638 25.1475 544.698 28.7298 545.04C31.9031 545.343 32.5864 545.572 32.018 546.141C31.6784 546.48 9.89759 546.689 6.88365 546.382V546.382Z" fill="#999999"/>
<path d="M122.847 546.374C121.1 546.303 119.194 546.118 118.611 545.965L117.552 545.685L118.823 545.381C119.522 545.213 120.9 545.053 121.886 545.026C124.629 544.949 126.927 543.845 128.028 542.074L128.99 540.528L129.12 516.382C129.202 501.293 129.086 491.003 128.811 488.948C128.114 483.741 127.017 482.297 122.965 481.256C121.097 480.775 121.59 480.713 129.375 480.449C134.014 480.292 147.665 480.163 159.709 480.163H181.608L181.881 482.767C182.406 487.797 182.108 493.719 181.329 493.719C181.167 493.719 180.404 492.283 179.633 490.528C178.082 486.999 175.872 484.711 173.285 483.955C171.362 483.393 158.338 482.742 148.582 482.721L141.062 482.705V496.522V510.339L150.911 510.05C162.66 509.706 167.293 509.219 169.489 508.099C171.308 507.171 171.961 506.124 173.042 502.403C173.739 500.003 173.806 499.92 174.237 500.92C174.517 501.568 174.703 505.681 174.717 511.51C174.747 524.051 174.266 525.824 172.39 520.084C171.276 516.671 169.976 515.152 167.605 514.492C166.568 514.203 160.747 513.9 153.453 513.756L141.062 513.511L141.086 526.384C141.112 540.336 141.271 541.514 143.322 543.03C144.468 543.876 144.986 543.914 154.548 543.854C165.273 543.786 171.554 543.271 174.564 542.211C177.571 541.152 179.513 539.538 183.074 535.141C189.08 527.725 189.464 528.544 184.938 539.113L181.792 546.458L153.908 546.482C138.572 546.494 124.595 546.446 122.847 546.374L122.847 546.374Z" fill="#999999"/>
<path d="M196.344 546.286C193.69 545.971 194.371 545.471 197.896 545.146C203.668 544.614 205.313 543.304 205.897 538.773C206.4 534.869 206.378 492.623 205.871 488.718C205.179 483.394 204.314 482.339 199.733 481.238L197.615 480.729L201.851 480.385C207.066 479.961 238.272 480.419 244.586 481.012C262.829 482.725 274.972 492.007 277.713 506.332C279.342 514.846 277.668 523.925 273.304 530.247C270.58 534.192 264.511 539.331 259.673 541.787C255.981 543.662 253.18 544.447 247.551 545.185C239.301 546.267 202.798 547.051 196.344 546.286H196.344ZM243.483 542.124C248.659 540.409 252.773 537.91 256.498 534.219C259.946 530.803 262.18 527.242 263.81 522.565C264.806 519.707 264.933 518.708 264.94 513.628C264.952 505.577 263.288 500.162 259.243 495.082C256.138 491.182 249.232 486.766 243.573 485.064C240.033 483.999 233.644 483.134 229.297 483.131C225.765 483.129 219.081 483.834 218.603 484.26C218.417 484.425 217.81 542.505 217.992 542.783C218.3 543.256 225.016 543.622 231.715 543.532C239.187 543.431 239.735 543.366 243.483 542.124V542.124Z" fill="#999999"/>
<path d="M290.279 546.379C287.553 546.162 287.382 545.535 289.962 545.213C291.01 545.083 292.757 544.864 293.843 544.728C296.675 544.372 298.039 542.883 298.5 539.647C298.943 536.54 298.978 487.159 298.539 485.592C298.126 484.12 296.284 482.834 292.888 481.647C290.265 480.731 290.213 480.685 291.492 480.429C293.261 480.075 314.915 480.087 317.513 480.443L319.553 480.723L316.2 481.82C312.102 483.16 311.168 484.291 310.645 488.545C310.453 490.109 310.295 502.255 310.295 515.535C310.295 538.208 310.343 539.777 311.082 541.262C312.07 543.251 314.039 544.486 316.7 544.787C321.126 545.288 321.66 545.43 321.131 545.958C320.769 546.321 316.754 546.472 306.568 546.507C298.832 546.533 291.503 546.476 290.28 546.379L290.279 546.379Z" fill="#999999"/>
<path d="M333.098 546.278C330.961 546.144 329.07 545.892 328.897 545.717C328.723 545.542 328.851 545.391 329.181 545.381C332.299 545.284 336.098 544.514 337.388 543.716C340.469 541.812 340.376 542.592 340.335 518.924C340.289 492.615 339.958 484.621 338.868 483.531C338.442 483.105 336.634 482.296 334.849 481.734L331.605 480.711L333.235 480.442C335.254 480.108 352.211 480.178 358.799 480.548C363.242 480.797 363.484 480.851 361.552 481.166C357.496 481.827 356.151 482.349 354.51 483.899C353.142 485.191 352.78 485.893 352.4 487.995C351.743 491.621 352.131 537.803 352.837 540.032C353.724 542.837 354.559 542.992 368.753 542.993C379.17 542.994 381.425 542.882 383.58 542.257C388.306 540.887 391.903 538.162 396.389 532.556C397.661 530.967 398.797 529.764 398.915 529.881C399.194 530.16 397.743 534.527 395.132 541.269L393.04 546.67L365.012 546.596C349.596 546.555 335.234 546.412 333.098 546.278V546.278Z" fill="#999999"/>
<path d="M407.937 546.397C404.727 546 404.655 545.508 407.721 544.935C410.401 544.434 413.045 542.489 414.954 539.612C416.465 537.336 424.437 522.827 440.52 493.083C447.723 479.761 448.829 478.063 449.695 478.99C450.474 479.823 455.839 489.645 463.64 504.521C474.097 524.46 481.645 538.616 482.791 540.443C483.982 542.341 487.105 544.443 489.24 544.783C492.527 545.307 492.812 545.417 492.276 545.952C491.703 546.525 461.631 546.707 461.065 546.141C460.531 545.607 461.113 545.363 463.842 544.977C468.621 544.302 469.874 542.722 468.737 538.808C467.973 536.181 465.118 530.214 462.718 526.231L461.251 523.795H445.193H429.135L427.85 526.019C424.826 531.253 421.806 537.836 421.603 539.634C421.15 543.654 421.992 544.506 426.899 544.986C430.018 545.292 430.793 545.56 430.218 546.135C429.882 546.471 410.388 546.701 407.937 546.397V546.397ZM453.823 520.973L459.253 520.696L458.979 519.598C458.411 517.323 446.27 493.931 445.657 493.931C445.285 493.931 442.903 497.933 439.652 504.022C436.688 509.573 433.582 515.257 432.75 516.655C431.917 518.053 431.236 519.46 431.236 519.782C431.236 520.699 434.202 521.042 443.309 521.175C446.105 521.217 450.836 521.125 453.823 520.973Z" fill="#999999"/>
<path d="M567.851 544.573C565.521 542.377 554.273 531.418 542.856 520.22C531.439 509.023 520.517 498.342 518.585 496.485L515.071 493.109L515.197 516.818C515.314 538.788 515.379 540.631 516.092 541.938C517.023 543.644 519.628 544.933 522.312 545.016C523.361 545.049 524.791 545.214 525.49 545.383C526.649 545.663 526.686 545.723 525.913 546.074C524.899 546.534 499.646 546.597 499.19 546.141C498.569 545.519 499.482 545.257 502.932 545.065C504.854 544.958 506.736 544.711 507.113 544.514C509.594 543.225 510.119 536.661 509.948 509.102L509.816 487.843L508.599 486.573C507.157 485.069 502.378 482.658 498.685 481.573C497.236 481.147 496.05 480.656 496.049 480.481C496.049 480.306 500.661 480.163 506.298 480.163H516.547L538.598 502.117C560.267 523.69 565.822 528.879 567.251 528.879C567.866 528.879 568.015 528.193 568.278 524.161C568.74 517.093 567.74 487.76 566.926 484.466C566.656 483.377 564.682 482.365 560.988 481.423C559.777 481.114 558.882 480.704 559.001 480.512C559.263 480.089 577.245 480.103 579.924 480.529L581.83 480.832L579.988 481.145C575.571 481.894 574.28 483.21 573.547 487.714C573.331 489.036 573.037 502.128 572.893 516.806C572.749 531.484 572.509 544.635 572.359 546.03L572.087 548.567L567.851 544.573Z" fill="#999999"/>
<path d="M591.361 546.322C588.853 545.944 589.671 545.456 593.576 545.001C597.461 544.548 598.747 544.04 599.705 542.578C600.415 541.495 600.477 539.658 600.593 516.273C600.724 489.909 600.476 484.223 599.153 483.255C598.735 482.949 597.064 482.271 595.439 481.749C592.746 480.882 592.595 480.775 593.724 480.531C595.765 480.09 625.356 480.139 632.871 480.596C647.653 481.495 655.057 483.643 661.525 488.911C664.671 491.474 665.536 492.437 668.014 496.137C672.055 502.172 674.23 509.091 673.792 514.521C672.635 528.868 660.094 541.905 644.736 544.728C642.756 545.092 638.276 545.576 634.781 545.804C626.88 546.319 593.949 546.712 591.361 546.322V546.322ZM636.793 542.663C642.031 541.282 648.902 537.071 652.705 532.909C657.259 527.926 659.324 521.801 659.278 513.417C659.243 507.092 658.358 502.995 656.094 498.669C654.166 494.986 648.758 489.666 644.948 487.704C637.067 483.646 625.449 482.108 616.142 483.891L612.33 484.621L612.203 510.456C612.134 524.666 612.194 537.465 612.339 538.898C612.717 542.667 613.061 542.977 617.26 543.334C622.67 543.795 633.974 543.407 636.793 542.663V542.663Z" fill="#999999"/>
</svg>
