<svg width="300" height="89" viewBox="0 0 1026 303" fill="none" xmlns="http://www.w3.org/2000/svg">
<path d="M382.405 298.086C373.236 292.085 366.705 285.782 363.582 279.922C360.141 273.466 359.496 271.713 334.785 201.644C303.565 113.116 304.574 115.705 297.853 106.893L294.711 102.773H313.822H332.932L333.44 106.893C334.586 116.188 382.951 256.717 385.004 256.717C386.282 256.717 388.08 252.188 405.494 205.113C423.618 156.119 429.458 139.738 431.13 133.207C434.006 121.975 432.897 112.145 428.035 105.77L425.749 102.773H445.402H465.054L464.482 105.053C464.167 106.307 449.637 144.847 432.194 190.697C414.75 236.548 398.202 280.073 395.421 287.42C392.639 294.766 390.021 301.119 389.603 301.538C389.167 301.974 386.095 300.501 382.405 298.086Z" fill="#999999"/>
<path d="M469.202 294.578C469.202 294.175 469.969 293.152 470.905 292.304C471.842 291.456 473.306 288.956 474.158 286.749C475.586 283.049 475.707 278.49 475.707 228.454V174.172L472.88 168.691C471.326 165.676 470.209 163.054 470.399 162.864C470.589 162.674 475.764 162.295 481.899 162.021C488.119 161.743 494.34 161 495.963 160.341C497.564 159.691 499.223 159.374 499.649 159.638C500.09 159.91 500.446 183.366 500.474 214.054C500.502 243.72 500.843 272.419 501.232 277.83C501.883 286.87 502.159 287.979 504.634 291.49L507.327 295.311H488.264C477.78 295.311 469.202 294.981 469.202 294.578V294.578Z" fill="#999999"/>
<path d="M567.231 299.405C552.131 297.529 541.595 288.535 536.68 273.328C534.62 266.954 534.577 266.008 534.37 222.391L534.174 181.128L533.236 180.876C532.719 180.738 529.565 180.62 526.226 180.615C522.887 180.61 519.124 180.481 517.864 180.33L515.572 180.054L515.695 175.98L515.819 171.906L520.372 170.381C528.936 167.513 533.628 164.644 537.865 159.685C544.568 151.838 548.097 141.417 549.102 126.502L549.606 119.008L554.178 119.13L558.749 119.252L559.015 138.549C559.161 149.162 559.308 158.675 559.34 159.689L559.4 161.532H578.047H596.693L596.686 172.915C596.683 179.176 596.513 184.561 596.309 184.883C596.019 185.341 595.421 185.123 593.533 183.869C592.21 182.991 590.379 182.088 589.465 181.864C588.077 181.523 569.112 180.695 561.242 180.631L558.966 180.612L558.975 216.063C558.985 254.78 559.253 262.653 560.672 265.86C562.668 270.373 566.848 275.185 570.766 277.481C574.998 279.962 584.956 281.407 590.803 280.388C592.428 280.105 593.873 279.989 594.014 280.129C594.439 280.554 592.923 282.989 588.581 288.857C581.473 298.465 580.142 299.467 574.226 299.674C572.153 299.746 569.005 299.625 567.23 299.405L567.231 299.405Z" fill="#999999"/>
<path d="M482.209 141.199C472.66 138.122 467.754 126.458 472.144 117.274C473.672 114.079 477.345 110.252 480.496 108.575C482.142 107.698 483.038 107.547 486.548 107.551C491.376 107.557 493.41 108.341 497.014 111.582C501.347 115.477 502.798 119.266 502.506 125.924C502.286 130.956 501.115 133.796 497.957 136.953C494.751 140.16 491.911 141.349 487.198 141.459C485.052 141.509 482.806 141.392 482.209 141.199V141.199Z" fill="#999999"/>
<path d="M667.176 298.961C654.656 297.245 642.927 292.914 633.101 286.378C628.026 283.002 619.375 274.511 616.271 269.859C611.312 262.426 606.826 251.032 605.565 242.668C604.806 237.629 604.698 217.92 605.402 212.856C606.55 204.605 611.338 192.751 616.718 184.844C620.083 179.898 626.905 172.768 631.818 169.064C644.839 159.247 664.45 154.586 682.684 156.977C704.957 159.896 719.313 169.727 729.384 188.957C734.001 197.772 736.233 206.593 736.627 217.581L736.887 224.844H683.681H630.474L630.739 227.554C631.373 234.039 632.43 240.504 633.412 243.908C637.346 257.552 645.412 267.221 657.996 273.377C667.118 277.839 671.21 278.609 685.807 278.608C707.156 278.608 714.49 277.235 729.49 270.435C736.039 267.466 737.194 267.04 737.194 267.592C737.194 268.044 725.42 287.439 723.484 290.177C722.444 291.646 720.957 293.237 720.179 293.712C718.3 294.858 707.804 297.578 702.085 298.4C696.597 299.19 671.754 299.588 667.176 298.961V298.961ZM707.272 205.1C707.272 202.647 705.978 198.736 703.74 194.425C700.131 187.474 696.904 184.34 689.71 180.799C683.661 177.823 681.383 177.36 672.798 177.362C666.4 177.364 664.97 177.495 661.978 178.36C651.885 181.277 643.735 186.872 639.365 193.883C636.796 198.006 634.432 203.423 634.425 205.205L634.42 206.597L638.215 206.742C640.302 206.821 656.693 206.926 674.641 206.976L707.272 207.065L707.272 205.1Z" fill="#999999"/>
<path d="M930.382 299.002C916.543 297.851 903.039 286.873 898.709 273.254C896.763 267.135 896.223 262.681 896.466 254.765C896.813 243.455 898.651 238.52 904.781 232.433C911.871 225.393 923.666 220.481 947.944 214.456C960.698 211.292 970.315 207.145 972.967 203.667C974.966 201.047 975.845 197.714 975.61 193.65C975.302 188.34 972.868 184.022 968.48 181.003C964.458 178.236 960.892 177.538 950.705 177.523C938.529 177.506 930.12 179.169 920.466 183.504C918.112 184.561 916.08 185.318 915.949 185.188C915.498 184.737 928.148 161.229 929.654 159.717C931.395 157.969 946.869 156.062 955.967 156.474C978.03 157.473 991.312 165.409 997.43 181.25C1000.75 189.856 1000.97 192.712 1001.7 238.721C1002.17 268.225 1002.18 268.303 1004.98 271.576C1007.8 274.866 1012.4 276.587 1022.34 278.072L1024.53 278.399L1018.65 286.943C1015.42 291.641 1012.64 295.613 1012.48 295.769C1012.31 295.925 1009.77 295.822 1006.84 295.541C993.937 294.305 990.496 293.067 985.218 287.76C981.476 283.996 979.081 279.843 978.32 275.797C978.031 274.261 977.662 263.25 977.419 248.911C977.193 235.555 976.905 224.188 976.778 223.652C976.449 222.253 975.548 222.39 969.288 224.79C962.532 227.379 958.391 228.719 951.652 230.499C941.816 233.097 935.501 235.735 930.317 239.412C926.088 242.412 923.785 245.849 922.581 250.957C919.611 263.551 926.546 274.527 939.705 278.064C944.93 279.468 959.786 278.909 966.97 277.038C968.26 276.702 969.416 276.526 969.537 276.647C969.821 276.932 967.306 280.723 963.197 286.205C956.514 295.118 954.475 297.011 950.185 298.285C947.375 299.119 936.518 299.512 930.382 299.002V299.002Z" fill="#999999"/>
<path d="M760.75 295.58C756.892 295.427 753.63 295.196 753.501 295.068C753.373 294.939 753.959 294.063 754.804 293.121C755.649 292.179 757.016 290.023 757.842 288.329L759.344 285.25L759.804 275.97C760.389 264.155 760.003 181.67 759.337 176.105C758.705 170.823 758.24 169.319 756.485 166.882C755.655 165.728 754.656 164.339 754.265 163.795C753.874 163.251 753.654 162.706 753.776 162.585C753.898 162.463 758.656 162.177 764.351 161.95C776.178 161.478 779.392 161.05 782.338 159.558C783.49 158.974 784.536 158.497 784.663 158.497C784.79 158.497 784.894 161.9 784.894 166.06C784.894 170.887 785.059 173.725 785.351 173.905C785.602 174.06 787.505 172.553 789.579 170.556C791.653 168.559 794.827 166.007 796.632 164.884C803.55 160.579 812.774 157.572 821.837 156.665C830.937 155.756 842.168 157.392 850.259 160.806C859.375 164.653 868.06 173.609 871.615 182.829C874.172 189.458 874.229 190.432 874.668 234.818C874.889 257.118 875.251 277.576 875.473 280.28C875.931 285.845 876.94 288.421 880.51 293.143L882.477 295.745L862.672 295.858C851.779 295.92 842.784 295.887 842.682 295.786C842.58 295.684 843.491 294.336 844.706 292.79C847.372 289.397 848.396 287.181 849.152 283.169C849.916 279.115 849.952 203.791 849.193 198.89C848.045 191.482 842.14 184.356 833.709 180.204C828.907 177.838 827.029 177.51 818.285 177.506C805.213 177.5 800.048 179.231 793.567 185.789C787.697 191.729 786.522 194.749 785.764 205.847C785.222 213.789 785.216 272.831 785.757 279.7C786.334 287.019 786.918 288.653 790.174 292.046L792.866 294.852L791.462 295.139C789.256 295.591 768.51 295.888 760.75 295.58L760.75 295.58Z" fill="#999999"/>
<path d="M107.272 288.698C108.345 251.451 110.949 229.886 117.572 203.379C129.391 156.078 145.714 122.111 171.642 90.8635C173.925 88.1123 180.683 80.9673 186.659 74.9856C202.725 58.9049 211.62 51.8237 228.673 41.542C266.147 18.9468 306.404 6.64547 358.846 1.76536C374.974 0.264494 393.647 -0.10507 390.333 1.14218C389.767 1.35535 385.962 2.02672 381.877 2.63409C360.377 5.83134 331.908 12.9056 306.152 21.4512C252.659 39.2001 211.112 67.6075 181.19 106.893C160.965 133.448 146.509 164.793 137.06 202.576C131.138 226.256 128.713 243.885 126.629 278.399C125.528 296.636 125.429 297.561 124.525 297.918C123.857 298.183 112.508 298.943 108.669 298.981L106.975 298.997L107.272 288.698Z" fill="#999999"/>
<path d="M58.4975 298.625C56.3622 298.466 54.4617 298.092 54.0527 297.751C53.1116 296.968 53.0924 289.881 53.9943 276.206C55.5925 251.974 58.1394 230.704 61.3907 214.437C65.8835 191.959 78.6675 153.914 87.0369 138.115C112.458 90.1274 145.043 56.8826 189.719 33.3533C216.347 19.3293 250.15 8.9249 284.675 4.12666C301.683 1.76281 327.567 -0.168863 333.885 0.45411L337.158 0.776801L334.989 1.34946C333.797 1.66442 329.894 2.42839 326.317 3.04717C246.005 16.9381 189.005 42.8415 147.424 84.3436C130.027 101.708 116.682 120.28 105.358 142.885C100.863 151.858 99.6778 154.666 94.1012 169.555C86.7669 189.135 82.5542 205.134 78.5141 228.751C75.1429 248.457 73.5095 263.85 72.8317 282.302C72.3592 295.163 72.0503 297.398 70.6411 298.153C69.528 298.748 63.3565 298.989 58.4975 298.625V298.625Z" fill="#999999"/>
<path d="M1.6265 298.264C1.20928 298.155 0.740725 297.559 0.585264 296.94C0.158676 295.24 0.743323 274.387 1.5002 264.306C3.51369 237.487 5.68526 223.549 11.2634 201.644C17.8619 175.732 25.8867 153.149 34.2405 136.982C37.6822 130.322 45.2846 117.393 49.0012 111.88C50.1267 110.21 51.5855 107.771 52.2429 106.459C55.715 99.5312 78.9653 74.3209 92.7997 62.4837C137.529 24.2119 196.78 3.77916 272.791 0.414208C279.214 0.129855 284.677 0.47743 283.555 1.09909C283.223 1.28262 278.952 2.05103 274.063 2.80667C245.252 7.25928 209.317 17.0366 181.497 27.992C171.528 31.9177 152.101 41.4117 142.452 47.0739C112.307 64.7623 89.7074 85.3754 69.7352 113.398C59.0895 128.334 49.2364 146.44 43.776 161.098C34.5167 185.955 31.4082 196.176 27.817 213.569C23.4938 234.508 21.6565 249.02 19.9387 275.797C18.7818 293.829 18.393 297.329 17.4696 298.021C16.9521 298.409 14.7037 298.549 9.56572 298.513C5.61637 298.485 2.04372 298.374 1.6265 298.264V298.264Z" fill="#999999"/>
</svg>
