<svg width="842" height="209" viewBox="0 0 842 209" fill="none" xmlns="http://www.w3.org/2000/svg">
<g clip-path="url(#clip0)">
<path d="M4.33906 157.123L-0.21875 156.867L0.237289 134.306C0.488111 121.897 0.697474 96.6111 0.702541 78.1146L0.711754 44.4844L63.5237 44.5329C98.0702 44.5596 133.26 44.8251 141.724 45.1229C156.797 45.6533 157.181 45.7048 160.477 47.6362C164.91 50.2342 169.105 54.6334 171.322 59.0084C173.771 63.8406 174.303 74.047 174.544 120.82L174.735 157.653L157.475 157.653L140.215 157.653L140.191 119.04C140.167 78.66 139.806 71.8172 137.537 68.7494C135.029 65.3595 133.072 64.9303 118.444 64.563L104.798 64.2204L104.515 110.185C104.36 135.465 104.012 156.37 103.742 156.64C103.472 156.909 95.8742 157.294 86.8574 157.493L70.4632 157.856L70.4322 121.989C70.3991 83.7117 69.9192 73.1609 68.0467 69.5398C65.9407 65.4673 63.9279 64.9711 47.8909 64.5703L33.4522 64.2095V110.931V157.653L21.1746 157.515C14.4218 157.44 6.84586 157.263 4.33906 157.123Z" fill="#999999"/>
<path d="M201.247 157.124L195.731 156.881V100.683V44.4844H212.101H228.472V101.068V157.653L217.618 157.509C211.648 157.431 204.281 157.257 201.247 157.124V157.124Z" fill="#999999"/>
<path d="M249.112 101.114V44.3765L291.639 44.6517C330.504 44.9032 334.462 45.0376 337.598 46.2131C342.498 48.0504 348.738 54.1052 351.867 60.0594L354.451 64.9774V110.853V156.728L347.936 157.19C344.353 157.444 336.666 157.653 330.854 157.653H320.287L320.281 120.108C320.275 80.7485 319.798 71.7111 317.565 68.6914C315.107 65.3662 313.092 64.929 298.547 64.5638L284.932 64.222L284.489 110.315C284.245 135.666 283.88 156.574 283.676 156.778C283.473 156.981 275.613 157.306 266.21 157.5L249.112 157.852L249.112 101.114Z" fill="#999999"/>
<path d="M195.138 20.1069C195.395 4.9643 195.719 3.31868 198.772 1.66535C199.792 1.11307 205.371 0.694105 214.415 0.490563L228.472 0.174194V17.347V34.5199H211.682H194.893L195.138 20.1069Z" fill="#999999"/>
<path d="M405.697 156.975C391.304 156.031 384.281 151.538 378.419 139.521L375.812 134.177L375.794 102.676C375.78 76.8461 375.97 70.4373 376.85 67.0775C380.29 53.9459 388.451 46.41 400.618 45.1321C403.607 44.8181 414.941 44.5439 425.804 44.5228L445.555 44.4844V25.0444V5.60447L447.513 3.73721C450.688 0.707588 452.674 0.355896 466.598 0.355896H479.719V79.0042V157.653L446.089 157.535C427.593 157.471 409.416 157.219 405.697 156.975H405.697ZM445.555 100.631V64.2496L430.868 64.5265L416.181 64.8035L413.476 67.8507C409.909 71.8706 409.794 73.0248 410.085 101.785C410.323 125.198 410.329 125.279 412.103 128.79C415.457 135.427 419.572 136.893 435.057 136.964L445.555 137.012V100.631Z" fill="#999999"/>
<path d="M495.2 156.45C494.515 156.271 493.954 155.878 493.954 155.576C493.954 154.402 498.365 133.41 503.538 109.965C513.534 64.6581 514.891 61.0701 524.923 53.4124C528.784 50.4654 533.09 48.4762 539.862 46.5122C544.221 45.248 547.588 45.0186 566.776 44.6785C581.554 44.4166 588.949 44.532 589.45 45.0321C589.965 45.5473 588.671 48.571 585.221 54.9159L580.25 64.0575L575.359 64.2364C566.022 64.578 555.838 65.8204 553.82 66.8641C549.919 68.8808 548.459 73.9635 538.061 121.709C531.231 153.069 530.607 155.566 529.402 156.33C528.454 156.932 497.458 157.04 495.2 156.45V156.45Z" fill="#999999"/>
<path d="M622.069 157.175C611.733 156.438 606.73 154.374 601.36 148.633C595.279 142.133 591.939 132.198 591.947 120.642C591.953 112.87 593.283 106.979 596.448 100.71C600.635 92.4151 605.436 88.4656 613.302 86.8447C622.997 84.8468 657.922 80.0521 658.508 80.6384C658.839 80.9695 659.3 83.2995 659.532 85.8163L659.954 90.3922L651.866 94.5904C639.729 100.89 631.187 106.031 629.096 108.296C625.948 111.705 625.382 113.514 625.349 120.286C625.312 127.825 626.564 131.053 630.853 134.475L633.586 136.656L649.536 136.883L665.486 137.11V103.757V70.4037L662.434 67.4085L659.382 64.4133H629.991H600.599L605.578 54.9873C609.291 47.9599 610.981 45.4423 612.221 45.0937C614.83 44.3605 664.858 44.4401 674.538 45.1929C679.32 45.5649 684.285 46.3137 685.57 46.8569C688.701 48.1807 695.298 54.7995 696.633 57.9573C698.164 61.5775 698.854 81.3727 698.9 122.955L698.938 157.653L662.105 157.528C641.847 157.46 623.831 157.301 622.069 157.175H622.069Z" fill="#999999"/>
<path d="M731.85 208.25L727.395 207.831L734.054 193.952C737.717 186.318 743.005 175.513 745.805 169.94C750.743 160.112 750.896 159.649 750.896 154.556C750.896 151.669 750.584 147.659 750.202 145.646C749.435 141.602 749.842 142.574 727.064 90.3922C708.428 47.7008 707.479 45.4336 708.023 44.8892C708.246 44.6665 715.341 44.4849 723.79 44.4855C742.962 44.4869 742.87 44.4536 747.07 52.8294C748.685 56.049 753.295 66.6185 757.315 76.3171C761.335 86.0158 765.886 96.8336 767.427 100.357C770.228 106.757 773.158 111.389 774.406 111.389C775.34 111.389 776.511 108.963 791.918 75.0896L805.677 44.8403L823.109 44.6499L840.541 44.4596L837.462 51.0557C835.768 54.6835 824.593 77.99 812.629 102.848C800.665 127.706 784.343 161.656 776.356 178.293L761.836 208.543L749.071 208.605C742.05 208.64 734.3 208.48 731.85 208.25V208.25Z" fill="#999999"/>
</g>
<defs>
<clipPath id="clip0">
<rect width="842" height="209" fill="white"/>
</clipPath>
</defs>
</svg>
