<svg width="236" height="86" viewBox="0 0 236 86" fill="none" xmlns="http://www.w3.org/2000/svg">
<path d="M3.65546 73.0141C4.71236 71.9641 3.01715 71.0965 3.01715 68.133C3.01715 63.2335 3.22699 63.26 3.64802 63.1269C6.09916 62.3517 7.94862 59.5079 8.08316 59.1769L8.90432 57.1566L9.29484 48.4407L9.23032 40.9136L18.7002 40.5709L28.0048 40.8732L28.6255 51.0855C28.9962 57.1849 28.842 62.6504 29.0238 62.4663C28.842 62.6504 29.3743 62.8641 30.2838 62.9074C29.6627 64.5326 31.4545 62.8345 31.7228 63.0445L32.1835 68.024L31.8842 73.0328L29.5139 73.2927L27.0645 73.5098L26.981 72.7038C26.9333 72.2425 26.6504 71.0516 26.6504 70.0075C26.6504 68.8838 26.2803 67.8495 26.0923 67.6616C25.6283 67.1975 9.85121 66.8645 9.23132 67.3294C8.88089 67.5922 7.72663 68.6087 7.74258 70.7119L7.75877 72.8477L5.6034 73.0711C3.99504 73.112 3.75697 73.1153 3.65546 73.014L3.65546 73.0141ZM22.1873 54.1907C22.3513 48.4825 22.185 45.4957 21.9712 45.2381C21.5729 44.7582 15.4995 45.0344 15.0256 45.5082C14.8049 45.7289 14.0016 47.2003 13.996 50.2436C13.9859 55.6242 14.0131 57.7748 12.9467 59.4199C11.6211 61.4649 12.6365 64.5408 17.1808 62.7605L21.9483 62.5052L22.1873 54.1907ZM199.597 72.8676C199.523 72.6768 199.416 70.7466 199.361 67.8525L199.565 62.765L200.821 62.4094C202.393 61.9646 204.097 59.7399 204.742 58.046C205.182 56.892 205.347 55.833 205.469 48.5113L205.998 40.5507L215.461 40.5616L225.132 40.5083L225.463 50.953C225.692 58.1613 225.845 61.8468 226.034 62.0744C226.19 62.2624 227.052 62.643 227.876 62.5909L228.953 62.8326L228.943 68.2432L229.096 73.2197L226.374 73.3003L223.763 73.2853L223.499 70.8631C223.427 69.4079 223.069 67.9545 222.951 67.7726C222.633 67.2809 206.155 67.268 205.747 67.7603C205.589 67.9504 205.216 69.4481 205.174 70.8952L204.887 73.0611L202.224 73.0701C199.953 73.0781 199.703 73.366 199.602 73.1019L199.597 72.8676ZM219.105 54.2333C219.139 48.5229 218.749 45.7945 218.536 45.5369C218.137 45.0571 212.114 45.0335 211.64 45.5073C211.416 45.7318 211.155 47.5045 211.152 51.0673C211.148 56.4156 210.858 58.4645 209.816 60.5072C208.896 62.3103 209.278 62.4968 214.156 62.6066L219.055 62.7168L219.105 54.2333ZM37.0104 53.6809L37.5351 40.6216L39.8422 41.0882L42.2883 41.1028L42.859 47.9742C43.4978 55.6658 43.5582 56.4917 44.0727 56.4917C44.4703 56.4917 46.7598 54.6588 50.6633 48.8942C53.5209 44.6741 55.4151 41.9695 55.5867 41.7834C55.8167 41.534 56.6671 41.4646 59.1682 40.8623L61.7665 41.0936L62.3829 53.8281L62.6771 67.4323L59.618 67.3783L57.1895 66.6167L57.0491 60.0452C56.9084 53.4588 56.5919 51.2012 56.2373 50.9069C55.6573 50.4255 54.6994 51.6459 50.6929 57.5178C48.8064 60.2827 46.0087 62.8686 45.3685 64.3676L44.0595 67.4323L40.7813 66.5763L38.0218 66.2989L37.0104 53.6809ZM67.2586 67.287C67.2586 67.1706 67.2113 67.1492 67.3401 67.0109C67.469 66.8727 71.0225 60.7421 75.3542 53.3206C79.686 45.899 85.8582 35.3814 89.0502 29.9244C92.2421 24.4673 96.4719 17.7633 98.3116 14.5972C100.151 11.4311 101.414 8.7434 101.554 8.79006C101.694 8.83672 105.937 16.3408 111.378 25.7176C116.818 35.0945 124.308 48.4324 128.225 55.1727C132.143 61.913 134.844 67.2035 134.844 67.3623C134.844 67.5674 134.176 67.3498 129.915 67.2257C126.617 67.1297 122.274 66.8783 120.23 67.0399L115.928 67.38L112.584 61.6442C110.729 58.4629 109.049 55.9497 108.795 55.6893C108.361 55.2459 107.666 55.4055 94.1817 55.4055C86.2627 55.4055 79.9964 55.3709 79.7693 55.458C79.5422 55.5451 77.7308 58.2736 75.5334 61.5928L72.8102 67.7058L69.401 67.2765C68.1224 67.1154 67.5527 67.4318 67.4482 67.3804L67.2586 67.287ZM104.687 49.617C104.917 49.5287 104.695 49.8561 104.687 49.617C104.665 48.9046 94.7183 30.4595 94.2696 30.3729C94.0322 30.3271 93.9742 30.4528 93.6728 30.9549C90.9254 35.5317 83.9468 47.4714 83.3486 48.5642C82.6945 49.7593 82.7945 49.8899 83.1354 50.1116C83.5674 50.3927 103.968 49.8928 104.687 49.6171V49.617ZM141.738 66.3958C141.83 65.7046 141.78 63.965 141.991 62.5098C142.202 61.0545 142.618 58.2433 142.923 56.1332C143.228 54.0232 143.856 51.1169 144.081 49.589C144.307 48.061 144.792 45.321 145.038 43.502L145.5 40.866L148.387 40.4556L151.557 40.6723L154.171 47.782C155.717 51.9834 157.06 55.6618 157.232 55.8321C157.404 56.0025 158.071 56.417 158.278 56.3373C158.59 56.2177 163.379 44.3445 164.023 41.6867C164.313 40.4908 163.728 40.4532 167.366 40.6443L169.884 40.7766L170.744 42.9403C172.466 47.2693 172.336 54.5094 172.771 57.2506C172.991 58.633 173.371 61.3426 173.659 63.1616C174.452 68.1725 175.847 66.2879 171.825 66.2879C169.942 66.2879 169.216 66.8334 169.139 66.7082C169.061 66.583 168.099 65.0568 167.729 62.5262C167 57.5459 166.27 54.9071 166.072 53.9433C165.98 53.4952 165.711 53.0068 165.295 53.0678C164.8 53.1404 163.88 53.7524 161.897 59.8636L159.745 66.4378L158.122 66.9336C157.007 67.2743 156.733 66.6901 156.56 66.5172C156.4 66.358 155.132 63.9563 153.895 60.2888C151.981 54.6146 151.041 53.2543 150.6 53.2543C150.22 53.2543 149.769 53.8867 149.625 54.5798C149.392 55.6972 148.162 61.8018 147.734 65.0827L147.523 66.7217L144.405 67.0819L141.864 67.1089L141.738 66.3958ZM180.561 66.2631C180.491 66.0812 179.894 60.949 179.932 53.5274L180.223 40.5218L187.959 40.4962L195.723 40.3421L195.569 43.0076L195.625 45.408L191.08 45.2887C187.232 45.1876 186.454 45.6464 186.171 46.0261C185.782 46.5477 186.057 50.6305 186.428 51.219C186.628 51.5352 188.004 51.8216 191.068 51.8899L194.276 52.0703L194.276 53.5876L193.791 54.8354L190.795 54.912C188.822 54.9625 187.136 55.3466 186.854 55.4973C186.398 55.7412 186.378 56.3872 186.378 58.8447C186.378 61.3021 186.589 61.9766 187.045 62.2206C187.339 62.3777 189.651 62.5242 192.167 62.5242L195.587 62.858L195.071 64.945L195.857 67.0411L188.154 67.1567C181.724 67.1567 180.688 67.0045 180.59 66.7496L180.561 66.2631Z" fill="#003298"/>
<path d="M84.3333 50.2547C82.5845 50.1863 81.5846 50.3785 81.5846 50.0797C81.5846 49.7261 83.4199 47.0193 88.722 38.0655C93.4404 30.0973 93.8455 29.9635 94.1973 29.9635C94.2736 29.9635 93.7687 30.2354 93.9315 29.3291C97.3439 10.3296 104.309 46.9633 105.828 48.574L106.496 49.2824L105.994 50.0426L105.468 50.3021L95.7599 50.312C90.4206 50.3175 85.2786 50.2917 84.3333 50.2547V50.2547Z" fill="#999999"/>
<path d="M69.0609 76.0254L67.7751 76.1727L70.2874 72.7953C73.542 68.4201 73.8681 64.227 76.8873 59.3896L79.4664 55.2574H93.9949H108.523L109.199 55.6398C110.846 56.5724 115.744 66.6072 117.928 71.8574L119.871 76.5278L118.789 76.3209C116.961 75.9713 70.5504 75.8549 69.0609 76.0254V76.0254Z" fill="#999999"/>
<path d="M141.167 67.194C141.167 66.8307 144.949 40.4819 145.017 40.3721C145.049 40.3192 146.613 40.276 148.492 40.276H151.907L153.539 45.1172C156.789 54.7602 157.201 55.8119 157.812 56.024C158.054 56.108 158.17 56.0928 158.303 55.9598C158.642 55.6203 159.379 53.6755 161.164 48.4114C162.881 43.3448 163.876 40.5595 164.021 40.4146C164.233 40.2026 170.475 40.0984 170.68 40.3034C170.744 40.3672 171.987 48.1987 173.068 55.3437C174.755 66.4994 174.802 66.914 174.435 67.2177C174.192 67.4179 168.85 67.4238 168.477 67.2243C168.21 67.0813 168.283 67.4523 167.287 61.1875C166.907 58.7927 166.516 56.395 166.42 55.8594C166.034 53.7024 165.757 53.1242 165.181 53.2688C164.613 53.4112 164.203 54.3907 162.082 60.6604C160.534 65.2359 159.985 66.6802 159.658 67.0343C159.36 67.3566 158.46 67.4932 157.278 67.3953C156.605 67.3395 156.421 67.2792 156.221 67.048C155.872 66.6442 155.454 65.5857 153.539 60.2523C151.68 55.0733 151.239 54.0098 150.816 53.6769C149.983 53.0216 149.64 54.3359 148.43 62.8203L147.773 67.4323H144.47C141.201 67.4323 141.167 67.4299 141.167 67.194V67.194Z" fill="#999999"/>
<path d="M187.42 67.434C180.649 67.3794 180.096 67.3602 179.961 67.176C179.702 66.8224 179.649 63.0657 179.734 51.362L179.817 40.0469H188.049H196.281V42.8426V45.6384L194.878 45.7025C194.106 45.7378 192.159 45.8112 190.552 45.8657C187.153 45.9809 187.015 46.0156 186.809 46.8082C186.637 47.4681 186.617 50.3283 186.781 50.7991C186.881 51.0833 187.004 51.1845 187.372 51.2835C187.908 51.4279 191.194 51.6114 193.331 51.6164L194.792 51.6198V53.4531C194.792 54.4614 194.779 55.2874 194.763 55.2885C194.747 55.2896 193.12 55.3415 191.147 55.4037C187.379 55.5226 187.046 55.5742 186.774 56.0822C186.704 56.2134 186.656 57.2812 186.656 58.7201C186.656 61.4381 186.736 61.841 187.303 61.9828C187.483 62.0279 189.602 62.0923 192.013 62.126L196.396 62.1873V64.8671V67.5469L195.565 67.5199C195.108 67.5051 191.443 67.4664 187.42 67.434V67.434Z" fill="#999999"/>
<path d="M37.0104 53.6809V39.9296L37.4401 39.9852C37.6764 40.0157 39.0042 40.0993 40.3906 40.1709C41.7771 40.2424 42.9564 40.3429 43.0114 40.3941C43.0663 40.4454 43.2046 43.3401 43.3186 46.827C43.6176 55.9697 43.6279 56.0885 44.1186 56.0885C44.698 56.0885 45.7845 54.6318 52.9973 44.185C54.3194 42.2702 55.5276 40.6202 55.6822 40.5184C55.9214 40.3609 56.4642 40.3279 59.3202 40.2969L62.6771 40.2605V53.8464V67.4323H59.6406H56.6042V66.9004C56.6042 64.9889 56.35 55.8461 56.258 54.4502C56.0909 51.9127 55.8909 51.3802 55.2364 51.7305C54.752 51.9897 52.951 54.4909 46.7511 63.5147L44.0595 67.4323H40.535H37.0104V53.6809Z" fill="#999999"/>
<path d="M27.0645 73.5098C26.8565 73.4589 26.6658 73.3967 26.6407 73.3716C26.6156 73.3465 26.4928 72.3201 26.3678 71.0908C26.2428 69.8615 26.0799 68.6151 26.0059 68.321C25.8752 67.8021 25.8556 67.7837 25.3393 67.6953C25.0467 67.6452 21.4042 67.6042 17.2448 67.6042C8.89423 67.6042 8.93581 67.6009 8.71617 68.2697C8.58632 68.6651 8.42366 70.1978 8.30345 72.1588L8.22794 73.3906H5.50613H2.78431L2.70986 72.3418C2.61429 70.9953 2.6132 65.145 2.70828 63.8055L2.78114 62.7789L3.99734 62.1645C5.60999 61.3499 6.52046 60.4458 7.54459 58.642C7.94439 57.9378 8.31266 57.1655 8.36298 56.9256C8.4133 56.6858 8.48617 54.2208 8.52491 51.4479C8.56366 48.675 8.62879 45.0269 8.66965 43.3411L8.74395 40.276H18.734H28.724L28.7997 48.7266C28.8413 53.3743 28.9088 58.3671 28.9496 59.8217L29.0238 62.4663L30.7222 62.6134L32.4205 62.7606L32.4524 68.1042C32.47 71.0433 32.4673 73.4737 32.4464 73.5052C32.3814 73.6034 27.4637 73.6076 27.0645 73.5098V73.5098ZM21.9132 57.2057C21.8688 50.4904 21.717 45.6763 21.5441 45.5036C21.3934 45.3531 16.1327 45.3212 15.4415 45.4666C15.2039 45.5166 14.9604 45.6554 14.8946 45.7784C14.7311 46.0839 14.5871 47.8272 14.4405 51.276C14.2161 56.5557 14.015 57.989 13.1665 60.3576C12.6944 61.6756 12.6273 62.0899 12.862 62.2387C13.099 62.389 14.8782 62.4671 18.508 62.4867L21.9483 62.5052L21.9132 57.2057Z" fill="#999999"/>
<path d="M199.413 73.364C199.262 73.1277 199.228 70.7278 199.318 66.5488L199.401 62.6288L199.818 62.494C201.034 62.1002 202.51 61.1175 203.278 60.1904C204.401 58.834 204.811 57.9369 204.989 56.4512C205.105 55.4847 205.285 50.0574 205.404 43.9714L205.481 40.0469H215.529H225.577L225.66 47.7526C225.748 55.9986 225.889 61.6406 226.014 61.9529C226.117 62.2094 226.619 62.3727 227.545 62.451C227.964 62.4864 228.526 62.5421 228.794 62.5746L229.281 62.6338V68.0695V73.5052H226.376H223.47L223.396 72.3307C223.223 69.5999 223.055 68.0972 222.906 67.9486C222.626 67.6685 221.024 67.6042 214.328 67.6042C206.885 67.6042 205.993 67.6523 205.719 68.0692C205.545 68.3358 205.452 69.1435 205.247 72.1875L205.161 73.4479L202.334 73.4785C200.149 73.5022 199.484 73.4762 199.413 73.364V73.364ZM217.806 62.3148L218.762 62.2403L218.716 54.2087C218.679 47.8135 218.638 46.1138 218.516 45.8666C218.306 45.4408 217.827 45.3747 214.958 45.3761C212.505 45.3772 211.816 45.4819 211.706 45.8691C211.575 46.3369 211.504 47.7135 211.405 51.7344C211.27 57.2004 211.145 58.0797 210.191 60.293C209.524 61.841 209.535 62.1734 210.26 62.3067C210.716 62.3905 216.751 62.3969 217.806 62.3148V62.3148Z" fill="#999999"/>
<path d="M75.1618 76.733C70.9134 76.6859 67.3921 76.6019 67.3366 76.5464C67.2328 76.4424 70.3145 70.6658 72.4695 66.9247C73.635 64.9014 75.9853 61.0076 78.3595 57.1665L79.4832 55.3486L94.0673 55.384L108.651 55.4195L109.802 57.1447C112.528 61.2317 120.925 76.2567 120.642 76.5402C120.356 76.8257 93.7237 76.9386 75.1618 76.733V76.733Z" fill="#E56A00"/>
<path d="M88.6116 50.1688C85.3436 50.1155 82.6091 50.011 82.5349 49.9365C82.3498 49.7505 83.3908 47.8133 86.642 42.2938C92.4722 32.3959 93.9032 30.0594 94.1352 30.0594C94.4886 30.0594 103.478 45.0429 105.399 48.8338C106.101 50.2188 106.236 50.1529 102.696 50.1535C100.981 50.1538 98.4466 50.1792 97.0651 50.2098C95.6837 50.2404 91.8796 50.222 88.6116 50.1688V50.1688Z" fill="#E56A00"/>
<path d="M68.0185 67.5338C67.4169 67.5026 66.9247 67.437 66.9247 67.388C66.9247 67.3389 67.0614 67.1053 67.2285 66.8687C67.6774 66.2332 73.0368 57.1024 86.6942 33.7054C98.7984 12.9693 101.355 8.66761 101.571 8.67139C101.76 8.67468 105.585 15.1739 119.217 38.6478C130.023 57.2556 134.865 65.6559 135.463 66.8298L135.828 67.5452L128.978 67.4375C125.211 67.3783 120.762 67.3298 119.09 67.3298L115.928 67.38L114.76 65.3805C111.928 60.5313 109.569 56.3284 108.848 55.541L108.651 55.4195L94.0302 55.2708L79.4832 55.3486L77.1557 59.1744C75.4582 61.9646 74.0558 64.3954 73.303 65.5904L72.0809 67.6209L70.4897 67.6191C69.732 67.6183 68.6201 67.5649 68.0185 67.5337V67.5338ZM105.948 49.9441C106.017 49.5841 105.489 48.557 103.014 44.2384C98.885 37.0342 94.7447 30.2469 94.3185 29.9834C94.2137 29.9186 93.9802 29.9993 93.7998 30.1626C93.4844 30.448 89.5031 37.0405 85.446 43.9953C82.1111 49.7122 81.963 50.0355 82.6026 50.2039C82.7585 50.245 88.0625 50.2686 94.3892 50.2563C105.302 50.2352 105.895 50.2192 105.948 49.9441V49.9441Z" fill="#999999"/>
</svg>
