<svg width="297" height="297" viewBox="0 0 297 297" fill="none" xmlns="http://www.w3.org/2000/svg">
<path d="M148.5 297C230.514 297 297 230.514 297 148.5C297 66.4857 230.514 0 148.5 0C66.4857 0 0 66.4857 0 148.5C0 230.514 66.4857 297 148.5 297Z" fill="#FD5631"/>
<path d="M214.5 66L82.5 264L110.616 292.116C122.711 295.298 135.406 297 148.5 297C230.489 297 296.958 230.555 296.999 148.576L214.5 66Z" fill="#E44D2C"/>
<path d="M214.5 66H82.5V264H214.5V66Z" fill="white"/>
<path d="M214.5 66H148.834V264H214.5V66Z" fill="#EDECEB"/>
<path d="M126 105.5H171C176.799 105.5 181.5 100.799 181.5 95V50C181.5 44.201 176.799 39.5 171 39.5H126C120.201 39.5 115.5 44.201 115.5 50V95C115.5 100.799 120.201 105.5 126 105.5Z" fill="#DFDAD7"/>
<path d="M171 39.5H148.833V105.5H171C176.799 105.5 181.5 100.799 181.5 95V50C181.5 44.201 176.799 39.5 171 39.5Z" fill="#C4C0BF"/>
<path d="M165 214.5H132V264H165V214.5Z" fill="#DFDAD7"/>
<path d="M165 214.5H148.834V264H165V214.5Z" fill="#C4C0BF"/>
<path d="M132 115.5H99V148.5H132V115.5Z" fill="#71E2EF"/>
<path d="M198 115.5H165V148.5H198V115.5Z" fill="#38C6D9"/>
<path d="M132 165H99V198H132V165Z" fill="#71E2EF"/>
<path d="M198 165H165V198H198V165Z" fill="#C4C0BF"/>
<path d="M168.5 65.833H155.167V52.5H141.833V65.833H128.5V79.167H141.833V92.5H155.167V79.167H168.5V65.833Z" fill="#F86E51"/>
<path d="M155.167 65.833V52.5H148.834V92.5H155.167V79.167H168.5V65.833H155.167Z" fill="#C63C22"/>
</svg>
