<svg width="512" height="512" viewBox="0 0 512 512" fill="none" xmlns="http://www.w3.org/2000/svg">
<path d="M256 512C397.385 512 512 397.385 512 256C512 114.615 397.385 0 256 0C114.615 0 0 114.615 0 256C0 397.385 114.615 512 256 512Z" fill="#FD5631"/>
<path d="M120.18 363.196L268.064 511.709C403.846 505.408 512 393.34 512 256C512 250.823 511.828 245.686 511.524 240.583L391.614 120.673L120.18 363.196Z" fill="#E44D2C"/>
<path d="M135.613 369.778H376.386C388.446 369.778 398.223 360.002 398.223 347.941V135.613C398.223 123.554 388.447 113.778 376.386 113.778H135.613C123.554 113.778 113.778 123.554 113.778 135.613V347.941C113.778 360.001 123.554 369.778 135.613 369.778Z" fill="#5C88AD"/>
<path d="M376.385 113.778H255.424V369.778H376.385C388.445 369.778 398.222 360.002 398.222 347.941V135.614C398.222 123.554 388.446 113.778 376.385 113.778Z" fill="#366695"/>
<path d="M376.385 341.333H135.614C123.554 341.333 113.777 331.557 113.777 319.496V347.94C113.777 360 123.553 369.777 135.614 369.777H376.387C388.447 369.777 398.224 360.001 398.224 347.94V319.496C398.222 331.557 388.446 341.333 376.385 341.333Z" fill="#366695"/>
<path d="M376.385 341.333H255.424V369.777H376.385C388.445 369.777 398.222 360.001 398.222 347.94V319.496C398.222 331.557 388.446 341.333 376.385 341.333Z" fill="#273B7A"/>
<path d="M146.963 200.297H365.037C372.891 200.297 379.259 193.929 379.259 186.075V183.705C379.259 175.851 372.891 169.483 365.037 169.483H146.963C139.109 169.483 132.741 175.851 132.741 183.705V186.075C132.741 193.929 139.109 200.297 146.963 200.297Z" fill="#DFDAD7"/>
<path d="M365.037 169.482H255.426V200.297H365.037C372.891 200.297 379.259 193.929 379.259 186.075V183.705C379.259 175.849 372.891 169.482 365.037 169.482Z" fill="#C4C0BF"/>
<path d="M334.079 213.333H303.192C298.868 213.333 295.362 216.838 295.362 221.163V228.777C295.362 233.101 298.867 236.607 303.192 236.607H310.877V248.242C310.877 252.526 314.351 256 318.635 256C322.919 256 326.393 252.526 326.393 248.242V236.606H334.078C338.402 236.606 341.908 233.101 341.908 228.776V221.162C341.907 216.838 338.403 213.333 334.079 213.333Z" fill="#C7D0D3"/>
<path d="M341.333 224.108H295.937C288.004 224.108 281.57 217.676 281.57 209.741V164.347C281.57 156.414 288.002 149.98 295.937 149.98H341.333C349.266 149.98 355.698 156.412 355.698 164.347V209.743C355.699 217.676 349.267 224.108 341.333 224.108Z" fill="#193A51"/>
<path d="M297.805 325.818H339.465C343.67 325.818 347.08 322.41 347.08 318.204V276.544C347.08 272.339 343.672 268.929 339.466 268.929H297.806C293.601 268.929 290.191 272.337 290.191 276.543V318.203C290.19 322.41 293.6 325.818 297.805 325.818Z" fill="#71E2EF"/>
<path d="M156.444 362.452C160.253 362.452 163.34 359.365 163.34 355.556C163.34 351.747 160.253 348.66 156.444 348.66C152.635 348.66 149.548 351.747 149.548 355.556C149.548 359.365 152.635 362.452 156.444 362.452Z" fill="#E03A00"/>
<path d="M177.562 362.452C181.371 362.452 184.458 359.365 184.458 355.556C184.458 351.747 181.371 348.66 177.562 348.66C173.753 348.66 170.666 351.747 170.666 355.556C170.666 359.365 173.753 362.452 177.562 362.452Z" fill="#FFC61B"/>
</svg>
