<svg width="452" height="452" viewBox="0 0 452 452" fill="none" xmlns="http://www.w3.org/2000/svg">
<path d="M225.638 451.286C350.254 451.286 451.276 350.264 451.276 225.648C451.276 101.032 350.254 0.0100098 225.638 0.0100098C101.022 0.0100098 0 101.032 0 225.648C0 350.264 101.022 451.286 225.638 451.286Z" fill="#FD5631"/>
<path opacity="0.1" d="M451.296 225.648C451.296 224.112 451.211 222.597 451.18 221.068L349.985 118.301L328.36 96.347C328.36 108.476 318.534 118.302 306.405 118.302H128.277L92.407 167.712L225.827 351.529L225.639 354.914L306.894 436.169C391.356 403.543 451.296 321.62 451.296 225.648Z" fill="black"/>
<path d="M89.727 167.716L225.638 354.931L153.904 167.716H89.727Z" fill="#71E2EF"/>
<path d="M172.841 118.293H125.606L89.727 167.716H153.904L172.841 118.293Z" fill="#38C6D9"/>
<path d="M225.638 354.931L361.55 167.716H297.373L225.638 354.931Z" fill="#38C6D9"/>
<path d="M278.436 118.293L297.373 167.716H361.55L325.671 118.293H278.436Z" fill="#71E2EF"/>
<path d="M225.638 167.716V118.293H172.841L153.904 167.716H225.638Z" fill="#71E2EF"/>
<path d="M153.904 167.716L225.638 354.931V167.716H153.904Z" fill="#38C6D9"/>
<path d="M297.373 167.716L278.436 118.293H225.638V167.716H297.373Z" fill="#38C6D9"/>
<path d="M225.638 167.716V354.931L297.373 167.716H225.638Z" fill="#71E2EF"/>
<path d="M153.904 145.787C153.904 157.898 144.086 167.716 131.976 167.716C144.087 167.716 153.904 177.533 153.904 189.644C153.904 177.533 163.722 167.716 175.833 167.716C163.722 167.716 153.904 157.898 153.904 145.787Z" fill="white"/>
<path d="M325.671 96.365C325.671 108.475 315.853 118.293 303.743 118.293C315.854 118.293 325.671 128.111 325.671 140.222C325.671 128.111 335.488 118.293 347.6 118.293C335.488 118.293 325.671 108.475 325.671 96.365Z" fill="white"/>
</svg>
