<svg width="297" height="297" viewBox="0 0 297 297" fill="none" xmlns="http://www.w3.org/2000/svg">
<g clip-path="url(#clip0)">
<path d="M148.5 297C230.514 297 297 230.514 297 148.5C297 66.4857 230.514 0 148.5 0C66.4857 0 0 66.4857 0 148.5C0 230.514 66.4857 297 148.5 297Z" fill="#FD5631"/>
<path d="M295.261 125.716L258.923 89.378L65.861 195.214L166.548 295.906C240.049 287 297 224.405 297 148.5C297 140.752 296.405 133.144 295.261 125.716Z" fill="#E44D2C"/>
<path d="M221.411 197.645C173.655 184.793 123.345 184.793 75.589 197.645C70.199 199.095 64.636 195.975 62.995 190.641C53.711 160.462 44.427 130.284 35.143 100.105C33.415 94.487 36.682 88.573 42.345 86.997C111.794 67.675 185.208 67.675 254.657 86.997C260.32 88.572 263.587 94.487 261.859 100.105C252.575 130.284 243.291 160.462 234.007 190.641C232.364 195.975 226.8 199.095 221.411 197.645Z" fill="white"/>
<path d="M254.656 86.997C219.824 77.307 183.996 72.479 148.17 72.509V188.009C172.796 187.98 197.426 191.191 221.41 197.645C226.8 199.095 232.363 195.975 234.004 190.641C243.288 160.462 252.572 130.284 261.856 100.105C263.586 94.487 260.319 88.572 254.656 86.997Z" fill="#EDECEB"/>
<path d="M57.175 171.722C59.115 178.028 61.055 184.334 62.995 190.641C64.636 195.975 70.2 199.096 75.589 197.645C123.345 184.793 173.655 184.793 221.411 197.645C226.801 199.095 232.364 195.975 234.005 190.641C235.945 184.335 237.885 178.028 239.825 171.722C179.928 156.234 117.072 156.234 57.175 171.722Z" fill="#71E2EF"/>
<path d="M148.171 160.108V188.008C172.797 187.979 197.426 191.19 221.411 197.644C226.801 199.094 232.364 195.974 234.005 190.64C235.945 184.334 237.885 178.027 239.825 171.721C209.77 163.95 178.969 160.081 148.171 160.108Z" fill="#38C6D9"/>
<path d="M170.667 118.944H155.889V104.167H141.111V118.944H126.333V133.722H141.111V148.5H155.889V133.722H170.667V118.944Z" fill="#F86E51"/>
<path d="M155.889 118.944V104.167H148.171V148.5H155.889V133.722H170.667V118.944H155.889Z" fill="#C63C22"/>
</g>
<defs>
<clipPath id="clip0">
<rect width="297" height="297" fill="white"/>
</clipPath>
</defs>
</svg>
