<svg width="512" height="512" viewBox="0 0 512 512" fill="none" xmlns="http://www.w3.org/2000/svg">
<g clip-path="url(#clip0)">
<path d="M255.997 511.994C397.38 511.994 511.994 397.38 511.994 255.997C511.994 114.614 397.38 0 255.997 0C114.614 0 0 114.614 0 255.997C0 397.38 114.614 511.994 255.997 511.994Z" fill="#FD5631"/>
<path d="M510.731 281.367C498.893 402.497 402.496 498.893 281.367 510.731L177.361 406.725L336.33 106.966L510.942 281.578L510.731 281.367Z" fill="#E44D2C"/>
<path d="M179.687 104.853H332.526C334.978 104.853 336.966 106.84 336.966 109.293V402.922C336.966 405.374 334.979 407.362 332.526 407.362H179.687C177.235 407.362 175.247 405.375 175.247 402.922V109.292C175.247 106.84 177.234 104.853 179.687 104.853Z" fill="#366695"/>
<path d="M186.24 145.652H325.76C327.628 145.652 329.142 147.166 329.142 149.034V363.178C329.142 365.046 327.628 366.56 325.76 366.56H186.24C184.372 366.56 182.858 365.046 182.858 363.178V149.034C182.857 147.166 184.371 145.652 186.24 145.652Z" fill="white"/>
<path d="M219.217 123.455H292.782C294.416 123.455 295.742 124.78 295.742 126.415V126.626C295.742 128.261 294.417 129.586 292.782 129.586H219.217C217.583 129.586 216.257 128.261 216.257 126.626V126.415C216.258 124.78 217.583 123.455 219.217 123.455Z" fill="#EBECEC"/>
<path d="M255.997 401.234C263.119 401.234 268.892 395.461 268.892 388.339C268.892 381.217 263.119 375.444 255.997 375.444C248.875 375.444 243.102 381.217 243.102 388.339C243.102 395.461 248.875 401.234 255.997 401.234Z" fill="#D9DADA"/>
<path d="M323.439 151.783H188.776V186.034H323.439V151.783Z" fill="#00CC96"/>
<path d="M323.649 191.738H280.312V225.989H323.649V191.738Z" fill="#00CC96"/>
<path d="M188.776 191.947H269.529V198.289H188.776V191.947ZM188.776 241.202H269.529V247.544H188.776V241.202ZM188.776 228.941H269.529V235.283H188.776V228.941ZM188.776 216.68H269.529V223.022H188.776V216.68ZM188.776 204.42H269.529V210.762H188.776V204.42Z" fill="#00CC96"/>
<path d="M266.147 269.952C269.318 270.798 272.489 272.066 275.237 273.757L285.172 265.724L297.433 277.985L289.4 287.92C291.091 290.668 292.36 293.839 293.205 297.01L305.889 298.279V315.825L293.205 317.094C292.359 320.265 291.091 323.436 289.4 326.184L297.433 336.119L285.172 348.38L275.237 340.347C272.489 342.038 269.318 343.307 266.147 344.152L264.878 356.836H247.332L246.063 344.152C242.892 343.306 239.721 342.038 236.973 340.347L227.038 348.38L214.777 336.119L222.81 326.184C221.119 323.436 219.85 320.265 219.005 317.094L206.321 315.825V298.279L219.005 297.01C219.851 293.839 221.119 290.668 222.81 287.92L214.777 277.985L227.038 265.724L236.973 273.757C239.721 272.066 242.892 270.797 246.063 269.952L247.332 257.268H264.878L266.147 269.952ZM256.212 286.863C267.416 286.863 276.505 295.953 276.505 307.156C276.505 318.36 267.415 327.449 256.212 327.449C245.008 327.449 235.919 318.359 235.919 307.156C235.917 295.954 245.008 286.863 256.212 286.863Z" fill="#FBBE00"/>
<path d="M266.147 269.952C269.318 270.798 272.489 272.066 275.237 273.757L285.172 265.724L297.433 277.985L289.4 287.92C291.091 290.668 292.36 293.839 293.205 297.01L305.889 298.279V315.825L293.205 317.094C292.359 320.265 291.091 323.436 289.4 326.184L297.433 336.119L285.172 348.38L275.237 340.347C272.489 342.038 269.318 343.307 266.147 344.152L264.878 356.836H256.211V327.241C267.415 327.241 276.504 318.151 276.504 306.948C276.504 295.745 267.414 286.655 256.211 286.655V257.06H264.878L266.147 269.744V269.952Z" fill="#E7A20B"/>
</g>
<defs>
<clipPath id="clip0">
<rect width="511.995" height="511.995" fill="white"/>
</clipPath>
</defs>
</svg>
