<?xml version="1.0" encoding="UTF-8" standalone="no"?>
<svg
   xmlns:dc="http://purl.org/dc/elements/1.1/"
   xmlns:cc="http://creativecommons.org/ns#"
   xmlns:rdf="http://www.w3.org/1999/02/22-rdf-syntax-ns#"
   xmlns:svg="http://www.w3.org/2000/svg"
   xmlns="http://www.w3.org/2000/svg"
   xmlns:sodipodi="http://sodipodi.sourceforge.net/DTD/sodipodi-0.dtd"
   xmlns:inkscape="http://www.inkscape.org/namespaces/inkscape"
   width="258.23334mm"
   height="258.23334mm"
   viewBox="0 0 258.23334 258.23334"
   version="1.1"
   id="svg8"
   inkscape:version="1.0.2 (e86c870879, 2021-01-15, custom)"
   sodipodi:docname="skmedlab.svg">
  <defs
     id="defs2" />
  <sodipodi:namedview
     id="base"
     pagecolor="#ffffff"
     bordercolor="#666666"
     borderopacity="1.0"
     inkscape:pageopacity="0.0"
     inkscape:pageshadow="2"
     inkscape:zoom="0.70710678"
     inkscape:cx="477.99772"
     inkscape:cy="390.34972"
     inkscape:document-units="mm"
     inkscape:current-layer="g38"
     inkscape:document-rotation="0"
     showgrid="false"
     fit-margin-top="0"
     fit-margin-left="0"
     fit-margin-right="0"
     fit-margin-bottom="0"
     inkscape:window-width="1496"
     inkscape:window-height="863"
     inkscape:window-x="2069"
     inkscape:window-y="133"
     inkscape:window-maximized="0" />
  <metadata
     id="metadata5">
    <rdf:RDF>
      <cc:Work
         rdf:about="">
        <dc:format>image/svg+xml</dc:format>
        <dc:type
           rdf:resource="http://purl.org/dc/dcmitype/StillImage" />
        <dc:title></dc:title>
      </cc:Work>
    </rdf:RDF>
  </metadata>
  <g
     inkscape:label="Layer 1"
     inkscape:groupmode="layer"
     id="layer1"
     transform="translate(13.08227,-13.417912)">
    <g
       id="g38"
       transform="translate(2.0633788,1.4158507)">
      <path
         style="fill:#fefefe;stroke-width:0.264583"
         d="M -12.719055,143.87108 V 14.754412 l 62.772397,0.005 62.772398,0.005 -1.32292,0.817563 c -0.7276,0.449659 -1.67259,1.033139 -2.09998,1.296622 l -0.77706,0.479059 0.90936,0.140176 c 0.50014,0.0771 3.11201,0.201987 5.80414,0.277535 2.69214,0.07555 5.96636,0.262288 7.27604,0.414978 2.62635,0.306193 7.35438,1.066045 7.50264,1.205766 0.0519,0.04888 -0.98834,1.669256 -2.31157,3.600842 -1.32323,1.931586 -2.31817,3.586029 -2.21097,3.67654 0.2307,0.194791 21.27176,5.868601 21.33882,5.7541 0.54661,-0.933427 5.31553,-6.296151 5.59899,-6.296151 1.03385,0 12.32813,5.731174 16.6085,8.427825 l 2.50288,1.576826 2.07598,-0.920805 c 1.14179,-0.506444 2.40341,-1.042731 2.80359,-1.191751 0.40018,-0.149019 0.7276,-0.352585 0.7276,-0.452369 0,-0.499059 -13.06381,-8.129592 -18.83409,-11.000933 -8.48942,-4.22441 -18.96096,-6.657234 -32.36278,-7.518757 -2.00902,-0.129148 22.11795,-0.236917 58.00989,-0.259115 l 61.44949,-0.03801 V 143.87108 272.98775 H 116.39762 -12.719055 Z m 111.894102,121.9285 c -5.134457,-3.5824 -9.177841,-9.45863 -13.44171,-19.53475 -5.643631,-13.33669 -10.458339,-35.45031 -12.846286,-59.00208 -2.121196,-20.92091 -2.533298,-47.22711 -1.18542,-75.67084 0.284136,-5.99602 0.889405,-13.153063 1.946627,-23.018042 0.350856,-3.27383 0.582919,-6.007418 0.515699,-6.074638 -0.06722,-0.06722 -0.623163,-0.09179 -1.235427,-0.0546 -2.235345,0.135769 -18.548829,1.647841 -18.627548,1.72656 -0.0446,0.0446 -0.254892,1.321181 -0.467312,2.836847 -2.231258,15.920443 -3.598553,52.606973 -2.78488,74.722423 0.403669,10.97162 1.92954,27.59402 3.58244,39.02605 4.061653,28.09181 11.259444,48.72364 20.082066,57.56346 4.305107,4.3135 8.579937,6.02977 19.723902,7.91884 7.196242,1.21985 7.125162,1.22645 4.737849,-0.43922 z m 42.906673,-0.11629 c 1.37171,-0.23391 3.88231,-0.8234 5.57911,-1.30998 3.94066,-1.13005 11.90055,-4.07673 11.7352,-4.34428 -0.0694,-0.11226 -0.75342,-0.25617 -1.52009,-0.31979 -2.83447,-0.23523 -5.45428,-2.04836 -8.81769,-6.10258 l -1.04293,-1.25713 -10.41903,3.03311 c -5.73046,1.6682 -10.48014,3.09421 -10.55483,3.1689 -0.42028,0.42028 5.04716,5.71493 6.88033,6.66289 1.95005,1.00842 4.22821,1.13932 8.15993,0.46886 z m -7.36983,-16.92671 c 5.86141,-1.53996 10.70577,-2.8486 10.76527,-2.9081 0.0871,-0.0871 -3.54491,-9.70194 -4.89305,-12.95301 l -0.33243,-0.80166 10.36411,-3.92315 c 5.70027,-2.15772 10.46969,-4.02187 10.59873,-4.14253 0.1805,-0.16879 -3.10892,-14.35904 -3.42012,-14.75409 -0.0353,-0.0448 -4.83884,1.31528 -10.67459,3.02236 -5.83575,1.70708 -10.66094,3.0533 -10.72264,2.99159 -0.0617,-0.0617 -0.79755,-3.98161 -1.6352,-8.7109 -0.83765,-4.7293 -1.61715,-8.70761 -1.73223,-8.8407 -0.17675,-0.20443 -19.69798,1.67704 -21.94219,2.11481 l -0.67985,0.13262 1.65521,9.97226 c 0.91037,5.48474 1.61943,10.00805 1.5757,10.05179 -0.0437,0.0437 -5.06656,0.44688 -11.16183,0.89587 -6.095257,0.44899 -11.125682,0.85582 -11.178715,0.90407 -0.153623,0.13975 3.978579,17.15365 4.234164,17.43371 0.145719,0.15968 4.38948,-0.10544 11.525721,-0.72003 6.2123,-0.53502 11.34108,-0.92677 11.3973,-0.87056 0.0562,0.0562 1.10603,2.88054 2.33293,6.27629 2.7102,7.50114 2.7613,7.62928 3.042,7.62928 0.12354,0 5.02031,-1.25997 10.88171,-2.79992 z m -92.209661,-8.11414 c -4.585586,-7.85938 -8.331221,-16.35779 -10.466097,-23.74636 -2.951048,-10.21326 -4.390813,-18.08323 -5.614852,-30.69167 -0.317865,-3.27422 -0.711743,-6.08418 -0.875282,-6.24435 -0.257278,-0.25199 -11.829216,-4.86815 -12.203631,-4.86815 -0.07618,0 -0.07777,0.44649 -0.0035,0.99219 0.07424,0.5457 0.49403,3.70195 0.932868,7.01388 1.048081,7.90989 1.822622,12.06541 3.562572,19.11373 1.787856,7.24237 3.37669,11.94666 5.567286,16.48387 2.895211,5.99662 5.430097,9.56824 10.434493,14.70205 2.866138,2.94026 8.833538,8.36928 9.199234,8.36928 0.06766,0 -0.172214,-0.50601 -0.533061,-1.12447 z m 150.443901,-1.74972 c 1.92551,-0.84878 4.14217,-2.65503 8.46989,-6.90171 3.64142,-3.57324 6.79201,-7.22115 6.79201,-7.86413 0,-0.15639 -1.02104,-0.33946 -2.38688,-0.42794 -1.73049,-0.11212 -2.78008,-0.33465 -3.81665,-0.80921 -7.47425,-3.42182 -13.02502,-19.57546 -16.46856,-47.92616 -0.38912,-3.20363 -0.735,-5.86403 -0.76862,-5.91199 -0.0598,-0.0853 -7.04653,1.93782 -15.16095,4.39019 l -4.07354,1.23111 0.16204,4.24442 c 0.26094,6.83494 1.86756,16.14279 4.81292,27.88333 2.75458,10.98005 4.81804,17.37403 7.02101,21.75579 2.15744,4.29121 6.51962,9.40471 9.02194,10.57585 1.49877,0.70146 4.51715,0.5884 6.39539,-0.23955 z M 3.4476692,199.37268 C 3.0328822,198.2817 0.32240634,186.2679 -0.12020508,183.55858 -2.2813581,170.32968 -3.7420089,148.94459 -3.1913033,138.59526 -2.5451855,126.45287 -1.2177767,113.54899 0.4030262,103.65441 1.2914396,98.230882 2.9485573,90.215332 3.460103,88.867198 c 0.1318977,-0.347604 0.1757212,-0.6961 0.097386,-0.774435 -0.364076,-0.364075 -3.57102525,4.612624 -5.2926876,8.213447 -8.2068899,17.16456 -10.9388284,49.09644 -6.3478893,74.19641 2.4003162,13.1232 5.8989755,22.61874 10.4599364,28.38879 1.1392615,1.44127 1.4969326,1.60202 1.0708207,0.48127 z M 230.48983,191.15394 c 3.78904,-2.07617 7.52933,-12.69434 9.45171,-26.83215 1.55577,-11.44163 1.72774,-30.03367 0.39718,-42.94029 -1.29099,-12.5227 -4.21259,-23.049682 -7.73907,-27.885041 -1.81578,-2.48971 -4.40403,-3.430204 -6.73918,-2.448811 -3.75716,1.579025 -7.63032,11.667192 -9.43359,24.571112 -3.48887,24.96578 -1.72304,52.77264 4.35075,68.51238 1.92454,4.98731 3.71851,7.10223 6.4804,7.63978 1.15967,0.2257 1.97953,0.0692 3.2318,-0.61698 z m -114.20031,-4.29142 c 6.76386,-0.46701 14.70089,-1.13427 14.79202,-1.24354 0.0349,-0.0418 -0.20939,-2.63587 -0.54279,-5.76457 -0.82182,-7.71216 -1.17933,-16.6832 -1.36282,-34.19739 -0.1336,-12.75249 -0.10278,-14.75052 0.22753,-14.75052 0.54111,0 1.00113,-0.52744 0.8358,-0.95829 -0.077,-0.20054 -0.36531,-0.36463 -0.64079,-0.36463 -0.30099,0 -0.50047,-0.18477 -0.49988,-0.46302 5.3e-4,-0.25466 0.11997,-3.61818 0.26542,-7.47448 0.89957,-23.850295 3.26318,-42.998525 7.28817,-59.043491 1.59164,-6.344774 3.3727,-11.878215 6.70573,-20.833498 0.88809,-2.386147 1.61452,-4.469741 1.61429,-4.630209 -3.6e-4,-0.25809 -20.43036,-5.583428 -21.42013,-5.583428 -0.2392,0 -0.72104,0.855891 -1.26608,2.248958 -8.03881,20.546413 -12.95721,43.875065 -15.00544,71.172918 -1.324,17.64564 -1.37498,40.85041 -0.1392,63.36771 0.45065,8.21139 1.07444,17.70213 1.20425,18.32239 0.15332,0.73256 0.15792,0.73267 7.94392,0.19509 z m -91.291561,-26.62195 -0.194072,-9.55967 5.117177,0.17124 c 2.814444,0.0942 6.337565,0.24307 7.829153,0.33086 l 2.711979,0.15962 V 140.33081 129.319 H 39.14818 c -1.366951,0 -9.435171,0.42469 -12.466116,0.65618 l -1.741591,0.13302 0.09026,-6.28158 c 0.04964,-3.45487 0.128196,-7.85916 0.174569,-9.78731 0.055,-2.28685 -0.01058,-3.50573 -0.188627,-3.50573 -0.617037,0 -11.696186,4.05898 -11.955494,4.38004 -0.159804,0.19786 -0.421226,3.18298 -0.605474,6.91377 -0.178336,3.61106 -0.393277,7.40283 -0.477648,8.42616 l -0.153402,1.86059 -4.1359164,0.75473 c -2.2747537,0.4151 -4.2847438,0.81096 -4.4666449,0.87969 -0.2530414,0.0956 -0.3307291,1.76083 -0.3307291,7.08908 v 6.96411 l 1.5213542,0.18866 c 0.8367448,0.10376 2.890573,0.38254 4.5640626,0.61952 l 3.0427086,0.43087 0.16428,3.96358 c 0.09035,2.17997 0.179651,6.01124 0.198437,8.51395 l 0.03416,4.55037 1.521355,0.43518 c 0.836744,0.23935 3.604948,1.06542 6.151562,1.8357 2.546615,0.77028 4.736531,1.41405 4.866479,1.43059 0.137959,0.0176 0.155519,-3.94773 0.0422,-9.5296 z m 159.529871,-7.42716 v -8.08725 l 1.56016,-0.16295 c 0.85809,-0.0896 4.62542,-0.16296 8.37184,-0.16296 h 6.81166 l 0.16486,-4.96094 c 0.0907,-2.72852 0.20613,-5.53656 0.25658,-6.24009 0.0556,-0.77608 -0.0239,-1.32211 -0.20231,-1.38837 -0.16173,-0.0601 -4.02011,-0.5713 -8.57419,-1.13606 -4.55408,-0.56476 -8.35475,-1.10146 -8.44595,-1.19265 -0.0912,-0.0912 -0.0342,-3.76484 0.12664,-8.16364 0.16085,-4.39881 0.24102,-8.04926 0.17816,-8.11212 -0.17596,-0.17596 -17.91207,-4.77808 -18.43756,-4.78413 -0.29564,-0.003 -0.46302,0.19547 -0.46302,0.55016 0,0.84106 -1.06939,17.28383 -1.13419,17.43916 -0.031,0.0744 -4.7594,-0.16373 -10.50748,-0.52917 l -10.45104,-0.66445 -0.17357,2.64584 c -0.0955,1.45521 -0.2245,6.06888 -0.28676,10.2526 l -0.11319,7.60677 h 10.7657 10.76571 l 0.1764,7.07761 c 0.097,3.89268 0.24782,8.15469 0.33512,9.47114 l 0.15873,2.39353 9.55885,-1.88239 9.55885,-1.8824 z m 2.78944,-53.256254 c 2.40944,-16.281599 5.67672,-27.435842 10.01955,-34.205924 2.39458,-3.732943 4.70943,-5.268037 8.36031,-5.544154 1.08995,-0.08243 1.98174,-0.27106 1.98174,-0.419171 0,-0.379114 -1.22199,-2.43263 -2.47088,-4.152244 -1.34624,-1.853666 -5.91277,-6.543217 -7.98016,-8.195149 -0.87313,-0.697664 -2.41191,-1.721329 -3.41952,-2.274816 -1.5681,-0.861364 -2.06925,-1.006337 -3.47874,-1.006337 -4.28111,0 -9.18258,4.556881 -12.59857,11.71285 -4.07068,8.527471 -8.9292,28.523296 -10.65526,43.853046 l -0.15306,1.359383 5.64947,1.88883 c 3.1072,1.03885 7.42555,2.52833 9.59632,3.30995 l 3.94686,1.42113 0.19012,-1.09747 c 0.10458,-0.6036 0.55989,-3.59607 1.01182,-6.649924 z m -165.723591,4.498584 4.801447,-1.84763 0.169984,-2.12112 c 1.987944,-24.80607 6.894851,-43.034581 15.104412,-56.110893 0.797777,-1.270709 1.406938,-2.353948 1.353693,-2.407195 -0.147767,-0.147765 -2.461112,1.65491 -4.703895,3.665513 -2.703057,2.423229 -7.768675,8.01179 -10.041459,11.078081 -4.941589,6.666865 -9.116367,18.0939 -12.12451,33.18671 -1.126242,5.650711 -2.410905,14.902704 -2.41385,17.384244 -1.21e-4,0.10248 0.686692,-0.0761 1.526255,-0.39688 0.83956,-0.32076 3.687127,-1.41463 6.327923,-2.43083 z M 66.523655,72.940501 c 5.238751,-0.60465 9.597507,-1.174422 9.686127,-1.266161 0.08862,-0.09174 1.039077,-4.60188 2.112129,-10.022531 l 1.951006,-9.855729 11.51391,-0.004 11.513913,-0.004 2.32265,-7.60272 c 1.27746,-4.181501 2.31926,-7.692022 2.31511,-7.801163 -0.004,-0.109141 -5.06771,-0.198437 -11.252344,-0.198437 -6.184635,0 -11.244792,-0.06832 -11.244792,-0.151831 0,-0.08351 0.9525,-2.403716 2.116667,-5.15602 1.864254,-4.40744 2.300541,-5.582917 2.050521,-5.524652 -0.03638,0.0085 -4.53099,0.931213 -9.988021,2.050521 l -9.921876,2.035106 -2.910416,5.684506 -2.910417,5.684505 -9.122045,3.913791 c -5.017125,2.152584 -9.208321,4.000064 -9.313765,4.105508 -0.157073,0.157073 -3.656899,12.69763 -3.656899,13.103382 0,0.06784 3.720703,-1.274212 8.268229,-2.982339 4.547527,-1.708123 8.519685,-3.185485 8.827017,-3.283024 0.533405,-0.169288 0.476681,0.22257 -1.248731,8.62629 -0.994137,4.841997 -1.811139,9.073791 -1.81556,9.403985 -0.0065,0.485585 0.105767,0.575895 0.587275,0.472411 0.327422,-0.07037 4.881562,-0.622654 10.120312,-1.227301 z M 77.07022,25.891267 c 3.367201,-0.714209 7.726008,-1.626816 9.686237,-2.028016 l 3.564049,-0.729453 1.85991,-1.885178 c 1.059484,-1.073879 2.543098,-2.247648 3.447407,-2.727433 l 1.5875,-0.842257 -1.058334,-0.007 c -1.680432,-0.01111 -7.154129,0.958008 -11.04877,1.95619 -5.811549,1.489479 -10.485596,3.496446 -13.094764,5.622697 -1.220187,0.994349 -1.886995,1.93901 -1.368689,1.93901 0.166796,0 3.058252,-0.584353 6.425454,-1.298562 z"
         id="path54" />
      <path
         style="display:none;fill:#e6a0a6;stroke-width:0.264583"
         d="m 138.86342,265.10056 c 0.1819,-0.0734 0.47956,-0.0734 0.66146,0 0.1819,0.0734 0.0331,0.13346 -0.33073,0.13346 -0.3638,0 -0.51263,-0.0601 -0.33073,-0.13346 z m -8.69885,-3.19821 c -0.32911,-0.41964 -0.31975,-0.429 0.0999,-0.0999 0.44073,0.34564 0.58089,0.56292 0.36313,0.56292 -0.0549,0 -0.2633,-0.20836 -0.46302,-0.46303 z m -2.24035,-2.24895 -0.50403,-0.59532 0.59531,0.50403 c 0.55945,0.47366 0.71576,0.6866 0.50403,0.6866 -0.0502,0 -0.3181,-0.26789 -0.59531,-0.59531 z m 29.86194,-0.64638 c 0.25744,-0.0671 0.61462,-0.0627 0.79375,0.01 0.17913,0.0725 -0.0315,0.12736 -0.46805,0.12197 -0.43656,-0.005 -0.58313,-0.0647 -0.3257,-0.13178 z m -82.65493,-0.54425 c -0.329107,-0.41964 -0.319749,-0.429 0.0999,-0.0999 0.44073,0.34564 0.580888,0.56291 0.363125,0.56291 -0.05494,0 -0.2633,-0.20836 -0.463021,-0.46302 z m -2.116666,-2.11667 c -0.329108,-0.41964 -0.319749,-0.429 0.0999,-0.0999 0.254661,0.19972 0.463021,0.40808 0.463021,0.46302 0,0.21776 -0.217274,0.0776 -0.562917,-0.36313 z m 24.309271,-17.96845 c 0.181901,-0.0734 0.479558,-0.0734 0.661459,0 0.181901,0.0734 0.03307,0.13345 -0.330729,0.13345 -0.363803,0 -0.512631,-0.0601 -0.33073,-0.13345 z m 3.191535,-0.2701 c 0.191,-0.0764 0.4192,-0.067 0.50712,0.0209 0.0879,0.0879 -0.0684,0.15045 -0.34726,0.13896 -0.30823,-0.0127 -0.37092,-0.0754 -0.15986,-0.15985 z m 2.89388,-0.25907 c 0.1819,-0.0734 0.47956,-0.0734 0.66146,0 0.1819,0.0734 0.0331,0.13345 -0.33073,0.13345 -0.3638,0 -0.51263,-0.0601 -0.33073,-0.13345 z m 3.175,-0.26458 c 0.1819,-0.0734 0.47956,-0.0734 0.66146,0 0.1819,0.0734 0.0331,0.13345 -0.33073,0.13345 -0.3638,0 -0.51263,-0.0601 -0.33073,-0.13345 z m 2.91042,-0.26459 c 0.1819,-0.0734 0.47956,-0.0734 0.66146,0 0.1819,0.0734 0.0331,0.13346 -0.33073,0.13346 -0.3638,0 -0.51263,-0.0601 -0.33073,-0.13346 z m -71.934274,-0.55237 c -0.329107,-0.41965 -0.319749,-0.42901 0.0999,-0.0999 0.44073,0.34564 0.580888,0.56292 0.363125,0.56292 -0.05494,0 -0.2633,-0.20836 -0.463021,-0.46302 z m 75.109274,0.28779 c 0.1819,-0.0734 0.47956,-0.0734 0.66146,0 0.1819,0.0734 0.0331,0.13345 -0.33073,0.13345 -0.3638,0 -0.51263,-0.06 -0.33073,-0.13345 z m 2.91042,-0.26458 c 0.1819,-0.0734 0.47955,-0.0734 0.66145,0 0.18191,0.0734 0.0331,0.13345 -0.33072,0.13345 -0.36381,0 -0.51264,-0.0601 -0.33073,-0.13345 z m 82.21927,-2.73519 c 0.26339,-0.29104 0.53842,-0.52917 0.61118,-0.52917 0.0728,0 -0.0832,0.23813 -0.3466,0.52917 -0.26339,0.29104 -0.53842,0.52916 -0.61118,0.52916 -0.0728,0 0.0832,-0.23812 0.3466,-0.52916 z m 6.74687,-6.71448 c 0,-0.0549 0.20836,-0.2633 0.46302,-0.46302 0.41965,-0.32911 0.42901,-0.31975 0.0999,0.0999 -0.34564,0.44073 -0.56292,0.58089 -0.56292,0.36313 z M 93.884252,220.65056 c 0.181901,-0.0734 0.479557,-0.0734 0.661458,0 0.181901,0.0734 0.03307,0.13346 -0.330729,0.13346 -0.363802,0 -0.51263,-0.0601 -0.330729,-0.13346 z m 3.439583,-0.26458 c 0.181901,-0.0734 0.479558,-0.0734 0.661459,0 0.181901,0.0734 0.03307,0.13345 -0.330729,0.13345 -0.363803,0 -0.512631,-0.06 -0.33073,-0.13345 z M 101.028,220.1214 c 0.1819,-0.0734 0.47956,-0.0734 0.66146,0 0.1819,0.0734 0.0331,0.13345 -0.33073,0.13345 -0.3638,0 -0.51263,-0.0601 -0.33073,-0.13345 z m 3.57691,-0.27271 c 0.25743,-0.0671 0.61462,-0.0627 0.79375,0.01 0.17913,0.0725 -0.0315,0.12737 -0.46805,0.12197 -0.43657,-0.005 -0.58313,-0.0647 -0.3257,-0.13177 z m 3.56684,-0.25646 c 0.1819,-0.0734 0.47956,-0.0734 0.66146,0 0.1819,0.0734 0.0331,0.13345 -0.33073,0.13345 -0.3638,0 -0.51263,-0.0601 -0.33073,-0.13345 z m 3.70417,-0.26458 c 0.1819,-0.0734 0.47956,-0.0734 0.66146,0 0.1819,0.0734 0.0331,0.13345 -0.33073,0.13345 -0.3638,0 -0.51263,-0.0601 -0.33073,-0.13345 z m 1.33945,-20.64302 c 0.191,-0.0764 0.4192,-0.067 0.50712,0.0209 0.0879,0.0879 -0.0683,0.15045 -0.34726,0.13896 -0.30823,-0.0127 -0.37092,-0.0754 -0.15986,-0.15985 z m 2.38125,-0.26458 c 0.191,-0.0764 0.4192,-0.067 0.50712,0.0209 0.0879,0.0879 -0.0683,0.15045 -0.34726,0.13896 -0.30823,-0.0127 -0.37092,-0.0754 -0.15986,-0.15985 z m -41.998251,-0.50277 c 0.0127,-0.30822 0.07539,-0.37092 0.159851,-0.15985 0.07643,0.191 0.06703,0.4192 -0.02088,0.50712 -0.08792,0.0879 -0.150452,-0.0684 -0.138964,-0.34727 z m 47.025341,-0.0264 c 0.19099,-0.0764 0.4192,-0.067 0.50711,0.0209 0.0879,0.0879 -0.0683,0.15046 -0.34726,0.13897 -0.30823,-0.0127 -0.37092,-0.0754 -0.15985,-0.15985 z m 2.38125,-0.26458 c 0.19099,-0.0764 0.4192,-0.067 0.50711,0.0209 0.0879,0.0879 -0.0683,0.15045 -0.34726,0.13897 -0.30823,-0.0127 -0.37092,-0.0754 -0.15985,-0.15985 z m 5.02708,-0.52917 c 0.19099,-0.0764 0.4192,-0.067 0.50712,0.0209 0.0879,0.0879 -0.0684,0.15046 -0.34727,0.13897 -0.30822,-0.0127 -0.37092,-0.0754 -0.15985,-0.15985 z m 2.38125,-0.26458 c 0.19099,-0.0764 0.4192,-0.067 0.50712,0.0209 0.0879,0.0879 -0.0684,0.15045 -0.34727,0.13897 -0.30822,-0.0127 -0.37092,-0.0754 -0.15985,-0.15986 z m -77.187838,-3.1486 c 0.0127,-0.30823 0.07539,-0.37092 0.159851,-0.15985 0.07643,0.19099 0.06703,0.4192 -0.02088,0.50712 -0.08792,0.0879 -0.150452,-0.0684 -0.138964,-0.34727 z m 19.579167,-2.11667 c 0.0127,-0.30822 0.07539,-0.37092 0.159851,-0.15985 0.07643,0.191 0.06703,0.4192 -0.02088,0.50712 -0.08792,0.0879 -0.150452,-0.0683 -0.138964,-0.34727 z m 157.935361,-1.79764 c 0,-0.0549 0.20836,-0.2633 0.46303,-0.46302 0.41964,-0.3291 0.429,-0.31975 0.0999,0.0999 -0.34564,0.44073 -0.56292,0.58089 -0.56292,0.36312 z M 52.696286,189.18603 c 0.0127,-0.30822 0.07539,-0.37092 0.15985,-0.15985 0.07643,0.191 0.06703,0.4192 -0.02087,0.50712 -0.08792,0.0879 -0.150453,-0.0684 -0.138965,-0.34727 z m 19.84375,0 c 0.0127,-0.30822 0.07539,-0.37092 0.159851,-0.15985 0.07643,0.191 0.06703,0.4192 -0.02088,0.50712 -0.08792,0.0879 -0.150453,-0.0684 -0.138964,-0.34727 z m -0.264583,-2.38125 c 0.0127,-0.30822 0.07539,-0.37092 0.15985,-0.15985 0.07643,0.191 0.06703,0.4192 -0.02088,0.50712 -0.08792,0.0879 -0.150453,-0.0684 -0.138965,-0.34727 z m 38.414877,-0.55818 c 0.25743,-0.0671 0.61462,-0.0627 0.79375,0.01 0.17913,0.0725 -0.0315,0.12736 -0.46806,0.12197 -0.43656,-0.005 -0.58312,-0.0647 -0.32569,-0.13177 z m 4.09601,-0.25645 c 0.1819,-0.0734 0.47955,-0.0734 0.66145,0 0.18191,0.0734 0.0331,0.13345 -0.33073,0.13345 -0.3638,0 -0.51263,-0.0601 -0.33072,-0.13345 z m -7.03583,-0.61853 c 0,-0.3638 0.06,-0.51263 0.13345,-0.33073 0.0734,0.18191 0.0734,0.47956 0,0.66146 -0.0734,0.1819 -0.13345,0.0331 -0.13345,-0.33073 z m 10.87732,0.34582 c 0.25743,-0.0671 0.61462,-0.0627 0.79375,0.01 0.17913,0.0725 -0.0315,0.12737 -0.46806,0.12197 -0.43656,-0.005 -0.58312,-0.0647 -0.32569,-0.13177 z m 3.56684,-0.25646 c 0.1819,-0.0734 0.47956,-0.0734 0.66146,0 0.1819,0.0734 0.0331,0.13345 -0.33073,0.13345 -0.3638,0 -0.51263,-0.06 -0.33073,-0.13345 z m 3.175,-0.26458 c 0.1819,-0.0734 0.47956,-0.0734 0.66146,0 0.1819,0.0734 0.0331,0.13345 -0.33073,0.13345 -0.3638,0 -0.51263,-0.0601 -0.33073,-0.13345 z m 3.175,-0.26459 c 0.1819,-0.0734 0.47956,-0.0734 0.66146,0 0.1819,0.0734 0.0331,0.13346 -0.33073,0.13346 -0.3638,0 -0.51263,-0.0601 -0.33073,-0.13346 z m 37.1287,-0.24369 c 0.0127,-0.30823 0.0754,-0.37092 0.15985,-0.15986 0.0764,0.191 0.067,0.4192 -0.0209,0.50712 -0.0879,0.0879 -0.15046,-0.0684 -0.13897,-0.34726 z M 52.167119,184.15895 c 0.0127,-0.30823 0.07539,-0.37092 0.159851,-0.15985 0.07643,0.19099 0.06703,0.4192 -0.02088,0.50712 -0.08792,0.0879 -0.150453,-0.0684 -0.138965,-0.34727 z m 19.84375,-0.26458 c 0.0127,-0.30823 0.07539,-0.37092 0.159851,-0.15986 0.07643,0.191 0.06703,0.4192 -0.02088,0.50712 -0.08792,0.0879 -0.150452,-0.0683 -0.138964,-0.34726 z m 93.397921,-1.32292 c 0.0127,-0.30823 0.0754,-0.37092 0.15985,-0.15985 0.0764,0.19099 0.067,0.4192 -0.0209,0.50712 -0.0879,0.0879 -0.15045,-0.0684 -0.13896,-0.34727 z m -35.18959,-0.52917 c 0.0127,-0.30822 0.0754,-0.37092 0.15985,-0.15985 0.0764,0.191 0.067,0.4192 -0.0209,0.50712 -0.0879,0.0879 -0.15045,-0.0684 -0.13897,-0.34727 z m -22.73328,-0.37482 c 0,-0.36381 0.0601,-0.51263 0.13346,-0.33073 0.0734,0.1819 0.0734,0.47955 0,0.66146 -0.0734,0.1819 -0.13346,0.0331 -0.13346,-0.33073 z m -55.583384,-0.15434 c 0.0127,-0.30823 0.07539,-0.37092 0.15985,-0.15986 0.07643,0.191 0.06703,0.4192 -0.02087,0.50712 -0.08792,0.0879 -0.150453,-0.0683 -0.138965,-0.34726 z m 19.84375,-0.52917 c 0.0127,-0.30823 0.07539,-0.37092 0.159851,-0.15985 0.07643,0.19099 0.06703,0.4192 -0.02088,0.50712 -0.08792,0.0879 -0.150453,-0.0684 -0.138964,-0.34727 z m 93.418804,-1.43316 c 0,-0.3638 0.0601,-0.51263 0.13345,-0.33073 0.0734,0.1819 0.0734,0.47956 0,0.66146 -0.0734,0.1819 -0.13345,0.0331 -0.13345,-0.33073 z M 51.637952,178.6027 c 0.0127,-0.30823 0.07539,-0.37092 0.159851,-0.15985 0.07643,0.19099 0.06703,0.4192 -0.02088,0.50712 -0.08792,0.0879 -0.150452,-0.0684 -0.138964,-0.34727 z m 55.593198,-0.7717 c 0.005,-0.43656 0.0647,-0.58313 0.13177,-0.3257 0.0671,0.25744 0.0627,0.61462 -0.01,0.79375 -0.0725,0.17913 -0.12736,-0.0315 -0.12197,-0.46805 z m -35.728561,-0.13229 c 0,-0.36381 0.06006,-0.51263 0.133453,-0.33073 0.0734,0.1819 0.0734,0.47955 0,0.66146 -0.0734,0.1819 -0.133453,0.0331 -0.133453,-0.33073 z m 58.187451,-0.68351 c 0.0127,-0.30823 0.0754,-0.37092 0.15985,-0.15985 0.0764,0.19099 0.067,0.4192 -0.0209,0.50712 -0.0879,0.0879 -0.15045,-0.0684 -0.13896,-0.34727 z m -78.316671,-1.5875 c 0.0127,-0.30823 0.07539,-0.37092 0.159851,-0.15985 0.07643,0.19099 0.06703,0.4192 -0.02088,0.50712 -0.08792,0.0879 -0.150453,-0.0684 -0.138965,-0.34727 z M 12.7442,174.63395 c 0.0127,-0.30823 0.07539,-0.37092 0.159853,-0.15985 0.07643,0.19099 0.06703,0.4192 -0.02089,0.50712 -0.08792,0.0879 -0.150453,-0.0684 -0.138963,-0.34727 z m 116.68125,0 c 0.0127,-0.30823 0.0754,-0.37092 0.15985,-0.15985 0.0764,0.19099 0.067,0.4192 -0.0209,0.50712 -0.0879,0.0879 -0.15045,-0.0684 -0.13897,-0.34727 z m -58.187444,-0.63941 c 0,-0.3638 0.06006,-0.51263 0.133453,-0.33073 0.0734,0.1819 0.0734,0.47956 0,0.66146 -0.0734,0.1819 -0.133453,0.0331 -0.133453,-0.33073 z m 35.728554,-0.39688 c 0.005,-0.43656 0.0647,-0.58312 0.13178,-0.32569 0.0671,0.25743 0.0627,0.61462 -0.01,0.79375 -0.0725,0.17913 -0.12736,-0.0315 -0.12197,-0.46806 z M 51.108786,172.2527 c 0.0127,-0.30823 0.07539,-0.37092 0.15985,-0.15985 0.07643,0.19099 0.06703,0.4192 -0.02088,0.50712 -0.08792,0.0879 -0.150453,-0.0684 -0.138965,-0.34727 z m 78.103254,-1.96233 c 0,-0.65484 0.0516,-0.92273 0.11467,-0.59531 0.0631,0.32742 0.0631,0.8632 0,1.19063 -0.0631,0.32742 -0.11467,0.0595 -0.11467,-0.59532 z m 55.24675,0.37483 c 0.0127,-0.30823 0.0754,-0.37092 0.15985,-0.15985 0.0764,0.19099 0.067,0.4192 -0.0209,0.50712 -0.0879,0.0879 -0.15045,-0.0684 -0.13896,-0.34727 z M -2.33705,170.40062 c -8.539066,-105.599039 -4.2695329,-52.79952 0,0 z m 73.320278,-0.77171 c 0.0054,-0.43656 0.06469,-0.58312 0.131773,-0.32569 0.06708,0.25743 0.06267,0.61462 -0.0098,0.79375 -0.07248,0.17913 -0.127363,-0.0315 -0.121971,-0.46806 z m 35.728552,-0.39687 c 0,-0.50932 0.0544,-0.71768 0.121,-0.46302 0.0666,0.25466 0.0666,0.67138 0,0.92604 -0.0666,0.25466 -0.121,0.0463 -0.121,-0.46302 z m -55.846692,-0.26458 c 0,-0.36381 0.06006,-0.51263 0.133454,-0.33073 0.0734,0.1819 0.0734,0.47955 0,0.66146 -0.0734,0.1819 -0.133454,0.0331 -0.133454,-0.33073 z m 19.868698,-4.63021 c 0.0029,-0.58209 0.05712,-0.78906 0.120407,-0.45994 0.06329,0.32912 0.06088,0.80537 -0.0053,1.05834 -0.06622,0.25296 -0.118004,-0.0163 -0.115067,-0.5984 z m 144.945834,0.50712 c 0.0127,-0.30823 0.0754,-0.37092 0.15985,-0.15986 0.0764,0.191 0.067,0.4192 -0.0209,0.50712 -0.0879,0.0879 -0.15045,-0.0684 -0.13897,-0.34726 z m -109.22708,-0.77171 c 0.003,-0.58208 0.0571,-0.78905 0.1204,-0.45993 0.0633,0.32912 0.0609,0.80537 -0.005,1.05833 -0.0662,0.25297 -0.118,-0.0163 -0.11507,-0.5984 z m -55.832427,-0.13229 c 0,-0.50932 0.05445,-0.71768 0.121002,-0.46302 0.06655,0.25466 0.06655,0.67138 0,0.92604 -0.06655,0.25467 -0.121002,0.0463 -0.121002,-0.46302 z m 78.330957,-0.66146 c 0.002,-0.7276 0.0534,-0.99385 0.11419,-0.59167 0.0608,0.40218 0.0592,0.9975 -0.004,1.32292 -0.0628,0.32542 -0.11256,-0.004 -0.11057,-0.73125 z m 35.72236,-3.57187 c 0,-0.80037 0.0496,-1.12779 0.11023,-0.7276 0.0606,0.40018 0.0606,1.05502 0,1.4552 -0.0606,0.40019 -0.11023,0.0728 -0.11023,-0.7276 z m 75.08328,0.37483 c 0.0127,-0.30823 0.0754,-0.37092 0.15985,-0.15986 0.0764,0.191 0.067,0.4192 -0.0209,0.50712 -0.0879,0.0879 -0.15045,-0.0683 -0.13896,-0.34726 z m -133.56876,-1.83004 c 0.003,-0.58208 0.0571,-0.78905 0.12041,-0.45993 0.0633,0.32911 0.0609,0.80536 -0.005,1.05833 -0.0662,0.25296 -0.11801,-0.0163 -0.11507,-0.5984 z m 108.69792,-0.022 c 0.0127,-0.30823 0.0754,-0.37092 0.15985,-0.15985 0.0764,0.19099 0.067,0.4192 -0.0209,0.50712 -0.0879,0.0879 -0.15045,-0.0684 -0.13897,-0.34727 z m -218.1422898,-0.1819 c -7.9261522,-97.363912 -3.9630763,-48.68196 0,0 z m 73.7408868,-1.38356 c 0.0016,-0.87312 0.05088,-1.19841 0.109765,-0.72286 0.05889,0.47554 0.05767,1.18992 -0.0027,1.5875 -0.06037,0.39757 -0.10855,0.008 -0.107066,-0.86464 z m 169.557713,0.39688 c 0,-0.36381 0.06,-0.51263 0.13345,-0.33073 0.0734,0.1819 0.0734,0.47955 0,0.66146 -0.0734,0.1819 -0.13345,0.0331 -0.13345,-0.33073 z M 50.39078,154.0185 c 7.94e-4,-1.45521 0.04512,-2.01677 0.09873,-1.2479 0.05362,0.76886 0.05305,1.95948 -0.0013,2.64583 -0.05431,0.68634 -0.09817,0.0573 -0.09748,-1.39793 z m 78.30472,0.92604 c 0,-0.94589 0.048,-1.33284 0.10671,-0.8599 0.0587,0.47295 0.0587,1.24685 0,1.7198 -0.0587,0.47294 -0.10671,0.086 -0.10671,-0.8599 z m 85.94668,0.26458 c 0,-0.3638 0.06,-0.51263 0.13345,-0.33073 0.0734,0.1819 0.0734,0.47956 0,0.66146 -0.0734,0.1819 -0.13345,0.0331 -0.13345,-0.33073 z m -225.042351,-0.33624 c -3.163652,-95.247212 -1.581826,-47.62361 0,0 z m 6.7708965,-1.38355 c -7.6775825,-94.324846 -3.8387914,-47.16242 0,0 z M 184.01644,149.91746 c 0,-2.4011 0.0401,-3.38336 0.0891,-2.18282 0.049,1.20055 0.049,3.16508 0,4.36563 -0.049,1.20055 -0.0891,0.21828 -0.0891,-2.18281 z m 56.30013,3.30729 c 0.005,-0.43656 0.0647,-0.58313 0.13177,-0.3257 0.0671,0.25744 0.0627,0.61462 -0.01,0.79375 -0.0725,0.17913 -0.12736,-0.0315 -0.12197,-0.46805 z m -75.91133,-1.5875 c 0.002,-0.72761 0.0534,-0.99386 0.11419,-0.59168 0.0608,0.40219 0.0592,0.9975 -0.004,1.32292 -0.0628,0.32542 -0.11256,-0.004 -0.11058,-0.73124 z m -58.46931,-0.92604 c 0,-0.80037 0.0496,-1.12779 0.11023,-0.72761 0.0606,0.40018 0.0606,1.05503 0,1.45521 -0.0606,0.40018 -0.11023,0.0728 -0.11023,-0.7276 z m 108.45147,0.39687 c 0.005,-0.43656 0.0647,-0.58312 0.13177,-0.32569 0.0671,0.25743 0.0627,0.61462 -0.01,0.79375 -0.0725,0.17913 -0.12737,-0.0315 -0.12198,-0.46806 z M 37.531086,150.25949 c -35.1178232,-92.171619 -17.558912,-46.08581 0,0 z m -7.408334,-0.26458 c -30.17893387,-91.995232 -15.089467,-45.99762 0,0 z m 210.505788,-5.23683 c 5.3e-4,-1.60073 0.0442,-2.22146 0.0968,-1.3794 0.0527,0.84206 0.0522,2.15174 -10e-4,2.91041 -0.0533,0.75868 -0.0964,0.0697 -0.0958,-1.53101 z m -26.4496,-3.83646 c 0,-2.40109 0.0401,-3.38336 0.0891,-2.18281 0.049,1.20055 0.049,3.16508 0,4.36562 -0.049,1.20055 -0.0891,0.21829 -0.0891,-2.18281 z m -71.46322,2.51354 c 0.002,-0.87312 0.0509,-1.19841 0.10976,-0.72286 0.0589,0.47555 0.0577,1.18992 -0.003,1.5875 -0.0604,0.39757 -0.10856,0.008 -0.10707,-0.86464 z m 41.65603,0.21015 c 0.32743,-0.0631 0.86321,-0.0631 1.19063,0 0.32742,0.0631 0.0595,0.11467 -0.59531,0.11467 -0.65485,0 -0.92274,-0.0516 -0.59532,-0.11467 z M 50.396106,138.80496 c 0,-1.81901 0.04227,-2.56316 0.09394,-1.65365 0.05166,0.9095 0.05166,2.39779 0,3.30729 -0.05166,0.90951 -0.09394,0.16537 -0.09394,-1.65364 z m 190.233524,-2.11667 c 0,-1.67349 0.043,-2.3581 0.0955,-1.52136 0.0525,0.83675 0.0525,2.20597 0,3.04271 -0.0525,0.83675 -0.0955,0.15214 -0.0955,-1.52135 z m -134.92875,-2.11667 c 0,-2.54661 0.0397,-3.58841 0.0882,-2.3151 0.0485,1.27331 0.0485,3.3569 0,4.63021 -0.0485,1.2733 -0.0882,0.23151 -0.0882,-2.31511 z m -116.458761,3.30729 c -2.925179,-83.917899 -1.462589,-41.95895 0,0 z m 211.672011,-0.13229 c 0,-0.65484 0.0516,-0.92273 0.11466,-0.59531 0.0631,0.32742 0.0631,0.8632 0,1.19062 -0.0631,0.32743 -0.11466,0.0595 -0.11466,-0.59531 z m -57.92337,-7.40833 c 0,-1.23693 0.0456,-1.74294 0.10129,-1.12448 0.0557,0.61846 0.0557,1.63049 0,2.24896 -0.0557,0.61846 -0.10129,0.11245 -0.10129,-1.12448 z m 71.40644,0.26458 c 0,-0.50932 0.0545,-0.71768 0.121,-0.46302 0.0666,0.25466 0.0666,0.67138 0,0.92604 -0.0666,0.25466 -0.121,0.0463 -0.121,-0.46302 z m -15.19224,0.0839 c 0.19099,-0.0764 0.4192,-0.067 0.50712,0.0209 0.0879,0.0879 -0.0684,0.15045 -0.34727,0.13896 -0.30823,-0.0127 -0.37092,-0.0754 -0.15985,-0.15985 z M 70.487166,128.75079 c 0,-0.94589 0.04802,-1.33284 0.106714,-0.8599 0.05869,0.47295 0.05869,1.24685 0,1.71979 -0.05869,0.47295 -0.106714,0.086 -0.106714,-0.85989 z m -80.761716,0.37483 c -3.247399,-78.082372 -1.6237,-39.041186 0,0 z m 36.29821,-0.029 c -27.4462059,-78.063039 -13.723103,-39.03152 0,0 z m 157.72475,-0.45575 c -0.079,-0.20599 -0.0932,-0.71201 -0.0313,-1.12448 0.0964,-0.64333 0.11801,-0.61165 0.15202,0.22283 0.0278,0.68233 0.17789,1.00892 0.50266,1.09379 0.43394,0.1134 0.43342,0.12292 -0.008,0.15169 -0.25923,0.0169 -0.536,-0.13784 -0.61505,-0.34383 z m -147.935166,-0.0734 c -33.9725952,-77.710272 -16.986298,-38.855136 0,0 z m 204.503326,-0.47811 c 0.005,-0.43656 0.0647,-0.58313 0.13177,-0.32569 0.0671,0.25743 0.0627,0.61462 -0.01,0.79375 -0.0725,0.17913 -0.12736,-0.0315 -0.12197,-0.46806 z M -3.1308,127.27353 c -8.009899,-76.847646 -4.0049496,-38.423823 0,0 z m -6.879167,-0.79375 c -3.423788,-76.318479 -1.711894,-38.15924 0,0 z m 34.465648,-1.56545 c -26.4008865,-75.274846 -13.200443,-37.637423 0,0 z m 26.178722,0.79375 c 0.0021,-0.7276 0.05337,-0.99386 0.114187,-0.59167 0.06082,0.40218 0.05919,0.99749 -0.0036,1.32291 -0.0628,0.32542 -0.112559,-0.004 -0.110574,-0.73124 z m 164.007777,0.66146 c 0,-0.3638 0.06,-0.51263 0.13345,-0.33073 0.0734,0.1819 0.0734,0.47956 0,0.66146 -0.0734,0.1819 -0.13345,0.0331 -0.13345,-0.33073 z m -51.56435,-0.71252 c 0.25743,-0.0671 0.61462,-0.0627 0.79375,0.01 0.17913,0.0725 -0.0315,0.12737 -0.46806,0.12197 -0.43656,-0.005 -0.58312,-0.0647 -0.32569,-0.13177 z m -4.23333,-0.26459 c 0.25743,-0.0671 0.61462,-0.0627 0.79375,0.01 0.17913,0.0725 -0.0315,0.12736 -0.46806,0.12197 -0.43656,-0.005 -0.58312,-0.0647 -0.32569,-0.13177 z M 11.716559,124.64975 c -17.9081385,-75.098459 -8.9540693,-37.54923 0,0 z m 143.159191,0.4781 c 0.25743,-0.0671 0.61462,-0.0627 0.79375,0.01 0.17913,0.0725 -0.0315,0.12736 -0.46806,0.12197 -0.43656,-0.005 -0.58312,-0.0647 -0.32569,-0.13178 z m -26.18565,-1.40414 c 0,-0.80037 0.0496,-1.12779 0.11022,-0.72761 0.0606,0.40018 0.0606,1.05503 0,1.45521 -0.0606,0.40018 -0.11022,0.0728 -0.11022,-0.7276 z m 21.95231,1.13956 c 0.25744,-0.0671 0.61462,-0.0627 0.79375,0.01 0.17913,0.0725 -0.0315,0.12737 -0.46805,0.12197 -0.43656,-0.005 -0.58313,-0.0647 -0.3257,-0.13177 z m -3.96875,-0.26459 c 0.25743,-0.0671 0.61462,-0.0627 0.79375,0.01 0.17913,0.0725 -0.0315,0.12736 -0.46805,0.12197 -0.43657,-0.005 -0.58313,-0.0647 -0.3257,-0.13177 z m 93.36852,-0.61039 c 0,-0.3638 0.06,-0.51263 0.13345,-0.33073 0.0734,0.1819 0.0734,0.47956 0,0.66146 -0.0734,0.1819 -0.13345,0.0331 -0.13345,-0.33073 z m -75.66103,-0.39688 c 0.005,-0.43656 0.0647,-0.58312 0.13177,-0.32569 0.0671,0.25743 0.0627,0.61462 -0.01,0.79375 -0.0725,0.17913 -0.12736,-0.0315 -0.12197,-0.46806 z m 50.52561,-0.39687 c 0,-0.3638 0.0601,-0.51263 0.13345,-0.33073 0.0734,0.1819 0.0734,0.47956 0,0.66146 -0.0734,0.1819 -0.13345,0.0331 -0.13345,-0.33073 z m -30.92235,-2.24896 c 0.002,-0.7276 0.0534,-0.99386 0.11418,-0.59167 0.0608,0.40218 0.0592,0.99749 -0.004,1.32291 -0.0628,0.32542 -0.11255,-0.004 -0.11057,-0.73124 z m 55.7723,-0.022 c 0.0127,-0.30823 0.0754,-0.37092 0.15985,-0.15985 0.0764,0.19099 0.067,0.4192 -0.0209,0.50712 -0.0879,0.0879 -0.15045,-0.0684 -0.13896,-0.34727 z m -169.017584,-0.904 c 0,-0.65485 0.0516,-0.92274 0.114662,-0.59531 0.06307,0.32742 0.06307,0.8632 0,1.19062 -0.06306,0.32742 -0.114662,0.0595 -0.114662,-0.59531 z m 35.193194,-0.13229 c 0.002,-0.72761 0.0534,-0.99386 0.11419,-0.59168 0.0608,0.40218 0.0592,0.9975 -0.004,1.32292 -0.0628,0.32542 -0.11256,-0.004 -0.11058,-0.73124 z m 109.21814,0.50712 c 0.0127,-0.30823 0.0754,-0.37092 0.15985,-0.15986 0.0764,0.191 0.067,0.4192 -0.0209,0.50712 -0.0879,0.0879 -0.15045,-0.0683 -0.13896,-0.34726 z M 11.981143,119.88725 c -18.0845279,-71.923459 -9.0422639,-35.96173 0,0 z m 152.654777,-0.39688 c 0,-0.3638 0.0601,-0.51263 0.13346,-0.33073 0.0734,0.1819 0.0734,0.47956 0,0.66146 -0.0734,0.1819 -0.13346,0.0331 -0.13346,-0.33073 z M 50.890036,118.29975 c 0.0029,-0.58209 0.05712,-0.78906 0.120407,-0.45994 0.06329,0.32912 0.06088,0.80537 -0.0053,1.05833 -0.06622,0.25297 -0.118004,-0.0163 -0.115067,-0.59839 z m 188.602084,0.24253 c 0.0127,-0.30822 0.0754,-0.37092 0.15985,-0.15985 0.0764,0.19099 0.067,0.4192 -0.0209,0.50712 -0.0879,0.0879 -0.15045,-0.0683 -0.13897,-0.34727 z m -110.55,-2.09462 c 0.003,-0.58208 0.0571,-0.78905 0.12041,-0.45993 0.0633,0.32912 0.0609,0.80537 -0.005,1.05833 -0.0662,0.25297 -0.118,-0.0163 -0.11506,-0.5984 z m 35.96819,-1.05833 c 0.005,-0.43656 0.0647,-0.58313 0.13178,-0.32569 0.0671,0.25743 0.0627,0.61461 -0.01,0.79375 -0.0725,0.17913 -0.12736,-0.0315 -0.12197,-0.46806 z m 19.33868,-1.5875 c 0.002,-0.7276 0.0534,-0.99386 0.11419,-0.59167 0.0608,0.40218 0.0592,0.99749 -0.004,1.32291 -0.0628,0.32542 -0.11256,-0.004 -0.11058,-0.73124 z M 70.99837,113.27266 c 0.0029,-0.58208 0.05712,-0.78905 0.120406,-0.45993 0.06329,0.32912 0.06088,0.80537 -0.0053,1.05833 -0.06622,0.25297 -0.118004,-0.0163 -0.115067,-0.5984 z m 35.18424,0.13229 c 0,-0.50932 0.0545,-0.71768 0.12101,-0.46302 0.0665,0.25467 0.0665,0.67138 0,0.92605 -0.0665,0.25466 -0.12101,0.0463 -0.12101,-0.46303 z m -55.03333,-1.05833 c 0,-0.50932 0.05445,-0.71768 0.121002,-0.46302 0.06655,0.25466 0.06655,0.67138 0,0.92604 -0.06655,0.25466 -0.121002,0.0463 -0.121002,-0.46302 z m 78.04228,-1.19062 c 0.005,-0.43657 0.0647,-0.58313 0.13178,-0.3257 0.0671,0.25743 0.0627,0.61462 -0.01,0.79375 -0.0725,0.17913 -0.12736,-0.0315 -0.12197,-0.46805 z m 35.98334,0 c 0.005,-0.43657 0.0647,-0.58313 0.13177,-0.3257 0.0671,0.25743 0.0627,0.61462 -0.01,0.79375 -0.0725,0.17913 -0.12736,-0.0315 -0.12197,-0.46805 z M 24.681143,110.36225 c -26.5511945,-65.573459 -13.275597,-32.78673 0,0 z m 81.756257,-1.85209 c 0.005,-0.43656 0.0647,-0.58312 0.13177,-0.32569 0.0671,0.25743 0.0627,0.61462 -0.01,0.79375 -0.0725,0.17913 -0.12736,-0.0315 -0.12197,-0.46806 z m -35.189589,-0.79375 c 0.0054,-0.43656 0.06469,-0.58312 0.131773,-0.32569 0.06708,0.25743 0.06267,0.61462 -0.0098,0.79375 -0.07248,0.17913 -0.127362,-0.0315 -0.12197,-0.46806 z m -19.84375,-0.26458 c 0.0054,-0.43656 0.06469,-0.58313 0.131773,-0.32569 0.06708,0.25743 0.06267,0.61461 -0.0098,0.79375 -0.07248,0.17913 -0.127363,-0.0315 -0.121971,-0.46806 z m 78.052089,-0.52917 c 0.005,-0.43656 0.0647,-0.58312 0.13177,-0.32569 0.0671,0.25743 0.0627,0.61462 -0.01,0.79375 -0.0725,0.17913 -0.12736,-0.0315 -0.12197,-0.46806 z M 13.273368,105.04853 c -18.9460112,-62.030979 -9.4730056,-31.01549 0,0 z m 93.418802,-0.37483 c 0,-0.3638 0.0601,-0.51263 0.13346,-0.33072 0.0734,0.1819 0.0734,0.47955 0,0.66145 -0.0734,0.1819 -0.13346,0.0331 -0.13346,-0.33073 z m 79.08954,0.11025 c 0.0127,-0.30823 0.0754,-0.37092 0.15985,-0.15985 0.0764,0.19099 0.067,0.4192 -0.0209,0.50711 -0.0879,0.0879 -0.15045,-0.0683 -0.13896,-0.34726 z M 51.658838,103.35079 c 0,-0.3638 0.06006,-0.51263 0.133454,-0.33073 0.0734,0.1819 0.0734,0.47956 0,0.66146 -0.0734,0.1819 -0.133454,0.0331 -0.133454,-0.33073 z m 19.843751,0 c 0,-0.3638 0.06006,-0.51263 0.133453,-0.33073 0.0734,0.1819 0.0734,0.47956 0,0.66146 -0.0734,0.1819 -0.133453,0.0331 -0.133453,-0.33073 z m 58.208331,0 c 0,-0.3638 0.0601,-0.51263 0.13346,-0.33073 0.0734,0.1819 0.0734,0.47956 0,0.66146 -0.0734,0.1819 -0.13346,0.0331 -0.13346,-0.33073 z M 13.537951,101.87353 c -19.1223999,-59.914312 -9.5611999,-29.957156 0,0 z m 93.418809,-0.63941 c 0,-0.3638 0.0601,-0.51263 0.13345,-0.33073 0.0734,0.1819 0.0734,0.47956 0,0.66146 -0.0734,0.1819 -0.13345,0.0331 -0.13345,-0.33073 z m -35.210474,-0.94809 c 0.0127,-0.308225 0.07539,-0.370918 0.159851,-0.15985 0.07643,0.19099 0.06703,0.4192 -0.02088,0.50712 -0.08792,0.0879 -0.150453,-0.0684 -0.138964,-0.34727 z m 58.208334,-0.26458 c 0.0127,-0.308228 0.0754,-0.370921 0.15985,-0.159855 0.0764,0.190995 0.067,0.419205 -0.0209,0.507115 -0.0879,0.0879 -0.15046,-0.0683 -0.13897,-0.34726 z M 51.923422,99.646621 c 0,-0.363802 0.06005,-0.51263 0.133453,-0.330729 0.0734,0.181901 0.0734,0.479557 0,0.661458 -0.0734,0.1819 -0.133453,0.03307 -0.133453,-0.330729 z M 166.48801,99.382038 c 0,-0.363802 0.06,-0.51263 0.13345,-0.330729 0.0734,0.181901 0.0734,0.479557 0,0.661458 -0.0734,0.181901 -0.13345,0.03307 -0.13345,-0.330729 z M 26.127708,99.1836 c -27.5155712,-58.121026 -13.757786,-29.060513 0,0 z m 81.072742,-1.014235 c 0.0127,-0.308226 0.0754,-0.370919 0.15985,-0.159853 0.0764,0.190995 0.067,0.4192 -0.0209,0.507119 -0.0879,0.08792 -0.15045,-0.06835 -0.13897,-0.347266 z m -35.189581,-0.79375 c 0.0127,-0.308226 0.07539,-0.370919 0.159851,-0.159853 0.07643,0.190995 0.06703,0.4192 -0.02088,0.507119 -0.08792,0.08792 -0.150452,-0.06835 -0.138964,-0.347266 z M 130.2192,97.111032 c 0.0127,-0.308227 0.0754,-0.37092 0.15985,-0.159854 0.0764,0.190995 0.067,0.419201 -0.0209,0.507119 -0.0879,0.08792 -0.15045,-0.06835 -0.13897,-0.347265 z m 36.51251,-0.529167 c 0.0127,-0.308226 0.0754,-0.370919 0.15985,-0.159853 0.0764,0.190995 0.067,0.4192 -0.0209,0.507119 -0.0879,0.08792 -0.15045,-0.06835 -0.13896,-0.347266 z M 52.167119,96.317282 c 0.0127,-0.308227 0.07539,-0.37092 0.159851,-0.159854 0.07643,0.190995 0.06703,0.419201 -0.02088,0.507119 -0.08792,0.08792 -0.150453,-0.06835 -0.138965,-0.347265 z m 55.318801,-0.903994 c 0,-0.363802 0.0601,-0.51263 0.13346,-0.330729 0.0734,0.181901 0.0734,0.479557 0,0.661458 -0.0734,0.181901 -0.13346,0.03307 -0.13346,-0.330729 z M 72.275453,94.729782 c 0.0127,-0.308227 0.07539,-0.37092 0.15985,-0.159854 0.07643,0.190995 0.06703,0.419201 -0.02088,0.507119 -0.08792,0.08792 -0.150453,-0.06835 -0.138965,-0.347265 z m 58.208337,-0.264584 c 0.0127,-0.308226 0.0754,-0.370919 0.15985,-0.159853 0.0764,0.190995 0.067,0.419201 -0.0209,0.507119 -0.0879,0.08792 -0.15045,-0.06835 -0.13896,-0.347266 z m 36.5125,0 c 0.0127,-0.308226 0.0754,-0.370919 0.15985,-0.159853 0.0764,0.190995 0.067,0.419201 -0.0209,0.507119 -0.0879,0.08792 -0.15045,-0.06835 -0.13896,-0.347266 z M 52.431702,93.406865 c 0.0127,-0.308226 0.07539,-0.370919 0.159851,-0.159853 0.07643,0.190994 0.06703,0.4192 -0.02088,0.507119 -0.08792,0.08792 -0.150452,-0.06835 -0.138964,-0.347266 z M 26.502535,92.877698 c -27.7654559,-53.917091 -13.882728,-26.958546 0,0 z m 81.227085,0 c 0.0127,-0.308226 0.0754,-0.370919 0.15985,-0.159853 0.0764,0.190995 0.067,0.419201 -0.0209,0.507119 -0.0879,0.08792 -0.15046,-0.06835 -0.13897,-0.347266 z M 52.696286,90.761032 c 0.0127,-0.308227 0.07539,-0.37092 0.15985,-0.159854 0.07643,0.190995 0.06703,0.419201 -0.02087,0.507119 -0.08792,0.08792 -0.150453,-0.06835 -0.138965,-0.347265 z M 107.9942,90.496448 c 0.0127,-0.308226 0.0754,-0.370919 0.15985,-0.159853 0.0764,0.190995 0.067,0.4192 -0.0209,0.507119 -0.0879,0.08792 -0.15045,-0.06835 -0.13897,-0.347266 z m -35.189581,-0.79375 c 0.0127,-0.308226 0.07539,-0.370919 0.159851,-0.159853 0.07643,0.190995 0.06703,0.4192 -0.02088,0.507119 -0.08792,0.08792 -0.150452,-0.06835 -0.138964,-0.347266 z m 58.208331,0 c 0.0127,-0.308226 0.0754,-0.370919 0.15985,-0.159853 0.0764,0.190995 0.067,0.4192 -0.0209,0.507119 -0.0879,0.08792 -0.15045,-0.06835 -0.13897,-0.347266 z m -57.943747,-2.38125 c 0.0127,-0.308226 0.07539,-0.370919 0.15985,-0.159853 0.07643,0.190995 0.06703,0.4192 -0.02087,0.507119 -0.08792,0.08792 -0.150453,-0.06835 -0.138965,-0.347266 z m 35.454167,-1.058333 c 0.0127,-0.308227 0.0754,-0.37092 0.15985,-0.159854 0.0764,0.190995 0.067,0.419201 -0.0209,0.507119 -0.0879,0.08792 -0.15046,-0.06835 -0.13897,-0.347265 z m 23.01875,-0.79375 c 0.0127,-0.308227 0.0754,-0.37092 0.15985,-0.159854 0.0764,0.190995 0.067,0.419201 -0.0209,0.507119 -0.0879,0.08792 -0.15046,-0.06835 -0.13897,-0.347265 z m -58.208334,-0.79375 c 0.0127,-0.308227 0.07539,-0.37092 0.159851,-0.159854 0.07643,0.190995 0.06703,0.419201 -0.02088,0.507119 -0.08792,0.08792 -0.150453,-0.06835 -0.138964,-0.347265 z m -17.532999,-1.6139 c 0.190995,-0.07643 0.419201,-0.06703 0.507119,0.02087 0.08792,0.08792 -0.06835,0.150453 -0.347265,0.138965 -0.308227,-0.0127 -0.37092,-0.07539 -0.159854,-0.159851 z m 2.645834,-0.264584 c 0.190995,-0.07643 0.4192,-0.06703 0.507119,0.02088 0.08792,0.08792 -0.06835,0.150453 -0.347266,0.138964 -0.308226,-0.0127 -0.370919,-0.07539 -0.159853,-0.15985 z m 2.910417,-0.264583 c 0.190994,-0.07643 0.4192,-0.06703 0.507119,0.02088 0.08792,0.08792 -0.06835,0.150452 -0.347266,0.138964 -0.308226,-0.0127 -0.37092,-0.07539 -0.159853,-0.159851 z m 2.910416,-0.264583 c 0.190995,-0.07643 0.419201,-0.06703 0.507119,0.02087 0.08792,0.08792 -0.06835,0.150453 -0.347265,0.138965 -0.308227,-0.0127 -0.37092,-0.07539 -0.159854,-0.159851 z m 9.238909,-0.327219 c -0.115086,-0.440094 -0.08065,-0.543396 0.115687,-0.347056 0.153749,0.153749 0.227486,0.435721 0.163859,0.626602 -0.06605,0.19816 -0.185986,0.07822 -0.279546,-0.279546 z m -6.328492,0.06264 c 0.190995,-0.07643 0.419201,-0.06703 0.507119,0.02088 0.08792,0.08792 -0.06835,0.150453 -0.347266,0.138964 -0.308226,-0.0127 -0.370919,-0.07539 -0.159853,-0.15985 z m 3.175,-0.264583 c 0.190995,-0.07643 0.419201,-0.06703 0.507119,0.02088 0.08792,0.08792 -0.06835,0.150452 -0.347266,0.138964 -0.308226,-0.0127 -0.370919,-0.07539 -0.159853,-0.159851 z m -12.7,-8.73125 c 0.190995,-0.07643 0.4192,-0.06703 0.507119,0.02088 0.08792,0.08792 -0.06835,0.150453 -0.347266,0.138965 -0.308226,-0.0127 -0.370919,-0.07539 -0.159853,-0.159851 z M 75.578866,70.72948 c 0.09936,-0.260938 0.247303,-0.407781 0.328766,-0.326319 0.08146,0.08146 1.69e-4,0.294955 -0.180653,0.474433 -0.261307,0.25936 -0.291697,0.22897 -0.148113,-0.148114 z M 202.92498,52.352349 c -0.3291,-0.419645 -0.31975,-0.429003 0.0999,-0.0999 0.44073,0.345644 0.58089,0.562917 0.36312,0.562917 -0.0549,0 -0.2633,-0.208359 -0.46302,-0.463021 z M 30.979563,51.392557 c -30.7501412,-26.26033 -15.375071,-13.130165 0,0 z m 3.190288,-3.339687 c -32.8769999,-24.033872 -16.4385,-12.016936 0,0 z m 148.548259,-1.5875 c 0.56839,-0.582084 1.09297,-1.058334 1.16573,-1.058334 0.0728,0 -0.33276,0.47625 -0.90115,1.058334 -0.56839,0.582083 -1.09297,1.058333 -1.16573,1.058333 -0.0728,0 0.33276,-0.47625 0.90115,-1.058333 z m 6.81805,-3.622937 c 0.25744,-0.06708 0.61462,-0.06267 0.79375,0.0098 0.17914,0.07248 -0.0315,0.127363 -0.46805,0.121971 -0.43656,-0.0054 -0.58313,-0.06469 -0.3257,-0.131773 z M 149.5129,27.580058 c 0,-0.05494 0.20836,-0.263302 0.46302,-0.463021 0.41965,-0.329107 0.429,-0.319749 0.0999,0.0999 -0.34565,0.440729 -0.56292,0.580887 -0.56292,0.363126 z m 2.04611,-2.314187 c 0.17948,-0.180821 0.39297,-0.262115 0.47443,-0.180653 0.0815,0.08146 -0.0654,0.229406 -0.32632,0.328765 -0.37708,0.143586 -0.40747,0.113195 -0.14811,-0.148112 z m -30.67072,-8.085409 c 0.19099,-0.07643 0.4192,-0.06703 0.50712,0.02089 0.0879,0.08792 -0.0683,0.150453 -0.34727,0.138964 -0.30822,-0.0127 -0.37092,-0.07539 -0.15985,-0.159852 z M 94.325225,17.075733 c -72.980583,-3.382448 -36.490291,-1.691224 0,0 z m 23.106945,-0.154355 c 0.1819,-0.0734 0.47956,-0.0734 0.66146,0 0.1819,0.0734 0.0331,0.133452 -0.33073,0.133452 -0.3638,0 -0.51263,-0.06005 -0.33073,-0.133452 z m -7.26806,-0.28416 c 0.69562,-0.05468 1.76718,-0.05402 2.38125,0.0015 0.61407,0.05549 0.0449,0.10023 -1.26475,0.09942 -1.30969,-7.94e-4 -1.81211,-0.04621 -1.1165,-0.10089 z M 132.00079,14.7992 c 0.19099,-0.07643 0.4192,-0.06703 0.50712,0.02089 0.0879,0.08792 -0.0684,0.150453 -0.34727,0.138964 -0.30822,-0.0127 -0.37092,-0.07539 -0.15985,-0.159852 z m -2.66237,-0.259071 c 0.1819,-0.0734 0.47956,-0.0734 0.66146,0 0.1819,0.0734 0.0331,0.133452 -0.33073,0.133452 -0.3638,0 -0.51263,-0.06005 -0.33073,-0.133452 z m -3.43958,-0.264584 c 0.1819,-0.0734 0.47955,-0.0734 0.66145,0 0.18191,0.0734 0.0331,0.133452 -0.33072,0.133452 -0.36381,0 -0.51263,-0.06005 -0.33073,-0.133452 z M 112.42162,14.00545 c 0.191,-0.07643 0.4192,-0.06703 0.50712,0.02089 0.0879,0.08792 -0.0684,0.150453 -0.34726,0.138964 -0.30823,-0.0127 -0.37092,-0.07539 -0.15986,-0.159852 z m 8.0569,-0.0091 c 0.40218,-0.06081 0.99749,-0.05919 1.32291,0.0036 0.32542,0.0628 -0.004,0.11256 -0.73124,0.110574 -0.7276,-0.002 -0.99386,-0.05337 -0.59167,-0.114186 z"
         id="path52"
         sodipodi:nodetypes="sssssssssscssscccccsssssssssssssssssssssssssssssssssssssssssssssssssssssssssssssssssscccccsssssssssssssssssssssssssssssssssssssssssssssssssssssssssssssssssssssssssccccccsscscssccccccssccsscsssssssssssssssssssssssssssssssssssssssssssssssssssscscccssssssssssssssssssssssssssscscccssssssssssssssccssssssssssssscscccssssscscccsssscscccssssssssscscccsssssccssssssssscscccssssssssccccsssscsccccscccsssscscccccccccccsssscscccssssssssssssssssccssssssssscsssssssssssccccccssscccccscccccccccssssssssscccccccccccccccccssssccccccccccsssscscccsssscscccssssssssscscccsssssccsssscscccssssscsccccsccccsccccscccsssssssscsccccsccccccscccsssssssssscscccccscsssssssssssssssscssccscssssssssssssssssscssccsssssssssssssssssssssssssscssssssssssssssssssssssccssssssssssssssssssssssssssssssssssssssssssssscssccsssssssssssssssssssssssssssssssssssssssssssccccssssssssssssssssssssssssccssssccsccsssssssssssssssssssssss" />
      <path
         style="display:none;fill:#fd8b71;stroke-width:0.264583"
         d="m 181.49373,234.38569 c -0.3291,-0.41965 -0.31975,-0.42901 0.0999,-0.0999 0.25466,0.19972 0.46302,0.40808 0.46302,0.46302 0,0.21776 -0.21727,0.0776 -0.56292,-0.36312 z m 17.36396,-1.38907 c 0.26339,-0.29104 0.53842,-0.52916 0.61118,-0.52916 0.0728,0 -0.0832,0.23812 -0.34659,0.52916 -0.26339,0.29105 -0.53843,0.52917 -0.61119,0.52917 -0.0728,0 0.0832,-0.23812 0.3466,-0.52917 z m 5.02709,-5.02708 c 0.26339,-0.29104 0.53842,-0.52917 0.61118,-0.52917 0.0728,0 -0.0832,0.23813 -0.3466,0.52917 -0.26339,0.29104 -0.53842,0.52917 -0.61118,0.52917 -0.0728,0 0.0832,-0.23813 0.3466,-0.52917 z m 2.51354,-4.7625 -1.19063,-0.1851 1.25677,-0.0397 c 0.69123,-0.0219 1.25677,0.0793 1.25677,0.22484 0,0.14552 -0.0298,0.2467 -0.0661,0.22485 -0.0364,-0.0219 -0.60193,-0.12304 -1.25677,-0.22485 z m -8.08224,-3.24114 -1.04589,-1.12448 1.12448,1.04588 c 1.04576,0.97266 1.24606,1.20307 1.04589,1.20307 -0.0432,0 -0.54925,-0.50601 -1.12448,-1.12447 z m 25.26013,-30.82396 -0.64143,-0.72761 0.7276,0.64143 c 0.40018,0.35279 0.7276,0.68022 0.7276,0.72761 0,0.20751 -0.21426,0.0386 -0.81377,-0.64143 z m -58.16742,-7.36424 c 0.0127,-0.30823 0.0754,-0.37092 0.15985,-0.15985 0.0764,0.19099 0.067,0.4192 -0.0209,0.50712 -0.0879,0.0879 -0.15045,-0.0684 -0.13896,-0.34727 z m -0.23389,-3.41754 c 0.005,-0.43656 0.0647,-0.58312 0.13177,-0.32569 0.0671,0.25743 0.0627,0.61462 -0.01,0.79375 -0.0725,0.17913 -0.12736,-0.0315 -0.12197,-0.46806 z m 19.81306,-2.66788 c 0.0127,-0.30822 0.0754,-0.37092 0.15985,-0.15985 0.0764,0.191 0.067,0.4192 -0.0209,0.50712 -0.0879,0.0879 -0.15045,-0.0683 -0.13896,-0.34727 z m -0.26459,-2.11666 c 0.0127,-0.30823 0.0754,-0.37092 0.15985,-0.15986 0.0764,0.191 0.067,0.4192 -0.0209,0.50712 -0.0879,0.0879 -0.15046,-0.0683 -0.13897,-0.34726 z m -0.52916,-4.49792 c 0.0127,-0.30823 0.0754,-0.37092 0.15985,-0.15985 0.0764,0.19099 0.067,0.4192 -0.0209,0.50712 -0.0879,0.0879 -0.15045,-0.0684 -0.13896,-0.34727 z m 55.29791,-7.40833 c 0.0127,-0.30823 0.0754,-0.37092 0.15985,-0.15986 0.0764,0.191 0.067,0.4192 -0.0209,0.50712 -0.0879,0.0879 -0.15045,-0.0683 -0.13897,-0.34726 z m -24.34166,-1.5875 c 0.0127,-0.30823 0.0754,-0.37092 0.15985,-0.15986 0.0764,0.191 0.067,0.4192 -0.0209,0.50712 -0.0879,0.0879 -0.15045,-0.0683 -0.13896,-0.34726 z m -31.14167,-3.02066 c 0,-1.67349 0.043,-2.3581 0.0955,-1.52136 0.0525,0.83675 0.0525,2.20597 0,3.04271 -0.0525,0.83675 -0.0955,0.15214 -0.0955,-1.52135 z m 55.74792,2.22691 c 0.0127,-0.30823 0.0754,-0.37092 0.15985,-0.15986 0.0764,0.191 0.067,0.4192 -0.0209,0.50712 -0.0879,0.0879 -0.15045,-0.0684 -0.13896,-0.34726 z m -75.08689,-2.09462 c 0.002,-0.72761 0.0534,-0.99386 0.11419,-0.59168 0.0608,0.40219 0.0592,0.9975 -0.004,1.32292 -0.0628,0.32542 -0.11256,-0.004 -0.11057,-0.73124 z m 50.21605,0.24253 c 0.0127,-0.30822 0.0754,-0.37092 0.15985,-0.15985 0.0764,0.19099 0.067,0.4192 -0.0209,0.50712 -0.0879,0.0879 -0.15045,-0.0684 -0.13897,-0.34727 z m 25.13542,-1.32291 c 0.0127,-0.30823 0.0754,-0.37092 0.15985,-0.15986 0.0764,0.191 0.067,0.4192 -0.0209,0.50712 -0.0879,0.0879 -0.15046,-0.0683 -0.13897,-0.34726 z m -25.37911,-1.96233 c 0,-0.3638 0.06,-0.51263 0.13345,-0.33073 0.0734,0.1819 0.0734,0.47956 0,0.66146 -0.0734,0.1819 -0.13345,0.0331 -0.13345,-0.33073 z m 25.68419,-2.38125 c 0,-0.50932 0.0545,-0.71768 0.121,-0.46302 0.0666,0.25466 0.0666,0.67138 0,0.92604 -0.0666,0.25466 -0.121,0.0463 -0.121,-0.46302 z M 164.40524,149.256 c 0.002,-0.72761 0.0534,-0.99386 0.11419,-0.59168 0.0608,0.40219 0.0592,0.9975 -0.004,1.32292 -0.0628,0.32542 -0.11256,-0.004 -0.11058,-0.73124 z m 49.9973,0.26458 c 0.003,-0.58208 0.0571,-0.78905 0.12041,-0.45993 0.0633,0.32911 0.0609,0.80536 -0.005,1.05833 -0.0662,0.25296 -0.118,-0.0163 -0.11507,-0.5984 z m -66.12869,-4.8284 c 3.0293,-0.0425 7.91086,-0.0424 10.84791,1.3e-4 2.93705,0.0426 0.45854,0.0773 -5.50782,0.0772 -5.96635,-7e-5 -8.3694,-0.0349 -5.34009,-0.0774 z m 49.97249,-1.318 c 2.27092,-0.0896 2.30037,-0.0995 2.40592,-0.80863 0.0981,-0.65895 0.10482,-0.65272 0.0822,0.0759 l -0.0247,0.79375 -2.38125,0.0149 -2.38125,0.0149 2.29907,-0.0907 z m 42.3589,-2.58485 c 0.002,-0.7276 0.0534,-0.99386 0.11419,-0.59167 0.0608,0.40218 0.0592,0.99749 -0.004,1.32291 -0.0628,0.32542 -0.11256,-0.004 -0.11058,-0.73124 z m -39.69111,-5.15937 c 0,-0.65485 0.0516,-0.92274 0.11466,-0.59532 0.0631,0.32742 0.0631,0.86321 0,1.19063 -0.0631,0.32742 -0.11466,0.0595 -0.11466,-0.59531 z m -57.92511,-1.19063 c 10e-4,-1.16417 0.0475,-1.6075 0.10337,-0.98519 0.0559,0.62231 0.0551,1.57481 -0.002,2.11666 -0.0569,0.54186 -0.10259,0.0327 -0.10163,-1.13147 z m 71.41352,-2.11667 c 0.003,-0.58208 0.0571,-0.78905 0.12041,-0.45993 0.0633,0.32912 0.0609,0.80537 -0.005,1.05833 -0.0662,0.25297 -0.118,-0.0163 -0.11507,-0.5984 z m 25.92917,-2.64583 c 0.003,-0.58208 0.0571,-0.78905 0.1204,-0.45994 0.0633,0.32912 0.0609,0.80537 -0.005,1.05834 -0.0662,0.25296 -0.118,-0.0163 -0.11507,-0.5984 z m -48.2705,0.21614 c 0.19099,-0.0764 0.4192,-0.067 0.50712,0.0209 0.0879,0.0879 -0.0684,0.15045 -0.34727,0.13897 -0.30823,-0.0127 -0.37092,-0.0754 -0.15985,-0.15985 z m -2.11667,-0.26459 c 0.191,-0.0764 0.4192,-0.067 0.50712,0.0209 0.0879,0.0879 -0.0684,0.15045 -0.34727,0.13896 -0.30822,-0.0127 -0.37092,-0.0754 -0.15985,-0.15985 z m -2.11667,-0.26458 c 0.191,-0.0764 0.4192,-0.067 0.50712,0.0209 0.0879,0.0879 -0.0684,0.15046 -0.34726,0.13897 -0.30823,-0.0127 -0.37092,-0.0754 -0.15986,-0.15985 z m -2.11666,-0.26458 c 0.19099,-0.0764 0.4192,-0.067 0.50712,0.0209 0.0879,0.0879 -0.0684,0.15045 -0.34727,0.13897 -0.30823,-0.0127 -0.37092,-0.0754 -0.15985,-0.15985 z m 28.94077,-1.53906 c 0.005,-0.43656 0.0647,-0.58312 0.13177,-0.32569 0.0671,0.25743 0.0627,0.61462 -0.01,0.79375 -0.0725,0.17913 -0.12736,-0.0315 -0.12197,-0.46806 z m -30.94111,-1.5875 c 0.003,-0.58208 0.0571,-0.78905 0.12041,-0.45993 0.0633,0.32912 0.0609,0.80537 -0.005,1.05833 -0.0662,0.25297 -0.118,-0.0163 -0.11506,-0.5984 z m -21.95596,-0.31564 c 0.25744,-0.0671 0.61462,-0.0627 0.79375,0.01 0.17913,0.0725 -0.0315,0.12737 -0.46805,0.12197 -0.43656,-0.005 -0.58313,-0.0647 -0.3257,-0.13177 z m -4.10607,-0.25646 c 0.1819,-0.0734 0.47955,-0.0734 0.66146,0 0.1819,0.0734 0.0331,0.13345 -0.33073,0.13345 -0.36381,0 -0.51263,-0.06 -0.33073,-0.13345 z m 6.73231,-0.48623 c 0.005,-0.43656 0.0647,-0.58313 0.13177,-0.32569 0.0671,0.25743 0.0627,0.61462 -0.01,0.79375 -0.0725,0.17913 -0.12736,-0.0315 -0.12197,-0.46806 z m 75.66103,0.13229 c 0,-0.3638 0.06,-0.51263 0.13345,-0.33073 0.0734,0.1819 0.0734,0.47956 0,0.66146 -0.0734,0.1819 -0.13345,0.0331 -0.13345,-0.33073 z m -86.48935,0.0812 c 0.25743,-0.0671 0.61462,-0.0627 0.79375,0.01 0.17913,0.0725 -0.0315,0.12736 -0.46806,0.12197 -0.43656,-0.005 -0.58312,-0.0647 -0.32569,-0.13178 z m -4.10608,-0.25646 c 0.1819,-0.0734 0.47956,-0.0734 0.66146,0 0.1819,0.0734 0.0331,0.13346 -0.33073,0.13346 -0.3638,0 -0.51263,-0.0601 -0.33073,-0.13346 z m -4.096,-0.27271 c 0.25743,-0.0671 0.61462,-0.0627 0.79375,0.01 0.17913,0.0725 -0.0315,0.12736 -0.46806,0.12197 -0.43656,-0.005 -0.58313,-0.0647 -0.32569,-0.13177 z m 69.53512,-0.50015 c 0.0127,-0.30822 0.0754,-0.37092 0.15985,-0.15985 0.0764,0.19099 0.067,0.4192 -0.0209,0.50712 -0.0879,0.0879 -0.15045,-0.0684 -0.13897,-0.34727 z m 24.89172,-2.22691 c 0,-0.3638 0.0601,-0.51263 0.13346,-0.33073 0.0734,0.1819 0.0734,0.47956 0,0.66146 -0.0734,0.1819 -0.13346,0.0331 -0.13346,-0.33073 z m -24.62713,-0.6835 c 0.0127,-0.30823 0.0754,-0.37092 0.15985,-0.15986 0.0764,0.191 0.067,0.4192 -0.0209,0.50712 -0.0879,0.0879 -0.15045,-0.0684 -0.13896,-0.34726 z M 164.64573,120.681 c 0.005,-0.43657 0.0647,-0.58313 0.13177,-0.3257 0.0671,0.25743 0.0627,0.61462 -0.01,0.79375 -0.0725,0.17913 -0.12737,-0.0315 -0.12197,-0.46805 z m 19.32973,-1.85209 c 0.003,-0.58208 0.0571,-0.78905 0.1204,-0.45993 0.0633,0.32912 0.0609,0.80537 -0.005,1.05833 -0.0662,0.25297 -0.11801,-0.0163 -0.11507,-0.5984 z m 31.43958,-0.022 c 0.0127,-0.30822 0.0754,-0.37092 0.15985,-0.15985 0.0764,0.191 0.067,0.4192 -0.0209,0.50712 -0.0879,0.0879 -0.15045,-0.0683 -0.13896,-0.34727 z m 23.8125,-1.85208 c 0.0127,-0.30823 0.0754,-0.37092 0.15985,-0.15985 0.0764,0.19099 0.067,0.4192 -0.0209,0.50712 -0.0879,0.0879 -0.15046,-0.0684 -0.13897,-0.34727 z m -74.32703,-0.37484 c 0,-0.3638 0.06,-0.51263 0.13345,-0.33072 0.0734,0.1819 0.0734,0.47955 0,0.66145 -0.0734,0.18191 -0.13345,0.0331 -0.13345,-0.33073 z m 0.27439,-4.10104 c 0.005,-0.43656 0.0647,-0.58312 0.13177,-0.32569 0.0671,0.25743 0.0627,0.61462 -0.01,0.79375 -0.0725,0.17913 -0.12736,-0.0315 -0.12197,-0.46806 z m 0.26458,-4.23333 c 0.005,-0.43656 0.0647,-0.58313 0.13177,-0.32569 0.0671,0.25743 0.0627,0.61461 -0.01,0.79375 -0.0725,0.17913 -0.12737,-0.0315 -0.12197,-0.46806 z m 1.29223,-10.869965 c 0.0127,-0.308226 0.0754,-0.370919 0.15985,-0.159853 0.0764,0.190995 0.067,0.4192 -0.0209,0.507119 -0.0879,0.08792 -0.15045,-0.06835 -0.13896,-0.347266 z m 31.46452,-35.118036 c 0,-0.04553 0.38696,-0.432487 0.8599,-0.859895 l 0.8599,-0.777105 -0.77711,0.859895 c -0.72437,0.801545 -0.94269,0.981512 -0.94269,0.777105 z m 6.87917,-3.461292 c 0,-0.05748 0.47625,-0.149921 1.05833,-0.20543 0.58209,-0.05551 1.05834,-0.0085 1.05834,0.104499 0,0.112988 -0.47625,0.205431 -1.05834,0.205431 -0.58208,0 -1.05833,-0.04702 -1.05833,-0.1045 z m -2.94417,-7.237688 c -0.3291,-0.419645 -0.31975,-0.429003 0.0999,-0.0999 0.44073,0.345644 0.58089,0.562917 0.36312,0.562917 -0.0549,0 -0.2633,-0.208359 -0.46302,-0.463021 z m -3.96875,-3.96875 c -0.3291,-0.419645 -0.31975,-0.429003 0.0999,-0.0999 0.25466,0.199721 0.46302,0.40808 0.46302,0.463021 0,0.217762 -0.21727,0.07761 -0.56292,-0.363125 z"
         id="path50" />
      <path
         style="display:none;fill:#be6f8d;stroke-width:0.264583"
         d="m 136.61446,265.08628 c 0.40018,-0.0606 1.05503,-0.0606 1.45521,0 0.40018,0.0606 0.0728,0.11023 -0.7276,0.11023 -0.80037,0 -1.12779,-0.0496 -0.72761,-0.11023 z m -7.4945,-4.24226 -0.64144,-0.7276 0.72761,0.64143 c 0.40018,0.35279 0.7276,0.68021 0.7276,0.7276 0,0.20751 -0.21426,0.0386 -0.81377,-0.64143 z m -2.5044,-2.72958 c -0.0959,-0.1552 -0.11765,-0.33893 -0.0483,-0.40829 0.0694,-0.0693 0.1966,0.0576 0.28277,0.28219 0.17891,0.46622 0.0264,0.54823 -0.23447,0.1261 z m -52.528939,-0.71 -0.641432,-0.72761 0.727604,0.64144 c 0.680056,0.59951 0.84894,0.81377 0.641432,0.81377 -0.04739,0 -0.374814,-0.32742 -0.727604,-0.7276 z m 76.734949,-1.85209 -0.9118,-0.99218 0.99219,0.9118 c 0.92351,0.84868 1.11384,1.07257 0.9118,1.07257 -0.0442,0 -0.4907,-0.44648 -0.99219,-0.99219 z m -109.821591,-15.875 c -0.329107,-0.41964 -0.319748,-0.429 0.0999,-0.0999 0.440729,0.34564 0.580887,0.56291 0.363124,0.56291 -0.05494,0 -0.2633,-0.20835 -0.463021,-0.46302 z m -1.852083,-1.5875 c -0.329107,-0.41964 -0.319749,-0.429 0.0999,-0.0999 0.254662,0.19972 0.463021,0.40808 0.463021,0.46302 0,0.21776 -0.217273,0.0776 -0.562917,-0.36313 z m 57.398726,0.28229 c 0.190995,-0.0764 0.4192,-0.067 0.507119,0.0209 0.08792,0.0879 -0.06835,0.15045 -0.347266,0.13897 -0.308226,-0.0127 -0.370919,-0.0754 -0.159853,-0.15986 z m 3.175,-0.26459 c 0.190995,-0.0764 0.419198,-0.067 0.507118,0.0209 0.0879,0.0879 -0.0683,0.15045 -0.347265,0.13896 -0.308226,-0.0127 -0.370919,-0.0754 -0.159853,-0.15985 z m 2.910418,-0.26458 c 0.19099,-0.0764 0.4192,-0.067 0.50712,0.0209 0.0879,0.0879 -0.0684,0.15046 -0.34727,0.13897 -0.30822,-0.0127 -0.37092,-0.0754 -0.15985,-0.15985 z m 3.175,-0.26458 c 0.19099,-0.0764 0.4192,-0.067 0.50712,0.0209 0.0879,0.0879 -0.0683,0.15045 -0.34727,0.13897 -0.30822,-0.0127 -0.37092,-0.0754 -0.15985,-0.15986 z m 2.91042,-0.26459 c 0.19099,-0.0764 0.4192,-0.067 0.50711,0.0209 0.0879,0.0879 -0.0683,0.15045 -0.34726,0.13896 -0.30823,-0.0127 -0.37092,-0.0754 -0.15985,-0.15985 z m 3.175,-0.26458 c 0.19099,-0.0764 0.4192,-0.067 0.50711,0.0209 0.0879,0.0879 -0.0683,0.15046 -0.34726,0.13897 -0.30823,-0.0127 -0.37092,-0.0754 -0.15985,-0.15985 z m 2.91041,-0.26458 c 0.191,-0.0764 0.4192,-0.067 0.50712,0.0209 0.0879,0.0879 -0.0683,0.15045 -0.34726,0.13897 -0.30823,-0.0127 -0.37092,-0.0754 -0.15986,-0.15986 z m -78.159903,-0.94374 -0.504029,-0.59532 0.595312,0.50403 c 0.559446,0.47366 0.715762,0.6866 0.504029,0.6866 -0.05021,0 -0.318098,-0.26789 -0.595312,-0.59531 z m -5.291667,-5.29167 -0.504029,-0.59531 0.595313,0.50402 c 0.327422,0.27722 0.595312,0.54511 0.595312,0.59532 0,0.21173 -0.212934,0.0554 -0.686596,-0.50403 z m 59.887119,-9.63408 c 0.181901,-0.0734 0.479557,-0.0734 0.661458,0 0.181901,0.0734 0.03307,0.13345 -0.330729,0.13345 -0.363802,0 -0.512631,-0.0601 -0.330729,-0.13345 z m 3.704166,-0.26459 c 0.181901,-0.0734 0.479558,-0.0734 0.661459,0 0.181901,0.0734 0.03307,0.13346 -0.33073,0.13346 -0.363802,0 -0.51263,-0.0601 -0.330729,-0.13346 z m 3.439584,-0.26458 c 0.181901,-0.0734 0.479557,-0.0734 0.661458,0 0.181901,0.0734 0.03307,0.13345 -0.330729,0.13345 -0.363802,0 -0.51263,-0.06 -0.330729,-0.13345 z m 3.704171,-0.26458 c 0.1819,-0.0734 0.47955,-0.0734 0.66145,0 0.1819,0.0734 0.0331,0.13345 -0.33073,0.13345 -0.3638,0 -0.51263,-0.0601 -0.33072,-0.13345 z m 3.7207,-0.2701 c 0.19099,-0.0764 0.4192,-0.067 0.50712,0.0209 0.0879,0.0879 -0.0683,0.15045 -0.34727,0.13896 -0.30822,-0.0127 -0.37092,-0.0754 -0.15985,-0.15985 z m 3.42305,-0.25907 c 0.1819,-0.0734 0.47955,-0.0734 0.66145,0 0.18191,0.0734 0.0331,0.13345 -0.33073,0.13345 -0.3638,0 -0.51263,-0.0601 -0.33072,-0.13345 z M 74.127536,202.15062 c 0.0127,-0.30823 0.07539,-0.37092 0.159851,-0.15986 0.07643,0.191 0.06703,0.41921 -0.02088,0.50712 -0.08792,0.0879 -0.150453,-0.0684 -0.138964,-0.34726 z m 37.235754,-3.2014 c 0.19099,-0.0764 0.4192,-0.067 0.50712,0.0209 0.0879,0.0879 -0.0684,0.15046 -0.34727,0.13897 -0.30822,-0.0127 -0.37092,-0.0754 -0.15985,-0.15985 z M 2.5368537,198.86537 c -11.788335,-124.575539 -5.8941675,-62.28777 0,0 z M 116.39037,198.42005 c 0.191,-0.0764 0.4192,-0.067 0.50712,0.0209 0.0879,0.0879 -0.0684,0.15045 -0.34726,0.13896 -0.30823,-0.0127 -0.37092,-0.0754 -0.15986,-0.15985 z m 2.38125,-0.26458 c 0.191,-0.0764 0.4192,-0.067 0.50712,0.0209 0.0879,0.0879 -0.0683,0.15046 -0.34726,0.13897 -0.30823,-0.0127 -0.37092,-0.0754 -0.15986,-0.15985 z m 5.02709,-0.52917 c 0.19099,-0.0764 0.4192,-0.067 0.50711,0.0209 0.0879,0.0879 -0.0683,0.15045 -0.34726,0.13896 -0.30823,-0.0127 -0.37092,-0.0754 -0.15985,-0.15985 z m -70.044091,-0.50277 c 0.0127,-0.30822 0.07539,-0.37092 0.159851,-0.15985 0.07643,0.191 0.06703,0.4192 -0.02088,0.50712 -0.08792,0.0879 -0.150453,-0.0684 -0.138965,-0.34727 z m 72.425341,0.23819 c 0.19099,-0.0764 0.4192,-0.067 0.50711,0.0209 0.0879,0.0879 -0.0684,0.15046 -0.34726,0.13897 -0.30823,-0.0127 -0.37092,-0.0754 -0.15985,-0.15985 z m 5.02708,-0.52917 c 0.19099,-0.0764 0.4192,-0.067 0.50712,0.0209 0.0879,0.0879 -0.0683,0.15045 -0.34727,0.13896 -0.30822,-0.0127 -0.37092,-0.0754 -0.15985,-0.15985 z M 73.069203,194.4777 c 0.0127,-0.30823 0.07539,-0.37092 0.15985,-0.15985 0.07643,0.19099 0.06703,0.4192 -0.02087,0.50712 -0.08792,0.0879 -0.150453,-0.0684 -0.138965,-0.34727 z m -46.566668,-1.5875 c 0.0127,-0.30823 0.07539,-0.37092 0.159851,-0.15985 0.07643,0.19099 0.06703,0.4192 -0.02088,0.50712 -0.08792,0.0879 -0.150453,-0.0684 -0.138965,-0.34727 z m 26.458334,-2.11667 c 0.0127,-0.30822 0.07539,-0.37092 0.159851,-0.15985 0.07643,0.191 0.06703,0.4192 -0.02088,0.50712 -0.08792,0.0879 -0.150453,-0.0684 -0.138965,-0.34727 z m -26.722917,-0.26458 c 0.0127,-0.30823 0.07539,-0.37092 0.15985,-0.15985 0.07643,0.19099 0.06703,0.4192 -0.02088,0.50712 -0.08792,0.0879 -0.150453,-0.0684 -0.138965,-0.34727 z m 46.302084,-0.52917 c 0.0127,-0.30822 0.07539,-0.37092 0.159851,-0.15985 0.07643,0.191 0.06703,0.4192 -0.02088,0.50712 -0.08792,0.0879 -0.150453,-0.0684 -0.138964,-0.34727 z m -19.84375,-1.5875 c 0.0127,-0.30822 0.07539,-0.37092 0.15985,-0.15985 0.07643,0.191 0.06703,0.4192 -0.02087,0.50712 -0.08792,0.0879 -0.150453,-0.0684 -0.138965,-0.34727 z m -26.702032,-0.37482 c 0,-0.36381 0.06006,-0.51263 0.133454,-0.33073 0.0734,0.1819 0.0734,0.47955 0,0.66146 -0.0734,0.1819 -0.133454,0.0331 -0.133454,-0.33073 z m 46.281199,-0.41893 c 0.0127,-0.30822 0.07539,-0.37092 0.15985,-0.15985 0.07643,0.191 0.06703,0.4192 -0.02088,0.50712 -0.08792,0.0879 -0.150453,-0.0683 -0.138965,-0.34727 z m -19.843751,-1.5875 c 0.0127,-0.30822 0.07539,-0.37092 0.159851,-0.15985 0.07643,0.191 0.06703,0.4192 -0.02088,0.50712 -0.08792,0.0879 -0.150452,-0.0684 -0.138964,-0.34727 z m 56.935708,0.23557 c 0.25743,-0.0671 0.61462,-0.0627 0.79375,0.01 0.17913,0.0725 -0.0315,0.12736 -0.46805,0.12197 -0.43657,-0.005 -0.58313,-0.0647 -0.3257,-0.13177 z m 4.36059,-0.25645 c 0.1819,-0.0734 0.47956,-0.0734 0.66146,0 0.1819,0.0734 0.0331,0.13345 -0.33073,0.13345 -0.3638,0 -0.51263,-0.0601 -0.33073,-0.13345 z m -87.998329,-0.61853 c 0,-0.3638 0.06006,-0.51263 0.133453,-0.33073 0.0734,0.18191 0.0734,0.47956 0,0.66146 -0.0734,0.1819 -0.133453,0.0331 -0.133453,-0.33073 z m 91.702499,0.35394 c 0.1819,-0.0734 0.47956,-0.0734 0.66146,0 0.1819,0.0734 0.0331,0.13346 -0.33073,0.13346 -0.3638,0 -0.51263,-0.0601 -0.33073,-0.13346 z m 3.70417,-0.26458 c 0.1819,-0.0734 0.47955,-0.0734 0.66145,0 0.18191,0.0734 0.0331,0.13345 -0.33072,0.13345 -0.36381,0 -0.51264,-0.06 -0.33073,-0.13345 z m -49.104584,-0.61852 c 0,-0.36381 0.06006,-0.51263 0.133453,-0.33073 0.0734,0.1819 0.0734,0.47955 0,0.66146 -0.0734,0.1819 -0.133453,0.0331 -0.133453,-0.33073 z m 52.560704,0.34842 c 0.19099,-0.0764 0.4192,-0.067 0.50711,0.0209 0.0879,0.0879 -0.0683,0.15045 -0.34726,0.13896 -0.30823,-0.0127 -0.37092,-0.0754 -0.15985,-0.15985 z m 3.175,-0.26458 c 0.19099,-0.0764 0.4192,-0.067 0.50711,0.0209 0.0879,0.0879 -0.0684,0.15045 -0.34726,0.13896 -0.30823,-0.0127 -0.37092,-0.0754 -0.15985,-0.15985 z m -20.01695,-0.61301 c 0,-0.3638 0.06,-0.51263 0.13345,-0.33073 0.0734,0.1819 0.0734,0.47956 0,0.66146 -0.0734,0.1819 -0.13345,0.0331 -0.13345,-0.33073 z M 52.167119,183.3652 c 0.0127,-0.30823 0.07539,-0.37092 0.159851,-0.15985 0.07643,0.19099 0.06703,0.4192 -0.02088,0.50712 -0.08792,0.0879 -0.150453,-0.0684 -0.138965,-0.34727 z m -38.364584,-0.79375 c 0.0127,-0.30823 0.07539,-0.37092 0.15985,-0.15985 0.07643,0.19099 0.06703,0.4192 -0.02088,0.50712 -0.08792,0.0879 -0.150453,-0.0684 -0.138965,-0.34727 z m 11.641667,0 c 0.0127,-0.30823 0.07539,-0.37092 0.15985,-0.15985 0.07643,0.19099 0.06703,0.4192 -0.02088,0.50712 -0.08792,0.0879 -0.150453,-0.0684 -0.138965,-0.34727 z m 46.32297,-0.63941 c 0,-0.3638 0.06005,-0.51263 0.133453,-0.33073 0.0734,0.1819 0.0734,0.47956 0,0.66146 -0.0734,0.1819 -0.133453,0.0331 -0.133453,-0.33073 z m -19.84375,-1.32292 c 0,-0.3638 0.06005,-0.51263 0.133453,-0.33073 0.0734,0.18191 0.0734,0.47956 0,0.66146 -0.0734,0.1819 -0.133453,0.0331 -0.133453,-0.33073 z m 55.562498,0 c 0,-0.3638 0.0601,-0.51263 0.13346,-0.33073 0.0734,0.18191 0.0734,0.47956 0,0.66146 -0.0734,0.1819 -0.13346,0.0331 -0.13346,-0.33073 z M 25.179618,180.1902 c 0.0127,-0.30823 0.07539,-0.37092 0.159851,-0.15985 0.07643,0.19099 0.06703,0.4192 -0.02088,0.50712 -0.08792,0.0879 -0.150452,-0.0684 -0.138964,-0.34727 z m 104.775002,0 c 0.0127,-0.30823 0.0754,-0.37092 0.15985,-0.15985 0.0764,0.19099 0.067,0.4192 -0.0209,0.50712 -0.0879,0.0879 -0.15046,-0.0684 -0.13897,-0.34727 z m -58.452031,-1.43316 c 0,-0.3638 0.06006,-0.51263 0.133453,-0.33073 0.0734,0.1819 0.0734,0.47956 0,0.66146 -0.0734,0.1819 -0.133453,0.0331 -0.133453,-0.33073 z M 13.273368,178.6027 c 0.0127,-0.30823 0.07539,-0.37092 0.159851,-0.15985 0.07643,0.19099 0.06703,0.4192 -0.02088,0.50712 -0.08792,0.0879 -0.150453,-0.0684 -0.138965,-0.34727 z m 38.38547,-0.90399 c 0,-0.36381 0.06006,-0.51263 0.133454,-0.33073 0.0734,0.1819 0.0734,0.47955 0,0.66146 -0.0734,0.1819 -0.133454,0.0331 -0.133454,-0.33073 z m 78.031202,0.11024 c 0.0127,-0.30823 0.0754,-0.37092 0.15985,-0.15985 0.0764,0.19099 0.067,0.4192 -0.0209,0.50712 -0.0879,0.0879 -0.15045,-0.0684 -0.13896,-0.34727 z m -22.4687,-1.16858 c 0,-0.3638 0.0601,-0.51263 0.13345,-0.33073 0.0734,0.18191 0.0734,0.47956 0,0.66146 -0.0734,0.1819 -0.13345,0.0331 -0.13345,-0.33073 z m -94.212556,-0.15434 c 0.01269,-0.30822 0.07539,-0.37092 0.159852,-0.15985 0.07643,0.191 0.06703,0.4192 -0.02089,0.50712 -0.08792,0.0879 -0.150453,-0.0684 -0.138964,-0.34727 z m 58.239027,-1.30087 c 0.0054,-0.43656 0.06469,-0.58312 0.131773,-0.32569 0.06708,0.25743 0.06267,0.61462 -0.0098,0.79375 -0.07248,0.17913 -0.127362,-0.0315 -0.12197,-0.46806 z m -19.853556,-0.66145 c 0,-0.36381 0.06005,-0.51263 0.133453,-0.33073 0.0734,0.1819 0.0734,0.47955 0,0.66146 -0.0734,0.1819 -0.133453,0.0331 -0.133453,-0.33073 z m 55.562505,-2.11667 c 0,-0.3638 0.0601,-0.51263 0.13345,-0.33073 0.0734,0.1819 0.0734,0.47956 0,0.66146 -0.0734,0.1819 -0.13345,0.0331 -0.13345,-0.33073 z m 22.24461,-0.26458 c 0,-0.50933 0.0545,-0.71769 0.121,-0.46302 0.0666,0.25466 0.0666,0.67138 0,0.92604 -0.0666,0.25466 -0.121,0.0463 -0.121,-0.46302 z m -78.071698,-0.79375 c 0,-0.36381 0.06005,-0.51263 0.133453,-0.33073 0.0734,0.1819 0.0734,0.47955 0,0.66146 -0.0734,0.1819 -0.133453,0.0331 -0.133453,-0.33073 z m 19.863359,-0.26459 c 0,-0.50932 0.05445,-0.71768 0.121001,-0.46302 0.06655,0.25466 0.06655,0.67138 0,0.92604 -0.06655,0.25467 -0.121001,0.0463 -0.121001,-0.46302 z m -73.330081,0.11025 c -8.539066,-106.128206 -4.2695329,-53.0641 0,0 z m 53.221747,-3.54983 c 0,-0.50932 0.05445,-0.71768 0.121002,-0.46302 0.06655,0.25466 0.06655,0.67138 0,0.92604 -0.06655,0.25466 -0.121002,0.0463 -0.121002,-0.46302 z m 55.817283,0.13229 c 0.005,-0.43656 0.0647,-0.58312 0.13177,-0.32569 0.0671,0.25743 0.0627,0.61462 -0.01,0.79375 -0.0725,0.17913 -0.12737,-0.0315 -0.12197,-0.46806 z m -35.968194,-1.5875 c 0.0029,-0.58208 0.05712,-0.78905 0.120407,-0.45993 0.06329,0.32911 0.06088,0.80536 -0.0053,1.05833 -0.06622,0.25296 -0.118004,-0.0163 -0.115067,-0.5984 z m 58.213674,-0.66146 c 0,-0.65484 0.0516,-0.92273 0.11466,-0.59531 0.0631,0.32742 0.0631,0.8632 0,1.19063 -0.0631,0.32742 -0.11466,0.0595 -0.11466,-0.59532 z M 12.016383,163.27891 c -18.1080212,-100.851232 -9.0540106,-50.42562 0,0 z M 24.4518,162.74975 c -26.3982992,-100.498459 -13.19915,-50.24923 0,0 z M 50.634403,161.956 c 0.0021,-0.72761 0.05337,-0.99386 0.114187,-0.59168 0.06082,0.40219 0.05919,0.9975 -0.0036,1.32292 -0.0628,0.32542 -0.112559,-0.004 -0.110574,-0.73124 z m 55.802997,0.52916 c 0.005,-0.43656 0.0647,-0.58312 0.13177,-0.32569 0.0671,0.25743 0.0627,0.61462 -0.01,0.79375 -0.0725,0.17913 -0.12736,-0.0315 -0.12197,-0.46806 z M -9.7453835,162.19853 c -3.6001765,-100.130979 -1.8000885,-50.06549 0,0 z m 80.2235375,-2.88837 c 0.0021,-0.7276 0.05337,-0.99385 0.114186,-0.59167 0.06082,0.40218 0.05919,0.99749 -0.0036,1.32292 -0.0628,0.32542 -0.112559,-0.004 -0.110575,-0.73125 z m -80.488121,0.50712 c -3.423788,-98.543479 -1.711894,-49.27174 0,0 z m 6.6452758,-1.03628 c -7.8539718,-97.852626 -3.9269859,-48.92631 0,0 z M 128.68649,157.72266 c 0.002,-0.7276 0.0534,-0.99385 0.11419,-0.59167 0.0608,0.40218 0.0592,0.99749 -0.004,1.32292 -0.0628,0.32542 -0.11256,-0.004 -0.11058,-0.73125 z m -22.49854,-1.32291 c 0.003,-0.58209 0.0571,-0.78906 0.12041,-0.45994 0.0633,0.32912 0.0609,0.80537 -0.005,1.05834 -0.0662,0.25296 -0.11801,-0.0163 -0.11507,-0.5984 z m -109.8172245,-1.5875 c -7.6775825,-95.206792 -3.8387914,-47.6034 0,0 z m 27.8164905,-2.64584 c -26.2219099,-93.442899 -13.110955,-46.72145 0,0 z m 26.216754,-5.42395 c 0,-2.69214 0.03929,-3.79347 0.08731,-2.4474 0.04802,1.34607 0.04802,3.54872 0,4.89479 -0.04802,1.34607 -0.08731,0.24474 -0.08731,-2.44739 z m -18.29629,3.24972 c -31.5022192,-91.993412 -15.75111,-45.99671 0,0 z m 73.83095,-2.0591 c 0.002,-0.87312 0.0509,-1.19841 0.10977,-0.72286 0.0589,0.47554 0.0577,1.18992 -0.003,1.5875 -0.0604,0.39757 -0.10855,0.008 -0.10707,-0.86464 z m -35.687621,-4.89479 c 0,-3.27422 0.03798,-4.61367 0.0844,-2.97656 0.04642,1.63711 0.04642,4.31601 0,5.95312 -0.04642,1.63711 -0.0844,0.29766 -0.0844,-2.97656 z m -63.9273062,4.31718 c 0.1909961,-0.0764 0.4191992,-0.067 0.5071182,0.0209 0.087919,0.0879 -0.068351,0.15045 -0.3472657,0.13897 -0.3082245,-0.0127 -0.3709194,-0.0754 -0.1598525,-0.15985 z M 128.46447,139.06954 c 0,-4.72943 0.0359,-6.66419 0.0797,-4.29948 0.0439,2.36471 0.0439,6.23424 0,8.59896 -0.0439,2.36471 -0.0797,0.42995 -0.0797,-4.29948 z M 4.4716194,147.09088 c 0.1909961,-0.0764 0.4191992,-0.067 0.5071182,0.0209 0.087919,0.0879 -0.068351,0.15045 -0.3472657,0.13896 -0.3082245,-0.0127 -0.3709193,-0.0754 -0.1598525,-0.15985 z m -1.7446324,-0.0837 c -11.9150905,-90.003446 -5.9575453,-45.00172 0,0 z m -13.235428,-13.36165 c -3.091472,-81.095646 -1.545736,-40.547823 0,0 z m 6.8791665,0 c -7.6775825,-81.095679 -3.8387914,-40.54784 0,0 z m 15.0812505,-2.91042 c -17.7317499,-79.155399 -8.8658749,-39.5777 0,0 z M 50.64555,128.6185 c 0.0011,-1.01865 0.049,-1.40295 0.106273,-0.854 0.05727,0.54895 0.05631,1.38239 -0.0021,1.85208 -0.05845,0.4697 -0.105312,0.0206 -0.104137,-0.99808 z m 77.70068,0.80936 c 0,-0.20969 0.10796,-0.44798 0.23991,-0.52953 0.13195,-0.0815 0.17759,0.09 0.10143,0.38126 -0.16155,0.6178 -0.34134,0.69589 -0.34134,0.14827 z M 27.804563,129.21857 c -28.63347453,-78.144339 -14.316737,-39.07217 0,0 z m 4.7625,-0.26458 c -31.80847453,-77.967952 -15.904237,-38.983976 0,0 z m -42.57703,-1.68046 c -3.423788,-76.847646 -1.711894,-38.423823 0,0 z m 80.494434,-1.56545 c 0.0016,-0.87312 0.05088,-1.19841 0.109765,-0.72287 0.05889,0.47555 0.05767,1.18993 -0.0027,1.5875 -0.06037,0.39758 -0.10855,0.008 -0.107066,-0.86463 z m -58.637104,0.8599 c -17.9953412,-76.377279 -8.9976706,-38.18864 0,0 z m -21.5927465,-1.6757 c -3.6001765,-75.260146 -1.8000885,-37.630073 0,0 z M 105.93593,122.40079 c 0,-0.80037 0.0496,-1.12779 0.11023,-0.72761 0.0606,0.40019 0.0606,1.05503 0,1.45521 -0.0606,0.40018 -0.11023,0.0728 -0.11023,-0.7276 z m -115.4167302,0.37483 c -3.7765658,-73.849039 -1.8882828,-36.92452 0,0 z m 33.9424132,-2.35921 c -26.4048412,-72.276232 -13.202421,-36.138116 0,0 z m 104.224877,0.79375 c 0.002,-0.7276 0.0534,-0.99385 0.11419,-0.59167 0.0608,0.40218 0.0592,0.99749 -0.004,1.32292 -0.0628,0.32542 -0.11256,-0.004 -0.11058,-0.73125 z m -77.791115,-0.92604 c 0,-0.65484 0.0516,-0.92273 0.114663,-0.59531 0.06307,0.32742 0.06307,0.8632 0,1.19062 -0.06306,0.32743 -0.114663,0.0595 -0.114663,-0.59531 z m 19.847362,-2.51354 c 0.0021,-0.7276 0.05337,-0.99386 0.114187,-0.59167 0.06082,0.40218 0.05919,0.99749 -0.0036,1.32291 -0.0628,0.32542 -0.112559,-0.004 -0.110574,-0.73124 z m -73.079787,0.24254 c -8.539066,-70.674039 -4.2695329,-35.33702 0,0 z m 108.51966,-3.02067 c 0,-0.50932 0.0545,-0.71768 0.12101,-0.46302 0.0665,0.25467 0.0665,0.67138 0,0.92605 -0.0665,0.25466 -0.12101,0.0463 -0.12101,-0.46303 z m 22.75417,-0.26458 c 0,-0.50932 0.0545,-0.71768 0.121,-0.46302 0.0665,0.25466 0.0665,0.67138 0,0.92604 -0.0666,0.25466 -0.121,0.0463 -0.121,-0.46302 z m -77.782161,-0.66146 c 0.0029,-0.58208 0.05712,-0.78905 0.120407,-0.45993 0.06329,0.32912 0.06088,0.80537 -0.0053,1.05833 -0.06622,0.25297 -0.118004,-0.0163 -0.115067,-0.5984 z m 19.843751,-2.64583 c 0.0029,-0.58208 0.05712,-0.78905 0.120406,-0.45994 0.06329,0.32912 0.06088,0.80537 -0.0053,1.05834 -0.06622,0.25296 -0.118004,-0.0163 -0.115067,-0.5984 z m 35.43903,-1.5875 c 0.005,-0.43656 0.0647,-0.58313 0.13177,-0.32569 0.0671,0.25743 0.0627,0.61461 -0.01,0.79375 -0.0725,0.17913 -0.12736,-0.0315 -0.12197,-0.46806 z m 22.75416,0 c 0.005,-0.43656 0.0647,-0.58313 0.13178,-0.32569 0.0671,0.25743 0.0627,0.61461 -0.01,0.79375 -0.0725,0.17913 -0.12736,-0.0315 -0.12197,-0.46806 z m -77.777697,-0.92604 c 0,-0.50932 0.05445,-0.71768 0.121002,-0.46302 0.06655,0.25466 0.06655,0.67138 0,0.92604 -0.06655,0.25466 -0.121002,0.0463 -0.121002,-0.46302 z m 19.843751,-2.64584 c 0,-0.50932 0.05445,-0.71768 0.121002,-0.46302 0.06655,0.25467 0.06655,0.67138 0,0.92605 -0.06655,0.25466 -0.121002,0.0463 -0.121002,-0.46303 z m 35.434556,-0.52916 c 0,-0.3638 0.0601,-0.51263 0.13346,-0.33073 0.0734,0.1819 0.0734,0.47956 0,0.66146 -0.0734,0.1819 -0.13346,0.0331 -0.13346,-0.33073 z m 22.75417,0 c 0,-0.3638 0.0601,-0.51263 0.13345,-0.33073 0.0734,0.1819 0.0734,0.47956 0,0.66146 -0.0734,0.1819 -0.13345,0.0331 -0.13345,-0.33073 z m -77.777696,-1.19063 c 0.0054,-0.43656 0.06469,-0.58312 0.131773,-0.32569 0.06708,0.25743 0.06267,0.61462 -0.0098,0.79375 -0.07248,0.17913 -0.127363,-0.0315 -0.12197,-0.46806 z m -38.130693,-1.87413 c -19.1223999,-60.443479 -9.5611999,-30.22174 0,0 z m 57.964638,-0.37483 c 0,-0.3638 0.06006,-0.51263 0.133453,-0.33072 0.0734,0.1819 0.0734,0.47955 0,0.66145 -0.0734,0.1819 -0.133453,0.0331 -0.133453,-0.33073 z m 58.208331,0 c 0,-0.3638 0.0601,-0.51263 0.13346,-0.33072 0.0734,0.1819 0.0734,0.47955 0,0.66145 -0.0734,0.1819 -0.13346,0.0331 -0.13346,-0.33073 z m -22.77505,-0.15433 c 0.0127,-0.30823 0.0754,-0.37092 0.15985,-0.15986 0.0764,0.191 0.067,0.4192 -0.0209,0.50712 -0.0879,0.0879 -0.15046,-0.0684 -0.13897,-0.34726 z m -55.012448,-1.43317 c 0,-0.3638 0.06005,-0.51263 0.133453,-0.33072 0.0734,0.1819 0.0734,0.47955 0,0.66145 -0.0734,0.1819 -0.133453,0.0331 -0.133453,-0.33073 z m -38.120887,-0.6835 c -19.2987892,-58.679592 -9.6493946,-29.339796 0,0 z m 57.964637,-0.639412 c 0,-0.363802 0.06005,-0.51263 0.133453,-0.330729 0.0734,0.181901 0.0734,0.479557 0,0.661458 -0.0734,0.181901 -0.133453,0.03307 -0.133453,-0.330729 z m 58.187448,-0.15434 c 0.0127,-0.308226 0.0754,-0.370919 0.15985,-0.159853 0.0764,0.190995 0.067,0.419201 -0.0209,0.507119 -0.0879,0.08792 -0.15046,-0.06835 -0.13897,-0.347266 z m -22.75417,-0.264583 c 0.0127,-0.308226 0.0754,-0.370919 0.15985,-0.159853 0.0764,0.190995 0.067,0.4192 -0.0209,0.507119 -0.0879,0.08792 -0.15045,-0.06835 -0.13897,-0.347266 z M 52.188005,97.265371 c 0,-0.363802 0.06006,-0.51263 0.133453,-0.330729 0.0734,0.181901 0.0734,0.479557 0,0.661458 -0.0734,0.181901 -0.133453,0.03307 -0.133453,-0.330729 z m 19.822864,-0.683506 c 0.0127,-0.308226 0.07539,-0.370919 0.159851,-0.159853 0.07643,0.190995 0.06703,0.4192 -0.02088,0.507119 -0.08792,0.08792 -0.150452,-0.06835 -0.138964,-0.347266 z M 130.2192,96.317282 c 0.0127,-0.308227 0.0754,-0.37092 0.15985,-0.159854 0.0764,0.190995 0.067,0.419201 -0.0209,0.507119 -0.0879,0.08792 -0.15045,-0.06835 -0.13897,-0.347265 z M 52.431702,94.200615 c 0.0127,-0.308226 0.07539,-0.370919 0.159851,-0.159853 0.07643,0.190994 0.06703,0.4192 -0.02088,0.507119 -0.08792,0.08792 -0.150452,-0.06835 -0.138964,-0.347266 z m 19.843751,-0.264583 c 0.0127,-0.308227 0.07539,-0.37092 0.15985,-0.159854 0.07643,0.190995 0.06703,0.419201 -0.02088,0.507119 -0.08792,0.08792 -0.150453,-0.06835 -0.138965,-0.347265 z m 58.208337,-0.264584 c 0.0127,-0.308226 0.0754,-0.370919 0.15985,-0.159853 0.0764,0.190995 0.067,0.419201 -0.0209,0.507119 -0.0879,0.08792 -0.15045,-0.06835 -0.13896,-0.347266 z M 26.641506,92.431214 c -27.8581032,-53.619435 -13.929052,-26.809718 0,0 z m 26.05478,-0.876432 c 0.0127,-0.308227 0.07539,-0.37092 0.15985,-0.159854 0.07643,0.190995 0.06703,0.419201 -0.02087,0.507119 -0.08792,0.08792 -0.150453,-0.06835 -0.138965,-0.347265 z m 19.84375,0 c 0.0127,-0.308227 0.07539,-0.37092 0.159851,-0.159854 0.07643,0.190995 0.06703,0.419201 -0.02088,0.507119 -0.08792,0.08792 -0.150453,-0.06835 -0.138964,-0.347265 z m 58.208334,-0.264584 c 0.0127,-0.308226 0.0754,-0.370919 0.15985,-0.159853 0.0764,0.190995 0.067,0.419201 -0.0209,0.507119 -0.0879,0.08792 -0.15046,-0.06835 -0.13897,-0.347266 z m -103.981252,-1.5875 c -27.9418445,-51.800424 -13.970922,-25.900212 0,0 z m 26.193751,-0.529166 c 0.0127,-0.308227 0.07539,-0.37092 0.159851,-0.159854 0.07643,0.190995 0.06703,0.419201 -0.02088,0.507119 -0.08792,0.08792 -0.150453,-0.06835 -0.138965,-0.347265 z m 19.84375,-0.264584 c 0.0127,-0.308226 0.07539,-0.370919 0.159851,-0.159853 0.07643,0.190995 0.06703,0.4192 -0.02088,0.507119 -0.08792,0.08792 -0.150452,-0.06835 -0.138964,-0.347266 z m 35.454171,0 c 0.0127,-0.308226 0.0754,-0.370919 0.15985,-0.159853 0.0764,0.190995 0.067,0.4192 -0.0209,0.507119 -0.0879,0.08792 -0.15045,-0.06835 -0.13896,-0.347266 z M 27.031702,87.586032 c -28.1182339,-50.389314 -14.059117,-25.194657 0,0 z m 46.037501,-1.058334 c 0.0127,-0.308226 0.07539,-0.370919 0.15985,-0.159853 0.07643,0.190995 0.06703,0.4192 -0.02087,0.507119 -0.08792,0.08792 -0.150453,-0.06835 -0.138965,-0.347266 z m 0.264583,-2.645833 c 0.0127,-0.308227 0.07539,-0.37092 0.159851,-0.159854 0.07643,0.190995 0.06703,0.419201 -0.02088,0.507119 -0.08792,0.08792 -0.150453,-0.06835 -0.138964,-0.347265 z m -16.739249,-0.82015 c 0.190995,-0.07643 0.419201,-0.06703 0.507119,0.02087 0.08792,0.08792 -0.06835,0.150453 -0.347265,0.138965 -0.308227,-0.0127 -0.37092,-0.07539 -0.159854,-0.159851 z m 2.629297,-0.259072 c 0.181901,-0.0734 0.479558,-0.0734 0.661459,0 0.181901,0.0734 0.03307,0.133453 -0.330729,0.133453 -0.363803,0 -0.512631,-0.06006 -0.33073,-0.133453 z m 2.910417,-0.264584 c 0.181901,-0.0734 0.479557,-0.0734 0.661458,0 0.181902,0.0734 0.03307,0.133453 -0.330729,0.133453 -0.363802,0 -0.51263,-0.06006 -0.330729,-0.133453 z m 2.910417,-0.264583 c 0.181901,-0.0734 0.479557,-0.0734 0.661458,0 0.181901,0.0734 0.03307,0.133453 -0.330729,0.133453 -0.363802,0 -0.51263,-0.06006 -0.330729,-0.133453 z m 2.910417,-0.264583 c 0.181901,-0.0734 0.479557,-0.0734 0.661458,0 0.181901,0.0734 0.03307,0.133453 -0.330729,0.133453 -0.363802,0 -0.51263,-0.06006 -0.330729,-0.133453 z m 3.175,-0.264584 c 0.181901,-0.0734 0.479557,-0.0734 0.661458,0 0.181901,0.0734 0.03307,0.133453 -0.330729,0.133453 -0.363802,0 -0.51263,-0.06006 -0.330729,-0.133453 z M 56.859121,73.007548 c 0.190995,-0.07643 0.4192,-0.06703 0.507119,0.02088 0.08792,0.08792 -0.06835,0.150453 -0.347266,0.138965 -0.308226,-0.0127 -0.370919,-0.07539 -0.159853,-0.159851 z m 2.38125,-0.264584 c 0.190995,-0.07643 0.4192,-0.06703 0.507119,0.02088 0.08792,0.08792 -0.06835,0.150453 -0.347266,0.138964 -0.308226,-0.0127 -0.370919,-0.07539 -0.159853,-0.15985 z m 2.116667,-0.264583 c 0.190994,-0.07643 0.4192,-0.06703 0.507119,0.02088 0.08792,0.08792 -0.06835,0.150452 -0.347266,0.138964 -0.308226,-0.0127 -0.37092,-0.07539 -0.159853,-0.159851 z m 2.38125,-0.264583 c 0.190994,-0.07643 0.4192,-0.06703 0.507119,0.02088 0.08792,0.08792 -0.06835,0.150453 -0.347266,0.138965 -0.308226,-0.0127 -0.370919,-0.07539 -0.159853,-0.159851 z m 2.116666,-0.264584 c 0.190995,-0.07643 0.419201,-0.06703 0.507119,0.02088 0.08792,0.08792 -0.06835,0.150453 -0.347265,0.138964 -0.308227,-0.0127 -0.37092,-0.07539 -0.159854,-0.15985 z m 2.38125,-0.264583 c 0.190995,-0.07643 0.419201,-0.06703 0.507119,0.02088 0.08792,0.08792 -0.06835,0.150452 -0.347265,0.138964 -0.308227,-0.0127 -0.37092,-0.07539 -0.159854,-0.159851 z m 2.116667,-0.264583 c 0.190995,-0.07643 0.419201,-0.06703 0.507119,0.02088 0.08792,0.08792 -0.06835,0.150453 -0.347266,0.138965 -0.308226,-0.0127 -0.370919,-0.07539 -0.159853,-0.159851 z m 2.38125,-0.264584 c 0.190995,-0.07643 0.419201,-0.06703 0.507119,0.02088 0.08792,0.08792 -0.06835,0.150453 -0.347266,0.138964 -0.308226,-0.0127 -0.370919,-0.07539 -0.159853,-0.15985 z m 2.116667,-0.264583 c 0.190995,-0.07643 0.4192,-0.06703 0.507119,0.02088 0.08792,0.08792 -0.225131,0.164024 -0.347266,0.138964 -0.07382,-0.01515 -0.370919,-0.07539 -0.159853,-0.159851 z M 29.921229,52.715474 c -30.0445852,-27.142275 -15.022293,-13.571138 0,0 z m 2.513542,-2.545937 c -31.72027987,-25.444984 -15.86014,-12.722492 0,0 z m 6.78063,-6.813017 c -36.2406999,-20.902972 -18.12035,-10.451486 0,0 z m 53.99401,-7.935872 c 10e-7,0 -10e-7,-3e-6 0,-3e-6 z m 57.361819,-9.163507 c 0,-0.05494 0.20836,-0.263301 0.46302,-0.463021 0.41965,-0.329107 0.42901,-0.319749 0.0999,0.0999 -0.34564,0.440729 -0.56292,0.580887 -0.56292,0.363126 z m -80.16875,-0.79375 c -57.032086,-8.97422 -28.516043,-4.48711 0,0 z m 20.637501,-4.745396 c -70.79042,-5.810622 -35.39521,-2.905311 0,0 z m 30.642059,-3.537533 c 0.19099,-0.07643 0.4192,-0.06703 0.50712,0.02089 0.0879,0.08792 -0.0683,0.150453 -0.34727,0.138964 -0.30822,-0.0127 -0.37092,-0.07539 -0.15985,-0.159852 z M 94.959122,16.915878 c -73.403181,-3.275878 -36.70159,-1.637939 0,0 z m 23.531378,0.0055 c 0.1819,-0.0734 0.47956,-0.0734 0.66146,0 0.1819,0.0734 0.0331,0.133452 -0.33073,0.133452 -0.3638,0 -0.51263,-0.06005 -0.33073,-0.133452 z m -4.63021,-0.271739 c 0.25467,-0.06655 0.67138,-0.06655 0.92605,0 0.25466,0.06655 0.0463,0.121 -0.46303,0.121 -0.50932,0 -0.71768,-0.05445 -0.46302,-0.121 z m 14.70092,-2.115023 c 0.19099,-0.07643 0.4192,-0.06703 0.50711,0.02089 0.0879,0.08792 -0.0684,0.150452 -0.34726,0.138964 -0.30823,-0.0127 -0.37092,-0.07539 -0.15985,-0.159852 z m -3.72071,-0.259071 c 0.1819,-0.0734 0.47956,-0.0734 0.66146,0 0.1819,0.0734 0.0331,0.133452 -0.33073,0.133452 -0.3638,0 -0.51263,-0.06005 -0.33073,-0.133452 z M 114.65404,13.99 c 0.98227,-0.05091 2.58961,-0.05091 3.57188,0 0.98226,0.05091 0.17859,0.09256 -1.78594,0.09256 -1.96453,0 -2.7682,-0.04165 -1.78594,-0.09256 z"
         id="path48"
         sodipodi:nodetypes="ssssscsssscssscsssscssssssssssssssssssssssssssssssssssssssssssssssssscsssscssssssssssssssscsscssssscsscssssssssssccssssssssssssssssssssssssssssssssssssssssssssssssssssssssssssssssssssssssssccccccsscssssssssssssssssssssssssssscsssssssssssssssssssssssssssssssssssssssssssssssssssssssssscssssssssssssssssscssscssssssssssccsssscsccccscccssssccccssssscscccccssssscccccsccccscccccccsssscccscccsssssssssscssssssscccccccccscccscssccccccsssssccccsssscccccscccsssssssssccsssssscscsccccscccccccccscccssssssssscssscsssssssccssssscsssssssssssccsssssssssssssssssssssssssssssssssssssssssssccsssssssssssssssccsssssssssssssssccsssssssssssssssssssssssssssssssssssssssssssssssssssssssssssssssssssssssssssssasscccccccccsssssccccsssssccsssssssssssssssssssss" />
      <path
         style="fill:#fd5631;stroke-width:0.264583"
         d="m 186.87635,238.44286 c -3.53048,-1.14816 -8.02347,-6.73799 -10.97966,-13.66003 -3.25205,-7.61482 -7.99394,-26.38931 -9.82046,-38.88204 -0.43039,-2.9437 -0.95291,-8.83438 -0.95291,-10.74267 v -1.14083 l 3.37343,-1.05247 c 6.39673,-1.99572 15.44055,-4.58616 15.56764,-4.45907 0.0701,0.0701 0.36571,2.07786 0.65697,4.46174 2.75376,22.53869 6.42324,36.68222 11.49443,44.30375 2.59421,3.89886 4.6815,5.26494 8.77676,5.74417 1.35525,0.1586 2.4641,0.37385 2.4641,0.47836 0,0.99613 -7.66458,9.05125 -11.59506,12.18588 -3.28917,2.62316 -6.43813,3.59156 -8.98524,2.76321 z m 38.99749,-47.90519 c -2.40097,-0.85569 -4.2148,-3.61668 -6.21983,-9.46773 -3.28729,-9.5929 -4.92568,-21.04611 -5.23232,-36.57644 -0.41924,-21.23364 2.2086,-39.40228 7.19995,-49.779712 1.47748,-3.071824 3.69437,-4.87194 5.97404,-4.85094 1.71482,0.0158 3.88,1.753754 5.38567,4.322998 2.44298,4.168619 4.93199,12.806404 6.09457,21.150364 1.71446,12.30491 1.95595,34.20397 0.50812,46.07809 -0.85034,6.97395 -2.23098,13.57101 -3.96912,18.96558 -2.72956,8.47153 -5.72071,11.59063 -9.74108,10.15779 z m -61.11276,-33.5239 c -0.0974,-3.68469 -0.25129,-7.97936 -0.34197,-9.54371 l -0.16486,-2.84427 h -10.69547 -10.69547 l 0.18483,-9.98802 c 0.10166,-5.49341 0.20691,-10.01595 0.2339,-10.05008 0.027,-0.0341 4.61761,0.23817 10.20138,0.6051 5.58378,0.36692 10.33811,0.63136 10.56517,0.58763 0.35083,-0.0676 0.49743,-1.42218 0.97582,-9.01716 0.30963,-4.9157 0.60846,-8.98314 0.66405,-9.03873 0.0556,-0.0556 4.14814,0.95833 9.09453,2.25317 4.9464,1.29485 9.09967,2.35756 9.2295,2.36159 0.22226,0.007 0.11119,5.35366 -0.27545,13.26024 l -0.16289,3.33103 8.50996,1.02411 c 4.68048,0.56325 8.62937,1.0979 8.77532,1.1881 0.27037,0.1671 -0.0701,11.77184 -0.35366,12.05543 -0.0761,0.0761 -3.8416,0.20907 -8.36772,0.29543 l -8.22932,0.15701 v 8.14174 8.14172 l -1.38906,0.28302 c -0.76398,0.15565 -4.78234,0.94504 -8.92969,1.75419 -4.14734,0.80915 -7.79063,1.5321 -8.09621,1.60654 -0.54989,0.13398 -0.5574,0.0667 -0.73269,-6.56408 z m 16.23724,-52.37031 c -2.4011,-0.857 -6.61001,-2.30212 -9.35315,-3.21136 l -4.98752,-1.653187 0.17395,-1.852083 c 0.61031,-6.498188 2.47632,-16.415267 4.8042,-25.532293 2.19522,-8.597511 3.73757,-13.336424 5.64843,-17.354989 1.90317,-4.002398 3.29553,-6.077011 5.67928,-8.462159 3.29179,-3.293711 6.55287,-4.293648 9.54113,-2.925575 3.98166,1.822861 9.89885,7.410212 13.24821,12.509707 0.64605,0.983626 1.17463,1.927442 1.17463,2.097371 0,0.182202 -0.66942,0.384699 -1.63167,0.493564 -3.32088,0.375714 -5.57404,1.581841 -7.34687,3.932822 -4.14791,5.500603 -7.23285,14.07852 -9.77198,27.17176 -0.856,4.414025 -2.03786,11.799102 -2.31954,14.494152 -0.0955,0.91402 -0.24565,1.70429 -0.33359,1.75616 -0.0879,0.0519 -2.12442,-0.60688 -4.52551,-1.46389 z"
         id="path46" />
      <path
         style="fill:#c6003a;stroke-width:0.264583"
         d="m 133.70577,264.36014 c -0.9202,-0.42842 -2.32354,-1.56343 -4.16777,-3.37085 -1.52924,-1.49873 -2.78018,-2.85465 -2.77986,-3.01317 2.7e-4,-0.15852 0.8638,-0.53139 1.91882,-0.8286 1.05503,-0.29722 5.72264,-1.64434 10.37248,-2.9936 l 8.45425,-2.4532 1.19163,1.42972 c 3.18884,3.82602 5.75397,5.58066 8.69574,5.9482 l 1.45512,0.18181 -0.89633,0.3793 c -0.49298,0.20861 -2.69025,1.01835 -4.88283,1.79941 -7.24417,2.58059 -11.57224,3.57372 -15.55575,3.56946 -2.00508,-0.002 -2.65515,-0.11292 -3.8055,-0.64848 z m -13.03472,-20.7099 c -1.3812,-3.84754 -2.57081,-7.02408 -2.64357,-7.05898 -0.0728,-0.0349 -5.24775,0.3865 -11.49998,0.93643 -6.25223,0.54993 -11.388951,0.97581 -11.414938,0.94638 -0.02598,-0.0294 -0.992151,-3.94441 -2.147028,-8.69998 l -2.099776,-8.64649 1.211591,-0.1458 c 0.666374,-0.0802 5.676434,-0.46315 11.133461,-0.851 5.45704,-0.38785 9.9757,-0.75155 10.04149,-0.80821 0.0658,-0.0567 -0.61312,-4.58921 -1.50867,-10.07232 -0.89555,-5.48311 -1.60422,-9.99155 -1.57482,-10.01876 0.0294,-0.0272 4.6969,-0.53925 10.37221,-1.13789 5.67532,-0.59864 10.68712,-1.14805 11.13735,-1.22092 l 0.8186,-0.13248 1.56265,8.75913 c 0.85946,4.81752 1.63187,8.87185 1.71647,9.00963 0.0872,0.14209 4.66365,-1.07184 10.57407,-2.80485 5.73114,-1.68044 10.53809,-3.01607 10.6821,-2.96806 0.21505,0.0717 3.93356,14.23019 3.7747,14.37246 -0.0271,0.0243 -4.69271,1.79795 -10.36802,3.94152 -5.67531,2.14357 -10.4166,3.98602 -10.53619,4.09432 -0.11959,0.10831 0.96931,3.25679 2.41978,6.99662 1.67124,4.30905 2.52619,6.83682 2.3341,6.90106 -0.16671,0.0558 -4.70842,1.24544 -10.09269,2.64375 -5.38427,1.39831 -10.14779,2.63635 -10.5856,2.75118 l -0.79602,0.2088 z m -12.69774,-57.73067 c 0,-0.26377 -0.17446,-2.90599 -0.3877,-5.87158 -3.94078,-54.80608 -1.13121,-96.83513 8.71663,-130.394282 2.32903,-7.936781 6.07712,-18.494738 6.64271,-18.711776 0.27783,-0.106613 20.14737,4.745365 21.06084,5.142884 0.39362,0.171289 0.21456,0.815862 -1.52386,5.485762 -6.29893,16.920671 -9.58317,31.063825 -11.73506,50.535418 -1.73585,15.706924 -2.4091,30.722574 -2.25993,50.403124 0.1286,16.96604 0.53558,27.84347 1.32793,35.49154 0.35641,3.44029 0.64803,6.36953 0.64803,6.50941 0,0.13987 -1.0418,0.33488 -2.31511,0.43334 -2.04255,0.15795 -13.49452,0.98641 -18.38854,1.33028 -1.59417,0.112 -1.78594,0.074 -1.78594,-0.35412 z M 168.7405,33.624546 c -4.15829,-2.638211 -15.823,-8.590427 -16.83488,-8.590427 -0.13326,0 -1.39824,1.398985 -2.81108,3.108855 -1.41283,1.709869 -2.70284,3.142097 -2.86668,3.182727 -0.30878,0.07657 -20.7807,-5.398289 -20.99794,-5.615535 -0.0675,-0.0675 0.96706,-1.691994 2.29904,-3.609982 1.33198,-1.917988 2.36728,-3.54175 2.30067,-3.60836 -0.22564,-0.225642 -5.83153,-1.090973 -9.02402,-1.392958 -1.74625,-0.165182 -5.23089,-0.38209 -7.74364,-0.482018 l -4.56863,-0.181687 1.9228,-1.157396 1.9228,-1.157396 7.54063,0.144984 c 15.28748,0.293933 27.08692,2.471398 36.19631,6.679655 3.85082,1.778961 16.07703,8.71694 19.75481,11.210214 l 0.78549,0.532511 -2.2407,1.032038 c -3.3545,1.545037 -3.04129,1.55033 -5.63498,-0.09522 z"
         id="path44" />
      <path
         style="fill:#8e0c3c;stroke-width:0.264583"
         d="m 94.103803,265.26269 c -7.582196,-1.28273 -10.339229,-2.03728 -14.150166,-3.8726 -2.711122,-1.30566 -3.262474,-1.69819 -5.445365,-3.87676 -10.130619,-10.11053 -17.690246,-34.01867 -21.555944,-68.17296 -2.032839,-17.96059 -2.50126,-27.9438 -2.309087,-49.2125 0.150248,-16.62904 0.321402,-21.94507 1.120174,-34.79271 0.564475,-9.079188 1.775412,-21.408882 2.142318,-21.812962 0.152916,-0.16841 19.455543,-1.907058 19.597402,-1.765199 0.06511,0.06511 -0.306543,4.206203 -0.825889,9.202436 -1.503762,14.466535 -1.826945,20.151155 -2.28855,40.254175 -0.73038,31.80831 1.353484,60.41402 6.132933,84.18822 3.885906,19.32949 8.607002,32.67721 14.926533,42.20105 2.242029,3.37884 5.116637,6.21666 8.493665,8.38496 0.269973,0.17334 0.431333,0.31193 0.358573,0.30798 -0.0728,-0.004 -2.86123,-0.46887 -6.196597,-1.03313 z M 55.448886,72.592975 c 0.695013,-3.003878 3.571605,-17.599899 3.516112,-17.840982 -0.04541,-0.197287 -3.23935,0.88745 -8.670851,2.944821 -4.729428,1.791435 -8.643663,3.216812 -8.698302,3.167504 -0.171961,-0.155178 3.211846,-12.399349 3.514905,-12.718545 0.158731,-0.167185 4.364141,-2.057397 9.345351,-4.20047 l 9.056748,-3.896497 2.805523,-5.456823 c 1.543037,-3.001252 2.898389,-5.553709 3.01189,-5.672126 0.210992,-0.220129 19.332406,-4.199042 19.618619,-4.082376 0.08682,0.03539 -0.832101,2.386065 -2.042052,5.223722 -1.209947,2.837656 -2.203717,5.268019 -2.208376,5.400807 -0.0051,0.144451 4.572108,0.173206 11.394832,0.07158 9.210995,-0.137195 11.378315,-0.104736 11.273345,0.168836 -0.0715,0.186277 -1.04167,3.30922 -2.15597,6.939876 -1.11429,3.630655 -2.1484,6.988143 -2.29802,7.461086 l -0.27203,0.859896 H 91.156795 79.672978 l -0.142221,0.595312 c -0.07822,0.327422 -0.97218,4.751298 -1.986574,9.830838 -1.014392,5.079539 -1.892821,9.283996 -1.952062,9.343239 -0.08735,0.08735 -19.379523,2.444501 -20.077494,2.453103 -0.111913,0.0013 -0.141496,-0.265382 -0.06574,-0.592804 z m 14.689011,-46.45121 c 0,-0.464905 2.280137,-2.348119 4.023376,-3.322994 4.486786,-2.509153 13.313694,-4.960956 20.97975,-5.827432 l 1.322916,-0.149526 -1.547423,0.841571 c -1.516536,0.824773 -3.684813,2.691123 -4.436081,3.818368 -0.3272,0.490949 -1.716159,0.847055 -10.162331,2.605454 -5.380832,1.120228 -9.872629,2.091742 -9.981769,2.158919 -0.109141,0.06718 -0.198438,0.01122 -0.198438,-0.12436 z"
         id="path42" />
      <path
         style="fill:#561843;stroke-width:0.264583"
         d="m 39.44623,238.24239 c -6.0504,-5.25227 -10.882316,-10.69095 -13.857463,-15.59761 -4.061566,-6.69841 -7.253081,-16.06513 -9.805585,-28.77824 -0.953961,-4.75134 -2.968506,-18.99322 -2.721564,-19.24017 0.1,-0.1 11.554416,4.20261 12.022409,4.51597 0.03167,0.0212 0.366353,3.06858 0.743733,6.77194 1.220933,11.98146 2.472656,19.01498 4.993209,28.05725 1.656117,5.94118 3.050252,9.85175 5.190591,14.5597 1.361455,2.99468 4.469672,8.96906 5.867688,11.27842 0.286306,0.47294 0.481081,0.8564 0.432832,0.85214 -0.04825,-0.004 -1.337882,-1.093 -2.86585,-2.4194 z M 1.7789817,197.72168 c -1.74347055,-2.34886 -3.7864945,-6.02997 -5.0235002,-9.05132 -2.8921642,-7.06401 -5.4700171,-18.35201 -6.6748116,-29.2279 C -10.95601,136.45691 -11.145571,107.0402 1.8465693,88.739647 2.3552898,88.05232 2.8036284,87.522076 2.8428774,87.561325 c 0.039249,0.03925 -0.1030607,0.720669 -0.3162437,1.514266 -1.90441746,7.089404 -3.8871481,19.642819 -5.1381307,32.531449 -1.6793996,17.30252 -1.7262737,25.13554 -0.2564963,42.8625 1.0428697,12.57804 2.23114712,20.20857 4.7174603,30.29322 0.5738239,2.32746 1.021488,4.25358 0.9948088,4.28026 -0.026679,0.0267 -0.5060612,-0.56792 -1.0652941,-1.32134 z m 16.3397723,-30.80535 -5.849349,-1.73731 -0.169921,-2.77715 c -0.09346,-1.52743 -0.169922,-5.32221 -0.169922,-8.43284 0,-4.86103 -0.05754,-5.67776 -0.409557,-5.81284 -0.225256,-0.0864 -2.2790846,-0.41702 -4.5640626,-0.73461 l -4.1545053,-0.57745 -0.07048,-6.89993 -0.07048,-6.89993 3.774647,-0.70001 c 2.0760555,-0.385 4.0805569,-0.76046 4.4544459,-0.83435 l 0.6798,-0.13433 0.461992,-8.64985 c 0.254095,-4.75741 0.483966,-8.67043 0.510825,-8.6956 0.02686,-0.0252 1.239459,-0.46269 2.694667,-0.97227 1.455208,-0.50959 4.172199,-1.47128 6.03776,-2.1371 l 3.391924,-1.21058 -0.190653,9.78489 -0.190654,9.78489 h 1.240724 c 1.243248,0 8.550598,-0.38981 12.39892,-0.66142 l 2.050521,-0.14472 v 10.89028 10.89028 L 34.353,150.08021 c -3.092317,-0.0958 -6.674765,-0.24733 -7.960992,-0.33673 l -2.338597,-0.16254 0.155784,4.79847 c 0.08568,2.63915 0.225237,6.94159 0.310126,9.56096 0.125622,3.87627 0.0887,4.75792 -0.198437,4.73789 -0.19403,-0.0135 -2.984987,-0.8064 -6.20213,-1.76193 z M 128.66118,129.3461 c 0.049,-0.25466 0.26451,-0.46302 0.4788,-0.46302 0.2143,0 0.42976,0.20836 0.4788,0.46302 0.0626,0.32487 -0.0803,0.46302 -0.4788,0.46302 -0.3985,0 -0.54136,-0.13815 -0.4788,-0.46302 z M 13.517062,104.99895 c 0,-2.07288 0.49182,-5.966875 1.252872,-10.445595 0.97109,-5.714777 2.380527,-12.381562 3.765888,-17.431775 3.094234,-11.279756 6.233978,-17.909566 11.510942,-24.30621 2.09741,-2.542444 6.047534,-6.528271 8.885996,-9.153776 2.295335,-2.123128 3.863729,-3.356709 3.137626,-2.218154 -8.676569,13.605193 -13.849856,31.228854 -15.732152,53.594211 -0.243962,2.898735 -0.536046,5.514129 -0.649076,5.811979 -0.153344,0.40409 -1.405234,1.00079 -4.932032,2.3508 -2.599587,0.99509 -5.292069,2.02957 -5.983293,2.29886 l -1.256771,0.48961 z"
         id="path40"
         sodipodi:nodetypes="ssssssssscsssccsssssssscsscscccsscscsscccsscccsscsscscscscssssscsssscs" />
    </g>
  </g>
</svg>
